<svg width="32" height="32" viewBox="0 0 32 32" fill="none" xmlns="http://www.w3.org/2000/svg">
<path d="M11.579 31.9999C6.81645 31.9725 2.87695 22.2505 2.87695 17.2993C2.87695 9.21156 8.94414 7.44094 11.2824 7.44094C12.3361 7.44094 13.4613 7.85475 14.4538 8.22094C15.1478 8.47638 15.8655 8.74006 16.2647 8.74006C16.5036 8.74006 17.0667 8.51575 17.5638 8.31894C18.624 7.89688 19.9433 7.37231 21.4795 7.37231C21.4823 7.37231 21.486 7.37231 21.4886 7.37231C22.6358 7.37231 26.1139 7.62406 28.205 10.7643L28.6948 11.5004L27.9898 12.0323C26.9828 12.7922 25.1453 14.1783 25.1453 16.924C25.1453 20.1759 27.2263 21.4266 28.226 22.0281C28.6673 22.2936 29.1241 22.5673 29.1241 23.1661C29.1241 23.557 26.004 31.9514 21.4731 31.9514C20.3644 31.9514 19.5807 31.6182 18.8895 31.3243C18.19 31.0268 17.5866 30.7704 16.5896 30.7704C16.0843 30.7704 15.4452 31.0094 14.7686 31.263C13.8441 31.6081 12.7976 31.9999 11.6101 31.9999H11.579Z" fill="white"/>
<path d="M21.9591 0C22.0771 4.25475 19.0343 7.2065 15.995 7.02138C15.4942 3.62594 19.0339 0 21.9591 0Z" fill="white"/>
</svg>
