<svg width="28" height="28" viewBox="0 0 28 28" fill="none" xmlns="http://www.w3.org/2000/svg">
<mask id="mask0_0_571" style="mask-type:luminance" maskUnits="userSpaceOnUse" x="2" y="3" width="25" height="24">
<path fill-rule="evenodd" clip-rule="evenodd" d="M2.33398 3.5H26.2186V26.2512H2.33398V3.5Z" fill="white"/>
</mask>
<g mask="url(#mask0_0_571)">
<path fill-rule="evenodd" clip-rule="evenodd" d="M4.46193 14.1436C6.0976 19.2326 12.5598 23.3475 14.2771 24.366C16.0003 23.337 22.5091 19.1766 24.0923 14.1483C25.1318 10.898 24.1669 6.7808 20.3333 5.5453C18.4759 4.94914 16.3094 5.31197 14.8138 6.4693C14.5011 6.70964 14.0671 6.7143 13.7521 6.4763C12.1678 5.28514 10.0981 4.9363 8.2116 5.5453C4.38377 6.77964 3.42243 10.8968 4.46193 14.1436ZM14.2783 26.2513C14.1336 26.2513 13.9901 26.2163 13.8594 26.1451C13.4943 25.9456 4.89243 21.2043 2.79593 14.678C2.79477 14.678 2.79477 14.6768 2.79477 14.6768C1.47877 10.5678 2.9441 5.40414 7.67493 3.8793C9.89627 3.16064 12.3171 3.4768 14.2748 4.7123C16.1718 3.51297 18.6918 3.18164 20.8688 3.8793C25.6043 5.40647 27.0743 10.569 25.7594 14.6768C23.7306 21.1285 15.0658 25.941 14.6983 26.1428C14.5676 26.2151 14.4229 26.2513 14.2783 26.2513Z" fill="black"/>
</g>
<path fill-rule="evenodd" clip-rule="evenodd" d="M21.1791 12.3957C20.7276 12.3957 20.345 12.0492 20.3076 11.5919C20.2306 10.6329 19.589 9.82323 18.6755 9.52807C18.2146 9.37873 17.9626 8.88523 18.1108 8.42673C18.2613 7.96707 18.7501 7.7174 19.2121 7.86207C20.8023 8.37657 21.9165 9.78473 22.053 11.4496C22.0915 11.9314 21.7333 12.3537 21.2515 12.3922C21.227 12.3946 21.2036 12.3957 21.1791 12.3957Z" fill="black"/>
</svg>
