<svg width="20" height="20" viewBox="0 0 20 20" fill="none" xmlns="http://www.w3.org/2000/svg">
<path d="M16.666 1.66675H8.33268C7.89065 1.66675 7.46673 1.84234 7.15417 2.1549C6.84161 2.46746 6.66602 2.89139 6.66602 3.33341V5.00008H13.3327C13.7747 5.00008 14.1986 5.17568 14.5112 5.48824C14.8238 5.8008 14.9993 6.22472 14.9993 6.66675V13.3334H16.666C17.108 13.3334 17.532 13.1578 17.8445 12.8453C18.1571 12.5327 18.3327 12.1088 18.3327 11.6667V3.33341C18.3327 2.89139 18.1571 2.46746 17.8445 2.1549C17.532 1.84234 17.108 1.66675 16.666 1.66675Z" fill="#246BFD"/>
<path d="M3.33268 18.3334H11.666C12.5852 18.3334 13.3327 17.5859 13.3327 16.6667V8.33341C13.3327 7.41425 12.5852 6.66675 11.666 6.66675H3.33268C2.41352 6.66675 1.66602 7.41425 1.66602 8.33341V16.6667C1.66602 17.5859 2.41352 18.3334 3.33268 18.3334ZM4.99935 10.0001H9.99935V11.6667H4.99935V10.0001ZM4.99935 13.3334H9.99935V15.0001H4.99935V13.3334Z" fill="#246BFD"/>
</svg>
