<svg width="20" height="20" viewBox="0 0 20 20" fill="none" xmlns="http://www.w3.org/2000/svg">
<path fill-rule="evenodd" clip-rule="evenodd" d="M14.6026 6.16318V7.44096C16.0379 7.88897 17.0837 9.18828 17.0837 10.7402V14.8543C17.0837 16.7755 15.4909 18.3332 13.5272 18.3332H6.47432C4.50979 18.3332 2.91699 16.7755 2.91699 14.8543V10.7402C2.91699 9.18828 3.96362 7.88897 5.39806 7.44096V6.16318C5.40653 3.67883 7.46421 1.6665 9.98763 1.6665C12.5449 1.6665 14.6026 3.67883 14.6026 6.16318ZM10.0046 3.11571C11.7235 3.11571 13.1207 4.4821 13.1207 6.16318V7.26126H6.87993V6.14661C6.8884 4.47382 8.28559 3.11571 10.0046 3.11571ZM10.7413 13.7123C10.7413 14.1181 10.411 14.441 9.99609 14.441C9.58964 14.441 9.25939 14.1181 9.25939 13.7123V11.8739C9.25939 11.4764 9.58964 11.1534 9.99609 11.1534C10.411 11.1534 10.7413 11.4764 10.7413 11.8739V13.7123Z" fill="#212121"/>
</svg>
