<svg width="28" height="28" viewBox="0 0 28 28" fill="none" xmlns="http://www.w3.org/2000/svg">
<path fill-rule="evenodd" clip-rule="evenodd" d="M11.7594 21.6919H4.4082C3.9252 21.6919 3.5332 21.2999 3.5332 20.8169C3.5332 20.3339 3.9252 19.9419 4.4082 19.9419H11.7594C12.2424 19.9419 12.6344 20.3339 12.6344 20.8169C12.6344 21.2999 12.2424 21.6919 11.7594 21.6919Z" fill="white"/>
<path fill-rule="evenodd" clip-rule="evenodd" d="M22.3891 10.3838H15.0391C14.5561 10.3838 14.1641 9.99179 14.1641 9.50879C14.1641 9.02579 14.5561 8.63379 15.0391 8.63379H22.3891C22.8721 8.63379 23.2641 9.02579 23.2641 9.50879C23.2641 9.99179 22.8721 10.3838 22.3891 10.3838Z" fill="white"/>
<mask id="mask0_0_643" style="mask-type:luminance" maskUnits="userSpaceOnUse" x="3" y="5" width="8" height="9">
<path fill-rule="evenodd" clip-rule="evenodd" d="M3.5 5.83398H10.7634V13.0575H3.5V5.83398Z" fill="white"/>
</mask>
<g mask="url(#mask0_0_643)">
<path fill-rule="evenodd" clip-rule="evenodd" d="M7.13183 7.5835C6.09467 7.5835 5.25 8.41883 5.25 9.44666C5.25 10.4733 6.09467 11.3075 7.13183 11.3075C8.17017 11.3075 9.01367 10.4733 9.01367 9.44666C9.01367 8.41883 8.17017 7.5835 7.13183 7.5835ZM7.13183 13.0575C5.12983 13.0575 3.5 11.4382 3.5 9.44666C3.5 7.45516 5.12983 5.8335 7.13183 5.8335C9.135 5.8335 10.7637 7.45516 10.7637 9.44666C10.7637 11.4382 9.135 13.0575 7.13183 13.0575Z" fill="white"/>
</g>
<path fill-rule="evenodd" clip-rule="evenodd" d="M20.2853 18.9097C19.247 18.9097 18.4023 19.745 18.4023 20.7717C18.4023 21.7995 19.247 22.6337 20.2853 22.6337C21.3225 22.6337 22.166 21.7995 22.166 20.7717C22.166 19.745 21.3225 18.9097 20.2853 18.9097ZM20.2853 24.3837C18.2822 24.3837 16.6523 22.7632 16.6523 20.7717C16.6523 18.7802 18.2822 17.1597 20.2853 17.1597C22.2873 17.1597 23.916 18.7802 23.916 20.7717C23.916 22.7632 22.2873 24.3837 20.2853 24.3837Z" fill="white"/>
</svg>
