<svg width="32" height="32" viewBox="0 0 32 32" fill="none" xmlns="http://www.w3.org/2000/svg">
<path fill-rule="evenodd" clip-rule="evenodd" d="M10.4133 2.66699H21.588C25.7067 2.66699 28 5.04033 28 9.10699V22.8803C28 27.0137 25.7067 29.3337 21.588 29.3337H10.4133C6.36 29.3337 4 27.0137 4 22.8803V9.10699C4 5.04033 6.36 2.66699 10.4133 2.66699ZM10.7733 8.88033V8.86699H14.7587C15.3333 8.86699 15.8 9.33366 15.8 9.90566C15.8 10.4937 15.3333 10.9603 14.7587 10.9603H10.7733C10.1987 10.9603 9.73333 10.4937 9.73333 9.92033C9.73333 9.34699 10.1987 8.88033 10.7733 8.88033ZM10.7733 16.987H21.2267C21.8 16.987 22.2667 16.5203 22.2667 15.947C22.2667 15.3737 21.8 14.9057 21.2267 14.9057H10.7733C10.1987 14.9057 9.73333 15.3737 9.73333 15.947C9.73333 16.5203 10.1987 16.987 10.7733 16.987ZM10.7733 23.0803H21.2267C21.7587 23.027 22.16 22.5723 22.16 22.0403C22.16 21.4937 21.7587 21.0403 21.2267 20.987H10.7733C10.3733 20.947 9.98667 21.1337 9.77333 21.4803C9.56 21.8137 9.56 22.2537 9.77333 22.6003C9.98667 22.9337 10.3733 23.1337 10.7733 23.0803Z" fill="white"/>
</svg>
