<svg width="50" height="50" viewBox="0 0 50 50" fill="none" xmlns="http://www.w3.org/2000/svg">
<path fill-rule="evenodd" clip-rule="evenodd" d="M14.1749 0H35.8498C44.3247 0 49.9997 5.94996 49.9997 14.7999V35.2273C49.9997 44.0497 44.3247 49.9997 35.8498 49.9997H14.1749C5.69996 49.9997 0 44.0497 0 35.2273V14.7999C0 5.94996 5.69996 0 14.1749 0ZM23.5748 32.4748L35.4498 20.5999C36.2998 19.7499 36.2998 18.3749 35.4498 17.4999C34.5998 16.6499 33.1998 16.6499 32.3498 17.4999L22.0249 27.8248L17.6499 23.4498C16.7999 22.5999 15.3999 22.5999 14.5499 23.4498C13.6999 24.2998 13.6999 25.6748 14.5499 26.5498L20.4999 32.4748C20.9249 32.8998 21.4749 33.0998 22.0249 33.0998C22.5999 33.0998 23.1498 32.8998 23.5748 32.4748Z" fill="white"/>
</svg>
