<svg width="24" height="24" viewBox="0 0 24 24" fill="none" xmlns="http://www.w3.org/2000/svg">
<g clip-path="url(#clip0_0_104)">
<path d="M23.0274 12.2247C23.0274 11.2414 22.949 10.5239 22.7794 9.77979H11.749V14.2178H18.2236C18.0931 15.3207 17.3882 16.9816 15.8217 18.0977L15.7998 18.2463L19.2874 20.9965L19.529 21.021C21.7481 18.9349 23.0274 15.8654 23.0274 12.2247Z" fill="#4285F4"/>
<path d="M11.7491 23.9173C14.9211 23.9173 17.584 22.8543 19.5291 21.0207L15.8218 18.0973C14.8297 18.8016 13.4982 19.2932 11.7491 19.2932C8.64233 19.2932 6.00551 17.2071 5.06556 14.3237L4.92778 14.3356L1.30133 17.1925L1.25391 17.3267C3.18583 21.2332 7.15415 23.9173 11.7491 23.9173Z" fill="#34A853"/>
<path d="M5.06574 14.3238C4.81773 13.5797 4.67419 12.7824 4.67419 11.9586C4.67419 11.1347 4.81773 10.3375 5.05269 9.59342L5.04612 9.43494L1.37423 6.53223L1.2541 6.59039C0.457859 8.21149 0.000976562 10.0319 0.000976562 11.9586C0.000976562 13.8853 0.457859 15.7056 1.2541 17.3267L5.06574 14.3238Z" fill="#FBBC05"/>
<path d="M11.7491 4.62403C13.9551 4.62403 15.4432 5.59401 16.2917 6.40461L19.6073 3.10928C17.571 1.1826 14.9211 0 11.7491 0C7.15415 0 3.18583 2.68406 1.25391 6.59056L5.0525 9.59359C6.00551 6.7102 8.64232 4.62403 11.7491 4.62403Z" fill="#EB4335"/>
</g>
<defs>
<clipPath id="clip0_0_104">
<rect width="23.04" height="24" fill="white"/>
</clipPath>
</defs>
</svg>
