<svg width="28" height="28" viewBox="0 0 28 28" fill="none" xmlns="http://www.w3.org/2000/svg">
<path d="M14.3387 6.07794L16.0887 7.82794C16.1971 7.93729 16.3262 8.02408 16.4683 8.08331C16.6105 8.14254 16.763 8.17303 16.917 8.17303C17.071 8.17303 17.2235 8.14254 17.3657 8.08331C17.5078 8.02408 17.6369 7.93729 17.7453 7.82794C17.9224 7.64209 18.0332 7.40304 18.0606 7.14783C18.088 6.89262 18.0305 6.63548 17.897 6.41627H22.167C22.4764 6.41627 22.7732 6.29335 22.992 6.07456C23.2107 5.85577 23.3337 5.55902 23.3337 5.2496C23.3337 4.94018 23.2107 4.64344 22.992 4.42465C22.7732 4.20585 22.4764 4.08294 22.167 4.08294H17.897C18.0305 3.86372 18.088 3.60659 18.0606 3.35138C18.0332 3.09616 17.9224 2.85711 17.7453 2.67127C17.6369 2.56192 17.5078 2.47513 17.3657 2.4159C17.2235 2.35667 17.071 2.32617 16.917 2.32617C16.763 2.32617 16.6105 2.35667 16.4683 2.4159C16.3262 2.47513 16.1971 2.56192 16.0887 2.67127L14.3387 4.42127C14.2324 4.53222 14.1492 4.66306 14.0937 4.80627C13.977 5.09031 13.977 5.4089 14.0937 5.69294C14.1492 5.83615 14.2324 5.96698 14.3387 6.07794ZM26.7403 10.6396C26.6848 10.4964 26.6015 10.3656 26.4953 10.2546L24.7453 8.5046C24.6369 8.39525 24.5078 8.30846 24.3657 8.24923C24.2235 8.19 24.071 8.1595 23.917 8.1595C23.763 8.1595 23.6105 8.19 23.4683 8.24923C23.3262 8.30846 23.1971 8.39525 23.0887 8.5046C22.9116 8.69045 22.8008 8.9295 22.7734 9.18471C22.7459 9.43992 22.8035 9.69706 22.937 9.91627H18.667C18.3576 9.91627 18.0608 10.0392 17.842 10.258C17.6232 10.4768 17.5003 10.7735 17.5003 11.0829C17.5003 11.3924 17.6232 11.6891 17.842 11.9079C18.0608 12.1267 18.3576 12.2496 18.667 12.2496H22.937C22.8035 12.4688 22.7459 12.7259 22.7734 12.9812C22.8008 13.2364 22.9116 13.4754 23.0887 13.6613C23.1971 13.7706 23.3262 13.8574 23.4683 13.9166C23.6105 13.9759 23.763 14.0064 23.917 14.0064C24.071 14.0064 24.2235 13.9759 24.3657 13.9166C24.5078 13.8574 24.6369 13.7706 24.7453 13.6613L26.4953 11.9113C26.6015 11.8003 26.6848 11.6695 26.7403 11.5263C26.857 11.2422 26.857 10.9236 26.7403 10.6396ZM12.8337 11.6663C11.9107 11.6663 11.0084 11.94 10.241 12.4527C9.47357 12.9655 8.87543 13.6944 8.52222 14.5471C8.16901 15.3998 8.0766 16.3381 8.25666 17.2434C8.43673 18.1486 8.88118 18.9801 9.53383 19.6328C10.1865 20.2854 11.018 20.7299 11.9232 20.9099C12.8285 21.09 13.7668 20.9976 14.6195 20.6444C15.4722 20.2912 16.2011 19.693 16.7139 18.9256C17.2266 18.1582 17.5003 17.2559 17.5003 16.3329C17.5003 15.0953 17.0087 13.9083 16.1335 13.0331C15.2583 12.1579 14.0713 11.6663 12.8337 11.6663ZM12.8337 18.6663C12.3722 18.6663 11.921 18.5294 11.5373 18.273C11.1536 18.0166 10.8545 17.6522 10.6779 17.2259C10.5013 16.7995 10.4551 16.3303 10.5452 15.8777C10.6352 15.4251 10.8574 15.0093 11.1837 14.683C11.5101 14.3567 11.9258 14.1345 12.3784 14.0444C12.8311 13.9544 13.3002 14.0006 13.7266 14.1772C14.1529 14.3538 14.5174 14.6529 14.7738 15.0366C15.0301 15.4203 15.167 15.8714 15.167 16.3329C15.167 16.9518 14.9212 17.5453 14.4836 17.9829C14.046 18.4204 13.4525 18.6663 12.8337 18.6663ZM23.3337 15.1663C23.0242 15.1663 22.7275 15.2892 22.5087 15.508C22.2899 15.7268 22.167 16.0235 22.167 16.3329V22.1663C22.167 22.4757 22.0441 22.7724 21.8253 22.9912C21.6065 23.21 21.3097 23.3329 21.0003 23.3329H4.66699C4.35757 23.3329 4.06083 23.21 3.84203 22.9912C3.62324 22.7724 3.50033 22.4757 3.50033 22.1663V12.8329C3.50033 12.5235 3.62324 12.2268 3.84203 12.008C4.06083 11.7892 4.35757 11.6663 4.66699 11.6663H7.00033C7.2562 11.6788 7.50907 11.6067 7.71993 11.4613C7.93078 11.3158 8.08788 11.1049 8.16699 10.8613L8.79699 8.97127C8.86992 8.74656 9.00935 8.54928 9.19685 8.40553C9.38434 8.26179 9.61105 8.17836 9.84699 8.16627H11.667C11.9764 8.16627 12.2732 8.04335 12.492 7.82456C12.7107 7.60577 12.8337 7.30902 12.8337 6.9996C12.8337 6.69018 12.7107 6.39344 12.492 6.17465C12.2732 5.95585 11.9764 5.83294 11.667 5.83294H9.84699C9.11037 5.83267 8.39244 6.06483 7.79544 6.49635C7.19844 6.92786 6.7528 7.53674 6.52199 8.23627L6.16033 9.33294H4.66699C3.73873 9.33294 2.8485 9.70168 2.19212 10.3581C1.53574 11.0144 1.16699 11.9047 1.16699 12.8329V22.1663C1.16699 23.0945 1.53574 23.9848 2.19212 24.6411C2.8485 25.2975 3.73873 25.6663 4.66699 25.6663H21.0003C21.9286 25.6663 22.8188 25.2975 23.4752 24.6411C24.1316 23.9848 24.5003 23.0945 24.5003 22.1663V16.3329C24.5003 16.0235 24.3774 15.7268 24.1586 15.508C23.9398 15.2892 23.6431 15.1663 23.3337 15.1663Z" fill="white"/>
</svg>
