<svg width="28" height="28" viewBox="0 0 28 28" fill="none" xmlns="http://www.w3.org/2000/svg">
<path d="M23.1814 10.0337C23.0944 9.83386 22.9533 9.66237 22.7739 9.53865C22.5945 9.41494 22.384 9.34393 22.1664 9.33369H16.823L18.3047 3.80369C18.3519 3.63065 18.3585 3.44905 18.3241 3.27301C18.2897 3.09698 18.2152 2.93125 18.1064 2.78869C17.9977 2.64751 17.8581 2.53309 17.6983 2.45422C17.5386 2.37535 17.3629 2.33412 17.1847 2.33369H9.01803C8.75464 2.32467 8.49595 2.40509 8.2841 2.56186C8.07226 2.71863 7.91973 2.9425 7.85136 3.19703L4.72469 14.8637C4.67751 15.0367 4.67085 15.2183 4.70525 15.3944C4.73965 15.5704 4.81417 15.7361 4.92303 15.8787C5.03291 16.0214 5.17436 16.1368 5.33629 16.2157C5.49821 16.2947 5.67622 16.3351 5.85636 16.3337H10.3714L8.25969 24.197C8.19051 24.4506 8.20897 24.7201 8.31208 24.9618C8.41519 25.2036 8.59692 25.4035 8.82781 25.529C9.05871 25.6546 9.32524 25.6985 9.58422 25.6537C9.84319 25.6089 10.0794 25.4779 10.2547 25.282L22.9714 11.282C23.1228 11.1162 23.2231 10.9102 23.2604 10.6888C23.2976 10.4674 23.2702 10.2399 23.1814 10.0337ZM11.7597 20.1604L13.008 15.4937C13.0552 15.3206 13.0619 15.1391 13.0275 14.963C12.9931 14.787 12.9186 14.6212 12.8097 14.4787C12.701 14.3375 12.5614 14.2231 12.4017 14.1442C12.2419 14.0654 12.0662 14.0241 11.888 14.0237H7.40803L9.90469 4.66703H15.6564L14.1747 10.197C14.1271 10.3733 14.1216 10.5582 14.1585 10.737C14.1954 10.9157 14.2737 11.0833 14.3872 11.2263C14.5007 11.3693 14.6461 11.4837 14.8119 11.5602C14.9776 11.6367 15.1589 11.6733 15.3414 11.667H19.5064L11.7597 20.1604Z" fill="white"/>
</svg>
