<svg width="339" height="250" viewBox="0 0 339 250" fill="none" xmlns="http://www.w3.org/2000/svg">
<g clip-path="url(#clip0_1331_24408)">
<path opacity="0.1" d="M3.64844 119.859C9.00146 140.542 20.3239 158.422 38.2166 167.089C75.4134 185.101 159.302 175.811 221.911 165.148C254.297 159.633 282.764 144.412 303.442 122.993L3.64844 119.859Z" fill="#246BFD"/>
<path opacity="0.1" d="M331.967 22.501H297.615C295.984 22.501 294.647 21.2932 294.647 19.8174C294.647 18.3416 295.984 17.1307 297.615 17.1307H303.556C301.923 17.1307 300.588 15.9229 300.588 14.444C300.588 12.9651 301.923 11.7604 303.556 11.7604H299.316C297.682 11.7604 296.345 10.5526 296.345 9.07373C296.345 7.59482 297.682 6.39013 299.316 6.39013H317.245C313.267 4.71712 308.616 3.52783 303.257 2.90238C254.365 -2.77601 236.91 0.979797 230.753 4.84036C223.078 9.71227 214.552 13.0928 205.624 14.8045C175.46 20.4336 119.048 27.2057 67.9185 12.6478C42.5063 5.39803 23.6181 17.6329 12.2988 38.085H337.933C337.508 32.1416 336.235 26.6512 333.899 21.8478C333.346 22.2748 332.666 22.5047 331.967 22.501Z" fill="#246BFD"/>
<path opacity="0.1" d="M0.736361 76.6875C-0.583109 88.7165 -0.134582 100.874 2.06768 112.773L303.674 122.752C311.976 114.144 319.03 104.413 324.63 93.8459L0.736361 76.6875ZM120.025 102.43H114.087C115.72 102.43 117.057 103.641 117.057 105.116C117.057 106.592 115.72 107.8 114.087 107.8H79.7342C78.104 107.8 76.7665 106.592 76.7665 105.116C76.7665 103.641 78.104 102.43 79.7342 102.43H85.6759C84.0425 102.43 82.7081 101.222 82.7081 99.7461C82.7081 98.2703 84.0425 97.0594 85.6759 97.0594H81.4323C79.799 97.0594 78.4615 95.8517 78.4615 94.3758C78.4615 92.9 79.799 91.6892 81.4323 91.6892H115.785C117.418 91.6892 118.752 92.8969 118.752 94.3758C118.752 95.8548 117.418 97.0594 115.785 97.0594H120.025C121.659 97.0594 122.993 98.2672 122.993 99.7461C122.993 101.225 121.659 102.43 120.025 102.43Z" fill="#246BFD"/>
<path opacity="0.1" d="M337.946 38.2698L8.66553 45.5103C4.65924 54.8243 2.00276 65.3553 0.779297 76.2684H332.177C334.333 69.8836 335.934 63.3243 336.959 56.6637C337.949 50.252 338.343 44.0498 337.946 38.2698ZM67.635 62.0093H61.6965C63.3298 62.0093 64.6673 63.2202 64.6673 64.696C64.6673 66.1718 63.3298 67.3827 61.6965 67.3827H27.3441C25.7138 67.3827 24.3763 66.1718 24.3763 64.696C24.3763 63.2202 25.7138 62.0093 27.3441 62.0093H33.2857C31.6524 62.0093 30.318 60.8015 30.318 59.3257C30.318 57.8499 31.6524 56.639 33.2857 56.639H29.0421C27.4088 56.639 26.0713 55.4313 26.0713 53.9554C26.0713 52.4796 27.4088 51.2688 29.0421 51.2688H63.3945C65.0279 51.2688 66.3623 52.4765 66.3623 53.9554C66.3623 55.4343 65.0279 56.639 63.3945 56.639H67.635C69.2684 56.639 70.6028 57.8499 70.6028 59.3257C70.6028 60.8015 69.2684 62.0093 67.635 62.0093Z" fill="#246BFD"/>
<path opacity="0.1" d="M167.981 240.655C244.057 240.655 305.73 234.983 305.73 227.986C305.73 220.989 244.057 215.317 167.981 215.317C91.9046 215.317 30.2324 220.989 30.2324 227.986C30.2324 234.983 91.9046 240.655 167.981 240.655Z" fill="#246BFD"/>
<path d="M308.373 123.341C308.372 123.319 308.372 123.298 308.373 123.276C308.373 123.242 308.373 123.212 308.373 123.181C308.311 122.828 308.178 122.491 307.982 122.192C307.277 121.063 306.294 120.134 305.128 119.493C303.094 118.377 300.299 117.9 299.485 115.771C299.236 115.111 299.23 114.394 299.106 113.703C298.891 112.628 298.396 111.628 297.672 110.805C296.947 109.981 296.019 109.362 294.98 109.011C294.012 108.687 292.968 108.598 292.028 108.198C289.926 107.304 288.816 105.101 287.876 103.064C286.66 100.435 285.444 97.8051 284.228 95.1739C283.303 95.6391 282.107 95.4204 281.241 94.8381C280.407 94.217 279.742 93.3958 279.309 92.4502C278.055 90.0162 277.516 87.2587 276.042 84.9417C274.569 82.6248 271.626 80.7946 269.025 81.8021C268.517 82.0558 267.992 82.273 267.454 82.4522C265.225 82.9729 262.76 80.428 260.852 81.6635C260.536 81.8666 260.277 82.1492 260.104 82.483C260.102 82.4625 260.102 82.4419 260.104 82.4214C259.855 82.9226 259.717 83.4708 259.697 84.0297C259.697 84.1437 259.697 84.2546 259.697 84.3625C259.697 84.381 259.697 84.3994 259.697 84.4179C259.697 84.8616 259.725 85.3114 259.731 85.7613C259.738 86.139 259.709 86.5166 259.644 86.8889V86.8581C259.608 87.0677 259.555 87.2738 259.484 87.4743C258.988 88.8054 257.614 89.6773 256.969 90.9282V90.8666C256.897 91.0026 256.834 91.1437 256.781 91.2887C256.667 91.6166 256.608 91.9612 256.606 92.3085C256.55 94.6594 259.043 96.8716 259.333 99.395C259.54 101.182 259.949 101.755 261.469 102.766L261.802 102.987C261.669 102.987 261.534 103.006 261.383 103.009C261.324 103.01 261.265 103.016 261.207 103.028C260.939 102.954 260.658 102.94 260.384 102.988C260.11 103.036 259.85 103.144 259.623 103.305C258.458 104.229 255.703 103.517 254.479 103.305C253.256 103.092 249.065 103.665 248.479 105.988C247.894 108.312 246.889 113.106 246.889 113.106C246.889 113.106 246.889 116.147 246.516 116.714C246.502 116.753 246.502 116.797 246.516 116.837C246.516 117.69 246.547 122.82 245.721 124.142C245.518 124.45 245.533 125.131 245.684 125.969C244.815 127.087 243.998 128.394 244.143 129.25C244.408 131.004 247.965 136.516 253.062 133.564C253.062 133.564 255.962 128.261 252.313 125.442L252.47 124.826C253.573 126.182 254.39 127.155 254.39 127.155C254.39 127.155 254.433 127.269 254.501 127.463H254.39C254.866 128.759 255.155 130.116 255.247 131.493C255.233 131.998 255.141 132.498 254.976 132.975H255.071C255.043 133.08 255.013 133.185 254.976 133.283C254.796 133.804 254.462 134.257 254.017 134.581C251.468 136.386 248.55 149.28 248.55 149.28C248.55 149.28 242.769 170.124 241.613 171.31C240.658 172.284 246.661 175.026 251.166 174.699C251.795 174.662 252.417 174.544 253.016 174.348C253.043 174.656 253.074 174.964 253.105 175.244C253.2 176.169 253.299 177.025 253.361 177.293C253.521 177.965 253.838 184.823 253.838 184.823C253.838 184.823 253.188 189.279 253.345 192.378C253.345 192.591 253.373 192.794 253.391 192.994L252.831 193.081C251.98 194.991 255.484 210.929 255.962 212.269C256.278 213.326 256.456 214.418 256.492 215.52C256.492 215.52 256.184 216.654 256.439 217.273C256.599 217.652 256.702 218.051 256.748 218.459C256.748 218.459 256.538 219.488 256.855 220.16C257.173 220.832 256.803 222.009 256.803 222.009C256.803 222.009 256.698 226.652 255.743 229.178C255.483 229.858 255.407 230.595 255.523 231.313C255.64 232.032 255.944 232.707 256.405 233.27C256.472 233.358 256.544 233.441 256.621 233.52C256.621 233.52 261.891 233.563 262.819 233.52H262.939C263.312 233.467 264.267 229.289 263.416 227.277C262.566 225.265 263.312 222.788 263.312 222.788V219.128C263.312 219.128 264.267 218.247 263.312 216.355C262.356 214.463 262.514 213.89 262.514 213.89C262.514 213.89 263.577 210.846 262.461 209.866C261.346 208.886 262.674 205.171 262.674 205.171L263.05 192.785C262.853 192.721 262.652 192.669 262.449 192.631C262.427 192.427 262.406 192.218 262.384 191.996C262.165 189.753 261.977 186.703 262.464 185.834C262.951 184.965 263.185 177.38 263.262 172.108L268.119 172.293C268.221 174.758 268.329 177.007 268.397 177.293C268.557 177.965 268.877 184.823 268.877 184.823C268.877 184.823 268.224 189.279 268.381 192.378C268.381 192.591 268.409 192.794 268.427 192.994L267.867 193.081C267.016 194.991 270.52 210.929 270.998 212.269C271.314 213.326 271.493 214.418 271.531 215.52C271.531 215.52 271.223 216.654 271.475 217.273C271.635 217.652 271.738 218.051 271.783 218.459C271.783 218.459 271.574 219.488 271.891 220.16C272.209 220.832 271.839 222.009 271.839 222.009C271.839 222.009 271.734 226.652 270.779 229.178C270.523 229.859 270.451 230.596 270.571 231.313C270.691 232.03 270.999 232.703 271.463 233.264C271.529 233.352 271.601 233.435 271.679 233.513C271.679 233.513 276.948 233.556 277.876 233.513H277.996C278.369 233.461 279.325 229.283 278.474 227.271C277.623 225.259 278.369 222.782 278.369 222.782V219.128C278.369 219.128 279.325 218.247 278.369 216.355C277.414 214.463 277.571 213.89 277.571 213.89C277.571 213.89 278.634 210.846 277.519 209.866C276.403 208.886 277.731 205.171 277.731 205.171L278.113 192.785C277.912 192.72 277.706 192.668 277.497 192.631C277.475 192.427 277.454 192.218 277.432 191.996C277.214 189.753 277.026 186.703 277.512 185.834C277.904 185.122 278.129 180.538 278.231 176.061C278.231 175.753 278.231 175.445 278.255 175.137C280.487 175.044 282.709 174.795 284.906 174.391C284.906 174.391 282.308 165.206 283.103 163.712C283.445 163.068 282.952 159.639 282.277 155.945C283.218 156.706 284.388 157.13 285.599 157.146C286.761 159.38 290.296 164.519 292.286 165.311C294.622 166.235 292.869 158.04 291.756 156.854C291.23 156.206 290.787 155.495 290.437 154.737C290.468 154.7 290.502 154.669 290.533 154.635C290.564 154.601 290.588 145.916 290.055 146.073C289.522 146.23 288.887 144.782 288.887 144.782L287.242 130.341L286.551 124.296C287.128 124.721 287.812 124.992 288.4 125.414C290.003 126.588 290.527 128.65 291.229 130.474C291.809 131.974 292.622 133.462 293.957 134.405C295.291 135.348 297.248 135.597 298.579 134.642C299.812 133.746 300.176 132.128 300.447 130.652C302.684 131.438 305.399 129.337 305.11 127.041C305.039 126.474 304.829 125.855 305.125 125.359C305.717 124.379 307.59 124.949 308.207 123.982C308.31 123.814 308.364 123.621 308.361 123.424C308.37 123.381 308.373 123.362 308.373 123.341ZM278.446 131.284C278.412 131.835 279.17 136.266 279.787 139.772C279.281 137.588 278.267 135.255 276.271 133.656C276.271 133.656 276.271 133.545 276.246 133.348H276.271C276.271 133.348 276.187 132.467 276.175 131.213C276.179 130.101 276.261 128.992 276.422 127.892V127.864H276.381C276.381 127.771 276.406 127.676 276.422 127.584C276.544 126.655 276.796 125.749 277.17 124.891C277.336 124.554 277.526 124.231 277.741 123.923C278.07 126.903 278.477 130.726 278.446 131.284ZM280.104 141.55C280.375 143.063 280.57 144.126 280.57 144.126L282.206 155.359V155.412C281.325 150.67 280.2 145.672 280.2 145.672C280.314 144.299 280.282 142.917 280.104 141.55Z" fill="url(#paint0_linear_1331_24408)"/>
<path d="M260.048 100.011C259.74 97.1641 256.658 94.7085 257.583 92.0003C258.085 90.5245 259.657 89.6217 260.187 88.1551C260.538 87.1877 260.381 86.1247 260.384 85.0957C260.387 84.0666 260.627 82.9173 261.484 82.3473C263.333 81.1149 265.712 83.6506 267.869 83.133C268.391 82.9547 268.899 82.7384 269.389 82.486C271.907 81.4847 274.754 83.3086 276.169 85.6133C277.583 87.9179 278.113 90.6662 279.327 93.0879C279.742 94.0231 280.384 94.8397 281.195 95.4634C282.033 96.0426 283.18 96.2614 284.086 95.7992L287.614 103.656C288.539 105.68 289.599 107.874 291.621 108.764C292.527 109.162 293.537 109.251 294.474 109.575C295.492 109.934 296.398 110.554 297.102 111.373C297.805 112.192 298.28 113.182 298.481 114.242C298.601 114.933 298.604 115.647 298.847 116.304C299.633 118.423 302.336 118.898 304.305 120.001C305.444 120.643 306.399 121.567 307.079 122.685C307.387 123.218 307.652 123.917 307.322 124.441C306.727 125.402 304.918 124.835 304.345 125.812C304.055 126.305 304.259 126.921 304.345 127.488C304.626 129.771 301.997 131.863 299.833 131.08C299.572 132.55 299.217 134.161 298.028 135.052C296.749 136.007 294.853 135.754 293.562 134.818C292.271 133.881 291.488 132.399 290.927 130.905C290.246 129.087 289.738 127.035 288.187 125.867C287.627 125.448 286.955 125.177 286.406 124.755C285.174 123.812 284.557 122.256 284.116 120.75C283.546 118.87 283.093 116.938 282.267 115.164C281.441 113.389 280.135 111.738 278.344 110.927C276.665 110.172 274.729 110.222 272.994 109.609C270.008 108.555 267.799 106.044 264.828 104.861C263.878 104.462 262.978 103.953 262.147 103.345C260.652 102.362 260.245 101.792 260.048 100.011Z" fill="#3F3D56"/>
<g opacity="0.1">
<path opacity="0.1" d="M260.326 87.5513C260.39 87.4308 260.445 87.3062 260.493 87.1785C260.841 86.211 260.687 85.1481 260.69 84.119C260.69 83.7758 260.722 83.4333 260.785 83.0961C260.501 83.7048 260.363 84.3716 260.382 85.0433C260.379 85.8721 260.477 86.741 260.326 87.5513Z" fill="black"/>
<path opacity="0.1" d="M298.318 134.084C297.039 135.036 295.144 134.787 293.853 133.847C292.561 132.907 291.776 131.432 291.23 129.931C290.549 128.113 290.044 126.061 288.49 124.894C287.933 124.475 287.258 124.2 286.712 123.781C285.48 122.839 284.863 121.283 284.419 119.791C283.849 117.912 283.399 115.98 282.57 114.205C281.741 112.431 280.441 110.779 278.647 109.969C276.971 109.214 275.035 109.263 273.3 108.65C270.311 107.597 268.101 105.086 265.134 103.902C264.184 103.502 263.283 102.993 262.449 102.387C260.989 101.379 260.6 100.809 260.385 99.0312C260.077 96.363 257.365 94.0368 257.787 91.5227C257.718 91.6587 257.657 91.7986 257.605 91.9417C256.68 94.6531 259.762 97.1087 260.07 99.9525C260.271 101.73 260.687 102.3 262.135 103.308C262.969 103.915 263.869 104.423 264.819 104.824C267.787 106.007 269.997 108.521 272.986 109.572C274.721 110.188 276.656 110.135 278.333 110.89C280.126 111.701 281.415 113.355 282.256 115.127C283.097 116.898 283.547 118.824 284.105 120.713C284.558 122.204 285.153 123.76 286.398 124.703C286.956 125.122 287.631 125.396 288.176 125.815C289.717 126.983 290.235 129.035 290.916 130.852C291.477 132.347 292.262 133.826 293.554 134.762C294.845 135.699 296.74 135.952 298.019 134.999C298.836 134.383 299.252 133.444 299.526 132.436C299.282 133.086 298.864 133.656 298.318 134.084Z" fill="black"/>
<path opacity="0.1" d="M304.651 124.844C304.533 125.065 304.481 125.316 304.503 125.565C305.199 124.878 306.77 125.282 307.319 124.398C307.446 124.179 307.496 123.924 307.461 123.674C306.746 124.351 305.174 123.948 304.651 124.844Z" fill="black"/>
<path opacity="0.1" d="M300.124 130.113C300.065 130.421 300.007 130.751 299.933 131.071C301.819 131.66 303.997 130.147 304.306 128.237C303.557 129.706 301.708 130.689 300.124 130.113Z" fill="black"/>
</g>
<path d="M264.03 101.493C264.03 101.493 265.057 103.564 262.027 103.607C258.998 103.65 263.978 117.052 263.978 117.052L269.014 123.461L275.279 120.072L275.639 110.724L276.102 105.076C276.102 105.076 270.246 103.175 271.325 100.661C272.403 98.1471 264.03 101.493 264.03 101.493Z" fill="#FBBEBE"/>
<path d="M282.216 156.139C282.216 156.139 285.914 159.777 290.228 154.949L286.916 151.434H282.724L282.216 156.139Z" fill="#575A89"/>
<path opacity="0.1" d="M282.616 151.434L282.107 156.139C282.107 156.139 285.806 159.777 290.12 154.949" fill="black"/>
<path d="M288.838 152.075C288.838 152.075 290.327 155.979 291.406 157.159C292.484 158.339 294.179 166.503 291.92 165.579C289.661 164.655 285.347 157.775 285.088 156.595C284.829 155.415 284.73 152.075 284.73 152.075H288.838Z" fill="#FBBEBE"/>
<path d="M256.532 172.102L276.459 172.872L274.148 164.448L264.11 164.245L256.532 172.102Z" fill="#575A89"/>
<path opacity="0.1" d="M259.303 172.102L279.233 172.872L276.921 164.448L266.881 164.245L259.303 172.102Z" fill="black"/>
<path d="M263.053 186.006C262.582 186.885 262.763 189.923 262.976 192.169C263.112 193.598 263.26 194.698 263.26 194.698C263.26 194.698 255.811 197.009 254.683 195.006C254.396 194.498 254.255 193.607 254.205 192.563C254.051 189.482 254.683 185.042 254.683 185.042C254.683 185.042 254.375 178.214 254.221 177.546C254.159 177.278 254.064 176.427 253.971 175.506C253.835 174.138 253.706 172.616 253.706 172.616L263.876 167.224C263.876 167.224 263.876 168.235 263.857 169.791C263.802 174.677 263.639 184.928 263.053 186.006Z" fill="#FBBEBE"/>
<path opacity="0.1" d="M263.259 194.698C263.259 194.698 255.811 197.009 254.683 195.006C254.396 194.498 254.254 193.607 254.205 192.563C255.746 192.329 260.436 191.682 262.976 192.169C263.111 193.598 263.259 194.698 263.259 194.698Z" fill="black"/>
<path d="M263.516 233.519H263.398C262.502 233.553 257.404 233.519 257.404 233.519C257.33 233.441 257.26 233.359 257.195 233.273C256.744 232.709 256.447 232.039 256.331 231.326C256.215 230.614 256.284 229.884 256.532 229.206C257.457 226.689 257.559 222.067 257.559 222.067C257.559 222.067 257.919 220.887 257.611 220.219C257.303 219.55 257.506 218.524 257.506 218.524C257.459 218.118 257.355 217.721 257.198 217.344C256.942 216.728 257.25 215.597 257.25 215.597C257.215 214.501 257.042 213.414 256.736 212.362C256.273 211.028 252.883 195.16 253.706 193.259C253.706 193.259 260.896 192.027 263.62 192.951L263.26 205.275C263.26 205.275 261.975 208.973 263.053 209.949C264.132 210.926 263.106 213.955 263.106 213.955C263.106 213.955 262.952 214.519 263.876 216.42C264.801 218.321 263.876 219.193 263.876 219.193V222.837C263.876 222.837 263.158 225.302 263.978 227.305C264.798 229.308 263.876 233.455 263.516 233.519Z" fill="#3F3D56"/>
<path d="M277.626 186.007C277.155 186.885 277.337 189.923 277.549 192.169C277.685 193.598 277.833 194.698 277.833 194.698C277.833 194.698 270.384 197.009 269.256 195.006C268.97 194.498 268.828 193.608 268.779 192.563C268.624 189.482 269.256 185.042 269.256 185.042C269.256 185.042 268.948 178.215 268.794 177.546C268.711 177.185 268.566 173.747 268.452 170.663C268.356 168.032 268.279 165.653 268.279 165.653L278.449 167.224C278.449 167.224 278.449 171.695 278.323 176.289C278.212 180.744 278.005 185.31 277.626 186.007Z" fill="#FBBEBE"/>
<path opacity="0.1" d="M277.834 194.698C277.834 194.698 270.385 197.009 269.257 195.006C268.97 194.498 268.829 193.607 268.779 192.563C270.32 192.329 275.011 191.682 277.55 192.169C277.686 193.598 277.834 194.698 277.834 194.698Z" fill="black"/>
<path d="M278.089 233.519H277.972C277.075 233.553 271.978 233.519 271.978 233.519C271.904 233.441 271.834 233.359 271.769 233.273C271.318 232.709 271.021 232.039 270.904 231.326C270.788 230.614 270.858 229.884 271.106 229.206C272.031 226.676 272.123 222.055 272.123 222.055C272.123 222.055 272.484 220.875 272.175 220.206C271.867 219.538 272.071 218.512 272.071 218.512C272.023 218.106 271.92 217.709 271.762 217.332C271.507 216.715 271.815 215.585 271.815 215.585C271.78 214.489 271.607 213.402 271.3 212.35C270.838 211.015 267.448 195.148 268.271 193.247C268.271 193.247 275.461 192.015 278.185 192.939L277.824 205.263C277.824 205.263 276.539 208.96 277.618 209.937C278.696 210.914 277.67 213.942 277.67 213.942C277.67 213.942 277.516 214.506 278.441 216.407C279.365 218.308 278.441 219.18 278.441 219.18V222.825C278.441 222.825 277.723 225.29 278.542 227.293C279.362 229.295 278.45 233.455 278.089 233.519Z" fill="#3F3D56"/>
<path opacity="0.1" d="M268.036 103.915C272.036 103.915 275.278 100.673 275.278 96.6743C275.278 92.6755 272.036 89.4338 268.036 89.4338C264.036 89.4338 260.794 92.6755 260.794 96.6743C260.794 100.673 264.036 103.915 268.036 103.915Z" fill="black"/>
<path d="M268.036 103.607C272.036 103.607 275.278 100.365 275.278 96.3662C275.278 92.3674 272.036 89.1257 268.036 89.1257C264.036 89.1257 260.794 92.3674 260.794 96.3662C260.794 100.365 264.036 103.607 268.036 103.607Z" fill="#FBBEBE"/>
<path opacity="0.1" d="M253.706 172.616L263.876 167.224C263.876 167.224 263.876 168.235 263.857 169.791C262.372 170.678 260.132 172.012 257.977 173.272C256.806 173.96 255.663 174.625 254.683 175.183C254.455 175.306 254.217 175.409 253.971 175.491C253.835 174.138 253.706 172.616 253.706 172.616Z" fill="black"/>
<path opacity="0.1" d="M278.449 167.212C278.449 167.212 278.449 171.683 278.323 176.277H278.286C277.526 176.304 276.765 176.28 276.009 176.206C274.68 176.064 273.617 175.713 273.235 175.016C272.462 173.661 270.295 171.935 268.465 170.651C268.369 168.019 268.292 165.641 268.292 165.641L278.449 167.212Z" fill="black"/>
<path d="M276.558 128.055C276.3 130.06 276.25 132.087 276.41 134.103C281.082 137.954 280.209 146.067 280.209 146.067C280.209 146.067 283.806 162.501 283.035 163.989C282.265 165.477 284.78 174.619 284.78 174.619C282.636 175.025 280.466 175.274 278.286 175.365C277.527 175.392 276.766 175.368 276.009 175.294C274.681 175.152 273.618 174.801 273.235 174.104C271.799 171.59 265.583 167.841 265.583 167.841C265.583 167.841 261.645 170.201 257.978 172.348C256.807 173.035 255.663 173.701 254.683 174.258C253.888 174.68 253.009 174.921 252.11 174.964C247.749 175.287 241.94 172.558 242.865 171.59C243.996 170.407 249.595 149.662 249.595 149.662C249.595 149.662 252.418 136.824 254.884 135.027C255.316 134.701 255.638 134.251 255.808 133.736C256.652 131.392 255.241 127.633 255.241 127.633C255.241 127.633 247.281 117.826 247.638 117.259C247.996 116.692 247.999 113.666 247.999 113.666C247.999 113.666 248.976 108.891 249.54 106.58C250.104 104.269 254.162 103.702 255.343 103.909C256.523 104.115 259.192 104.833 260.32 103.909C261.448 102.984 263.352 104.269 263.352 104.269L268.03 105.557L272.237 103.092C272.237 103.092 276.453 103.308 276.813 103.872C277.174 104.436 282.721 105.517 282.721 105.517C285.544 107.415 285.442 116.455 285.442 116.455C285.442 116.455 278.662 122.358 277.276 125.39C276.916 126.241 276.675 127.138 276.558 128.055Z" fill="#575A89"/>
<path d="M283.907 115.204L285.448 116.436L287.042 130.763L288.632 145.142C288.632 145.142 289.248 146.581 289.763 146.427C290.277 146.273 290.225 154.949 290.225 154.949C290.225 154.949 284.327 151.323 282.212 156.139L280.567 144.526C280.567 144.526 278.459 132.664 278.511 131.74C278.564 130.815 277.433 120.802 277.433 120.802L283.907 115.204Z" fill="#575A89"/>
<path d="M248.775 115.872L247.644 117.259C247.644 117.259 247.749 123.214 246.874 124.653C245.998 126.092 249.29 134.513 250.522 133.998C251.755 133.484 254.529 120.34 254.529 120.186C254.529 120.032 248.775 115.872 248.775 115.872Z" fill="#575A89"/>
<path d="M248.674 124.345C248.674 124.345 245.078 127.99 245.333 129.737C245.589 131.484 249.031 136.971 253.962 134.023C253.962 134.023 258.536 125.424 248.674 124.345Z" fill="#575A89"/>
<path opacity="0.1" d="M263.398 233.529C262.501 233.563 257.404 233.529 257.404 233.529C257.329 233.451 257.259 233.368 257.194 233.282C258.498 232.839 261.315 232.173 263.398 233.529Z" fill="black"/>
<path opacity="0.1" d="M277.978 233.529C277.081 233.563 271.984 233.529 271.984 233.529C271.909 233.451 271.839 233.368 271.774 233.282C273.072 232.839 275.889 232.173 277.978 233.529Z" fill="black"/>
<path opacity="0.1" d="M258.341 143.214C257.555 150.75 257.814 165.705 257.977 172.348C256.806 173.035 255.663 173.701 254.683 174.258C253.887 174.68 253.009 174.921 252.11 174.964C251.783 172.955 256.307 152.321 258.341 143.214Z" fill="black"/>
<path opacity="0.1" d="M259.302 138.937C259.281 139.045 258.908 140.684 258.341 143.214C258.563 141.054 258.871 139.504 259.302 138.937Z" fill="black"/>
<path opacity="0.1" d="M271.814 138.124C271.814 138.124 276.181 165.545 263.25 168.934C263.247 168.922 272.196 167.563 271.814 138.124Z" fill="black"/>
<path opacity="0.1" d="M278.286 175.365C277.527 175.392 276.766 175.368 276.009 175.294L272.521 137.8C274.746 139.255 277.408 165.863 278.286 175.365Z" fill="black"/>
<path opacity="0.1" d="M262.644 92.1082C262.875 92.0898 263.108 92.1138 263.331 92.1791C263.658 92.342 263.952 92.5634 264.2 92.8323C264.602 93.1681 265.082 93.3965 265.596 93.4962C266.111 93.5958 266.642 93.5635 267.14 93.4023C267.491 93.2452 267.864 93.1414 268.246 93.0942C268.835 93.0942 269.343 93.5255 269.648 94.0185C269.954 94.5114 270.111 95.0968 270.373 95.6237C270.635 96.1506 271.054 96.6497 271.63 96.7791C271.906 96.7898 272.178 96.8526 272.431 96.964C272.586 97.09 272.706 97.2547 272.776 97.4415C273.257 98.4798 273.639 99.7061 274.666 100.214C275.043 100.389 275.455 100.479 275.871 100.476C276.294 100.507 276.718 100.431 277.103 100.255C277.483 100.043 277.796 99.7303 278.009 99.3518C278.65 98.2919 278.724 96.9794 278.573 95.75C278.385 94.1992 277.833 92.7148 276.962 91.4181C276.044 90.1065 274.794 89.0621 273.34 88.3914C271.886 87.7207 270.281 87.4478 268.687 87.6006C268.131 87.6632 267.58 87.7662 267.038 87.9087C265.078 88.4325 263.155 89.4123 261.966 91.0545C261.678 91.4644 261.362 91.8536 261.02 92.2191C261.559 92.1668 262.101 92.1205 262.644 92.1082Z" fill="black"/>
<path d="M262.644 91.8001C262.875 91.7817 263.108 91.8057 263.331 91.871C263.658 92.0339 263.952 92.2553 264.2 92.5242C264.602 92.8599 265.082 93.0884 265.596 93.188C266.111 93.2877 266.642 93.2554 267.14 93.0942C267.491 92.9371 267.864 92.8333 268.246 92.7861C268.835 92.7861 269.343 93.2174 269.648 93.7104C269.954 94.2033 270.111 94.7887 270.373 95.3156C270.635 95.8425 271.054 96.3416 271.63 96.471C271.906 96.4817 272.178 96.5444 272.431 96.6559C272.586 96.7819 272.706 96.9466 272.776 97.1334C273.257 98.1717 273.639 99.398 274.666 99.9064C275.043 100.081 275.455 100.171 275.871 100.168C276.294 100.199 276.718 100.123 277.103 99.9464C277.483 99.7346 277.796 99.4222 278.009 99.0437C278.65 97.9838 278.724 96.6713 278.573 95.4419C278.385 93.8911 277.833 92.4067 276.962 91.11C276.044 89.7984 274.794 88.754 273.34 88.0833C271.886 87.4126 270.281 87.1397 268.687 87.2925C268.131 87.3551 267.58 87.4581 267.038 87.6006C265.078 88.1244 263.155 89.1042 261.966 90.7464C261.678 91.1563 261.362 91.5455 261.02 91.911C261.559 91.8587 262.101 91.8124 262.644 91.8001Z" fill="#3F3D56"/>
<path opacity="0.1" d="M254.784 109.042C254.784 109.042 255.145 111.919 253.912 112.637C252.68 113.355 254.784 109.042 254.784 109.042Z" fill="black"/>
<path opacity="0.1" d="M280.928 131.33C280.928 131.33 283.855 127.017 284.268 128.249C284.68 129.481 280.928 131.33 280.928 131.33Z" fill="black"/>
<path opacity="0.1" d="M281.134 132.766C281.134 132.766 284.021 129.223 284.298 130.609C284.575 131.996 281.134 132.766 281.134 132.766Z" fill="black"/>
<path opacity="0.1" d="M272.653 128.548C271.606 128.563 270.584 128.226 269.75 127.593H269.497C268.632 128.382 267.497 128.809 266.326 128.785C265.717 128.799 265.112 128.69 264.547 128.463C263.981 128.236 263.468 127.897 263.038 127.466H262.702C261.815 128.189 260.7 128.574 259.556 128.553C258.412 128.532 257.312 128.107 256.452 127.352L255.247 127.331C255.247 127.331 256.659 131.09 255.814 133.434L276.41 133.801C276.25 131.785 276.3 129.758 276.557 127.753V127.725L275.426 127.704C274.613 128.268 273.643 128.563 272.653 128.548Z" fill="black"/>
<path opacity="0.1" d="M272.653 129.164C271.606 129.179 270.584 128.843 269.75 128.209H269.497C268.632 128.999 267.497 129.426 266.326 129.401C265.717 129.415 265.112 129.306 264.547 129.079C263.981 128.852 263.468 128.513 263.038 128.083H262.702C261.815 128.805 260.7 129.19 259.556 129.169C258.412 129.148 257.312 128.723 256.452 127.969L255.247 127.947C255.247 127.947 256.659 131.706 255.814 134.051L276.41 134.417C276.25 132.401 276.3 130.375 276.557 128.369V128.341L275.426 128.32C274.613 128.884 273.643 129.179 272.653 129.164Z" fill="black"/>
<path d="M272.653 128.856C271.606 128.871 270.584 128.534 269.75 127.901H269.497C268.632 128.691 267.497 129.118 266.326 129.093C265.717 129.107 265.112 128.998 264.547 128.771C263.981 128.544 263.468 128.205 263.038 127.774H262.702C261.815 128.497 260.7 128.882 259.556 128.861C258.412 128.84 257.312 128.415 256.452 127.66L255.247 127.639C255.247 127.639 256.659 131.398 255.814 133.742L276.41 134.109C276.25 132.093 276.3 130.067 276.557 128.061V128.033L275.426 128.012C274.613 128.576 273.643 128.871 272.653 128.856Z" fill="#3F3D56"/>
<path opacity="0.1" d="M271.737 108.311C271.737 108.311 276.072 108.589 276.1 109.205C276.128 109.821 271.737 108.311 271.737 108.311Z" fill="black"/>
<path opacity="0.1" d="M261.203 105.683C261.203 105.683 256.868 105.961 256.84 106.577C256.812 107.193 261.203 105.683 261.203 105.683Z" fill="black"/>
<path opacity="0.1" d="M277.775 118.282C277.732 118.251 277.689 118.226 277.645 118.199C278.755 119.197 278.57 121.378 277.208 123.178C275.846 124.977 273.778 125.726 272.521 124.918C272.561 124.952 272.594 124.989 272.638 125.023C273.87 125.966 276.028 125.226 277.451 123.366C278.875 121.505 279.014 119.228 277.775 118.282Z" fill="black"/>
<path opacity="0.1" d="M253.956 122.947C252.859 120.968 253 118.784 254.242 117.955C254.196 117.977 254.147 117.995 254.101 118.02C252.739 118.778 252.56 121.049 253.688 123.094C254.816 125.14 256.85 126.175 258.212 125.43C258.257 125.404 258.3 125.375 258.341 125.344C256.982 125.96 255.053 124.925 253.956 122.947Z" fill="black"/>
<path opacity="0.1" d="M255.422 106.266L255.024 106.882L254.011 106.343L254.544 105.523C254.896 105.69 255.199 105.946 255.422 106.266Z" fill="black"/>
<path d="M248.981 129.069C248.981 129.069 249.884 124.823 248.673 123.473C247.462 122.124 247.85 115.05 249.699 115.204C251.548 115.358 254.322 120.953 253.86 122.136C253.397 123.319 251.65 129.377 251.65 129.377L248.981 129.069Z" fill="#FBBEBE"/>
<path opacity="0.1" d="M277.978 98.4366C277.765 98.8152 277.451 99.1276 277.072 99.3394C276.686 99.516 276.262 99.5923 275.839 99.5612C275.423 99.5637 275.012 99.4742 274.634 99.2993C273.608 98.7879 273.226 97.5616 272.745 96.5264C272.684 96.3396 272.576 96.1719 272.431 96.0396C272.181 95.9261 271.913 95.8603 271.639 95.8455C271.063 95.7161 270.646 95.2138 270.381 94.6901C270.116 94.1663 269.959 93.587 269.657 93.0848C269.355 92.5826 268.844 92.142 268.255 92.1605C267.872 92.2113 267.499 92.3204 267.149 92.484C266.65 92.644 266.119 92.6754 265.605 92.5752C265.091 92.475 264.611 92.2465 264.209 91.911C263.961 91.6421 263.667 91.4207 263.34 91.2578C263.117 91.1925 262.884 91.1685 262.652 91.1869C262.298 91.1869 261.947 91.2208 261.592 91.2485C261.417 91.4787 261.228 91.6988 261.028 91.9079C261.568 91.8617 262.11 91.8154 262.652 91.8031C262.884 91.7847 263.117 91.8087 263.34 91.874C263.667 92.0369 263.961 92.2583 264.209 92.5272C264.611 92.8627 265.091 93.0912 265.605 93.1914C266.119 93.2916 266.65 93.2602 267.149 93.1002C267.499 92.9366 267.872 92.8275 268.255 92.7767C268.844 92.7767 269.352 93.2081 269.657 93.701C269.962 94.194 270.12 94.7794 270.381 95.3063C270.643 95.8331 271.063 96.3323 271.639 96.4617C271.913 96.4765 272.181 96.5423 272.431 96.6558C272.586 96.7818 272.705 96.9465 272.776 97.1333C273.257 98.1717 273.639 99.3979 274.665 99.9063C275.043 100.081 275.454 100.171 275.87 100.168C276.293 100.199 276.717 100.123 277.103 99.9463C277.482 99.7345 277.796 99.4221 278.009 99.0436C278.487 98.1727 278.701 97.1812 278.625 96.1905C278.602 96.9817 278.379 97.7542 277.978 98.4366Z" fill="black"/>
<path d="M250.347 132.436C251.879 132.436 253.12 131.595 253.12 130.557C253.12 129.519 251.879 128.677 250.347 128.677C248.815 128.677 247.573 129.519 247.573 130.557C247.573 131.595 248.815 132.436 250.347 132.436Z" fill="#575A89"/>
<path d="M159.941 235.174C212.448 235.174 255.013 192.618 255.013 140.123C255.013 87.6284 212.448 45.0728 159.941 45.0728C107.434 45.0728 64.8682 87.6284 64.8682 140.123C64.8682 192.618 107.434 235.174 159.941 235.174Z" fill="#246BFD"/>
<path d="M209.825 187.889C209.825 202.894 186.231 189.171 160.936 189.171C135.64 189.171 110.056 202.327 110.056 187.322C110.056 178.766 118.21 166.867 129.908 158.225C138.722 151.711 149.545 147.047 160.418 147.047C171.598 147.047 182.551 152.096 191.288 159.029C202.314 167.77 209.825 179.515 209.825 187.889Z" fill="#444053"/>
<path d="M191.285 159.022C177.839 156.998 153.521 154.53 129.908 158.218C138.722 151.705 149.545 147.04 160.418 147.04C171.595 147.04 182.548 152.09 191.285 159.022Z" fill="#F6F8FB"/>
<path opacity="0.05" d="M110.055 73.0272C110.055 73.0272 81.4166 91.3318 81.6508 119.964C81.8851 148.596 110.055 73.0272 110.055 73.0272Z" fill="black"/>
<path d="M254.976 21.3301C254.976 21.3301 229.028 19.768 232.088 37.9462C232.088 37.9462 231.471 41.1567 234.393 42.6171C234.393 42.6171 234.439 41.2707 237.052 41.7267C237.984 41.8825 238.93 41.928 239.872 41.8623C241.145 41.7757 242.355 41.2759 243.318 40.4388C243.318 40.4388 250.612 37.4286 253.451 25.508C253.451 25.508 255.549 22.9076 255.466 22.2421L251.087 24.1092C251.087 24.1092 252.581 27.2673 251.395 29.8924C251.395 29.8924 251.253 24.2263 250.412 24.3465C250.242 24.3742 248.138 25.4402 248.138 25.4402C248.138 25.4402 250.711 30.943 248.754 34.9391C248.754 34.9391 249.49 28.1608 247.318 25.8377L244.236 27.637C244.236 27.637 247.244 33.3185 245.204 37.9555C245.204 37.9555 245.728 30.8444 243.589 28.0745L240.794 30.2528C240.794 30.2528 243.62 35.8542 241.897 39.6994C241.897 39.6994 241.672 31.4206 240.19 30.7951C240.19 30.7951 237.746 32.9519 237.373 33.8361C237.373 33.8361 239.308 37.9 238.11 40.0444C238.11 40.0444 237.373 34.5294 236.769 34.4985C236.769 34.4985 234.334 38.1527 234.079 40.6607C234.079 40.6607 234.186 36.9326 236.177 34.1504C236.177 34.1504 233.823 34.554 232.451 36.0822C232.451 36.0822 232.83 33.4972 236.766 33.2723C236.766 33.2723 238.778 30.4993 239.318 30.333C239.318 30.333 235.388 30.0033 233.006 31.0601C233.006 31.0601 235.102 28.623 240.036 29.7291L242.809 27.4799C242.809 27.4799 237.638 26.7713 235.444 27.5538C235.444 27.5538 237.968 25.3971 243.552 26.9684L246.557 25.1722C246.557 25.1722 242.147 24.2232 239.518 24.556C239.518 24.556 242.291 23.0617 247.435 24.6823L249.592 23.7179C249.592 23.7179 246.359 23.0832 245.413 22.9846C244.467 22.886 244.418 22.6211 244.418 22.6211C246.471 22.2874 248.576 22.5317 250.498 23.3266C250.498 23.3266 255.053 21.6166 254.976 21.3301Z" fill="#246BFD"/>
<path d="M228.362 13.2486C228.362 13.2486 216.651 12.5399 218.019 20.754C218.019 20.754 217.745 22.2052 219.061 22.8645C219.061 22.8645 219.08 22.2483 220.263 22.464C220.683 22.5332 221.11 22.5539 221.536 22.5256C222.111 22.4846 222.658 22.2587 223.095 21.8817C223.095 21.8817 226.389 20.5199 227.671 15.1342C227.671 15.1342 228.621 13.9603 228.596 13.6583L226.618 14.5026C226.618 14.5026 227.296 15.9291 226.762 17.1153C226.762 17.1153 226.698 14.5549 226.319 14.6166C226.242 14.6166 225.289 15.1095 225.289 15.1095C225.289 15.1095 226.454 17.5959 225.576 19.4014C225.576 19.4014 225.909 16.3389 224.929 15.2882L223.536 16.1016C223.536 16.1016 224.895 18.6712 223.973 20.7663C223.973 20.7663 224.208 17.5528 223.243 16.3019L221.979 17.2847C221.979 17.2847 223.255 19.8143 222.479 21.552C222.479 21.552 222.377 17.8116 221.705 17.5281C221.705 17.5281 220.602 18.5018 220.432 18.9023C220.432 18.9023 221.308 20.7509 220.765 21.7091C220.765 21.7091 220.432 19.2166 220.149 19.2073C220.149 19.2073 219.049 20.8557 218.935 21.9803C218.988 20.9337 219.314 19.9193 219.881 19.0379C219.247 19.1578 218.662 19.461 218.198 19.9098C218.198 19.9098 218.368 18.7421 220.152 18.6404C220.152 18.6404 221.061 17.3895 221.305 17.3125C221.305 17.3125 219.529 17.1646 218.454 17.6421C218.454 17.6421 219.4 16.5391 221.631 17.0259L222.864 16.0123C222.864 16.0123 220.528 15.7042 219.536 16.0431C219.536 16.0431 220.676 15.0695 223.2 15.7812L224.556 14.9678C224.556 14.9678 222.565 14.5395 221.375 14.6936C221.375 14.6936 222.63 14.0188 224.953 14.7521L225.924 14.3146C225.924 14.3146 224.463 14.0281 224.038 13.9849C223.613 13.9418 223.585 13.8216 223.585 13.8216C224.51 13.6678 225.46 13.7745 226.328 14.1297C226.328 14.1297 228.396 13.378 228.362 13.2486Z" fill="#246BFD"/>
<path opacity="0.1" d="M330.701 224.92C335.284 224.92 339 224.293 339 223.518C339 222.744 335.284 222.116 330.701 222.116C326.117 222.116 322.401 222.744 322.401 223.518C322.401 224.293 326.117 224.92 330.701 224.92Z" fill="#246BFD"/>
<path opacity="0.1" d="M14.4134 248.241C18.997 248.241 22.7126 247.613 22.7126 246.839C22.7126 246.065 18.997 245.437 14.4134 245.437C9.82993 245.437 6.11426 246.065 6.11426 246.839C6.11426 247.613 9.82993 248.241 14.4134 248.241Z" fill="#246BFD"/>
<path opacity="0.1" d="M62.5902 250C67.1737 250 70.8894 249.372 70.8894 248.598C70.8894 247.824 67.1737 247.196 62.5902 247.196C58.0067 247.196 54.291 247.824 54.291 248.598C54.291 249.372 58.0067 250 62.5902 250Z" fill="#246BFD"/>
<path d="M312.537 240.637C319.381 240.637 324.929 239.699 324.929 238.542C324.929 237.384 319.381 236.446 312.537 236.446C305.693 236.446 300.146 237.384 300.146 238.542C300.146 239.699 305.693 240.637 312.537 240.637Z" fill="#246BFD"/>
<path d="M317.659 235.119C318.224 234.657 318.637 234.035 318.842 233.335C318.993 232.629 318.691 231.779 318.016 231.52C317.258 231.23 316.447 231.757 315.834 232.287C315.221 232.817 314.515 233.421 313.711 233.31C314.124 232.936 314.434 232.46 314.609 231.93C314.784 231.401 314.818 230.835 314.709 230.287C314.674 230.061 314.578 229.848 314.432 229.671C314.01 229.221 313.249 229.412 312.743 229.767C311.141 230.894 310.694 233.07 310.684 235.029C310.524 234.324 310.66 233.587 310.657 232.872C310.654 232.158 310.453 231.332 309.843 230.953C309.465 230.751 309.04 230.651 308.61 230.663C307.889 230.636 307.088 230.706 306.595 231.233C305.979 231.89 306.142 232.986 306.675 233.698C307.208 234.41 308.016 234.872 308.758 235.368C309.356 235.723 309.866 236.209 310.25 236.789C310.295 236.87 310.332 236.956 310.361 237.044H314.876C315.886 236.531 316.822 235.883 317.659 235.119Z" fill="#246BFD"/>
<path d="M18.2868 209.284C18.2868 209.284 19.9787 211.496 17.5041 214.83C15.0294 218.163 12.9893 220.992 13.8059 223.075C13.8059 223.075 17.538 216.869 20.5858 216.78C23.6337 216.691 21.6275 213.015 18.2868 209.284Z" fill="#246BFD"/>
<path opacity="0.1" d="M18.2867 209.284C18.4337 209.498 18.5498 209.731 18.6319 209.977C21.5966 213.459 23.1744 216.709 20.3269 216.789C17.6704 216.866 14.4715 221.611 13.7227 222.81C13.7488 222.903 13.7797 222.994 13.8151 223.084C13.8151 223.084 17.5471 216.879 20.595 216.789C23.6428 216.7 21.6274 213.015 18.2867 209.284Z" fill="black"/>
<path d="M21.4333 212.103C21.4333 212.883 21.3439 213.514 21.2361 213.514C21.1283 213.514 21.042 212.898 21.042 212.103C21.042 211.308 21.1498 211.69 21.2607 211.69C21.3717 211.69 21.4333 211.324 21.4333 212.103Z" fill="#FFD037"/>
<path d="M22.4997 213.034C21.8157 213.406 21.2211 213.631 21.1687 213.536C21.1163 213.44 21.6309 213.064 22.3149 212.692C22.9989 212.319 22.7277 212.59 22.7801 212.692C22.8325 212.793 23.196 212.661 22.4997 213.034Z" fill="#FFD037"/>
<path d="M9.34419 209.284C9.34419 209.284 7.6523 211.496 10.1239 214.83C12.5955 218.163 14.6387 220.992 13.822 223.075C13.822 223.075 10.0869 216.869 7.04212 216.78C3.99733 216.691 6.00048 213.015 9.34419 209.284Z" fill="#246BFD"/>
<path opacity="0.1" d="M9.34378 209.284C9.1955 209.497 9.07922 209.73 8.99862 209.977C6.03396 213.459 4.45302 216.709 7.30365 216.789C9.95705 216.866 13.159 221.611 13.9048 222.81C13.8796 222.903 13.8498 222.994 13.8154 223.084C13.8154 223.084 10.0803 216.879 7.03554 216.789C3.99076 216.7 6.00006 213.015 9.34378 209.284Z" fill="black"/>
<path d="M6.19727 212.103C6.19727 212.883 6.28354 213.514 6.39137 213.514C6.49921 213.514 6.58548 212.898 6.58548 212.103C6.58548 211.308 6.47764 211.69 6.36981 211.69C6.26197 211.69 6.19727 211.324 6.19727 212.103Z" fill="#FFD037"/>
<path d="M5.1156 213.034C5.79959 213.406 6.39732 213.631 6.4497 213.536C6.50207 213.44 5.98754 213.064 5.30354 212.692C4.61955 212.319 4.8876 212.59 4.8383 212.692C4.78901 212.793 4.4316 212.661 5.1156 213.034Z" fill="#FFD037"/>
<path d="M6.73633 222.794C6.73633 222.794 11.4699 222.65 12.8999 221.633C14.3298 220.616 20.1821 219.405 20.5365 221.017C20.8909 222.628 27.6492 229.12 22.3054 229.163C16.9616 229.206 9.88897 228.328 8.4652 227.462C7.04142 226.596 6.73633 222.794 6.73633 222.794Z" fill="#A8A8A8"/>
<path opacity="0.2" d="M22.3948 228.611C17.051 228.654 9.97834 227.776 8.55457 226.911C7.46979 226.251 7.03834 223.882 6.8935 222.788H6.73633C6.73633 222.788 7.04451 226.606 8.45903 227.471C9.87356 228.337 16.9555 229.215 22.2992 229.172C23.8401 229.172 24.3733 228.608 24.3455 227.798C24.1298 228.294 23.5443 228.602 22.3948 228.611Z" fill="black"/>
<path d="M126.139 127.66C127.948 127.559 136.463 126.918 141.872 123.834C142.74 123.323 143.721 123.034 144.728 122.993C146.448 122.943 148.426 123.661 147.16 127.679C145.107 134.251 133.19 141.645 125.794 141.236C118.681 140.841 110.243 137.976 104.672 127.901C104.138 126.932 103.875 125.836 103.91 124.73C103.975 122.697 104.715 120.149 108.533 122.99C113.692 126.826 123.48 127.553 125.443 127.66C125.675 127.673 125.907 127.673 126.139 127.66Z" fill="#444053"/>
<path d="M194.555 127.66C196.364 127.559 204.879 126.918 210.288 123.834C211.156 123.323 212.137 123.034 213.144 122.993C214.864 122.943 216.842 123.661 215.576 127.679C213.523 134.251 201.606 141.645 194.21 141.236C187.097 140.841 178.659 137.976 173.088 127.901C172.554 126.932 172.291 125.836 172.326 124.73C172.391 122.697 173.131 120.149 176.949 122.99C182.108 126.826 191.896 127.553 193.859 127.66C194.091 127.673 194.323 127.673 194.555 127.66Z" fill="#444053"/>
</g>
<defs>
<linearGradient id="paint0_linear_1331_24408" x1="274.936" y1="233.541" x2="274.936" y2="81.3245" gradientUnits="userSpaceOnUse">
<stop stop-color="#808080" stop-opacity="0.25"/>
<stop offset="0.54" stop-color="#808080" stop-opacity="0.12"/>
<stop offset="1" stop-color="#808080" stop-opacity="0.1"/>
</linearGradient>
<clipPath id="clip0_1331_24408">
<rect width="339" height="250" fill="white"/>
</clipPath>
</defs>
</svg>
