<svg width="329" height="250" viewBox="0 0 329 250" fill="none" xmlns="http://www.w3.org/2000/svg">
<g clip-path="url(#clip0_1329_23253)">
<path d="M131.65 51.8442H130.449V19.0059C130.449 16.51 129.957 14.0386 129.001 11.7327C128.044 9.42678 126.643 7.33158 124.876 5.56672C123.109 3.80185 121.011 2.40189 118.702 1.44675C116.393 0.491608 113.919 2.11472e-06 111.42 0H41.7602C36.7132 -9.60927e-06 31.8729 2.00238 28.3042 5.56668C24.7354 9.13097 22.7305 13.9652 22.7305 19.0059V199.159C22.7305 201.655 23.2227 204.127 24.179 206.433C25.1353 208.739 26.5371 210.834 28.3041 212.599C30.0712 214.364 32.169 215.764 34.4778 216.719C36.7866 217.674 39.2611 218.165 41.7601 218.165H111.42C116.467 218.165 121.307 216.163 124.876 212.599C128.444 209.034 130.449 204.2 130.449 199.16V75.2191H131.65V51.8442Z" fill="#3F3D56"/>
<path d="M153.977 218.197H0.40308C0.296176 218.197 0.193651 218.154 0.118059 218.079C0.0424669 218.003 0 217.901 0 217.794C0 217.687 0.0424669 217.585 0.118059 217.509C0.193651 217.434 0.296176 217.391 0.40308 217.391H153.977C154.083 217.391 154.186 217.434 154.262 217.509C154.337 217.585 154.38 217.687 154.38 217.794C154.38 217.901 154.337 218.003 154.262 218.079C154.186 218.154 154.083 218.197 153.977 218.197Z" fill="#CBCBCB"/>
<path d="M279.836 221.538C280.25 220.869 280.738 220.249 281.29 219.688C281.517 219.452 281.757 219.23 282.005 219.014C283.51 217.676 285.344 216.763 287.32 216.368C289.296 215.973 291.341 216.11 293.246 216.767C295.15 217.423 296.846 218.574 298.157 220.102C299.469 221.629 300.349 223.478 300.708 225.458C302.371 219.318 298.043 213.27 293.692 208.624C289.339 203.98 284.364 198.885 284.389 192.522C284.401 188.981 286.135 185.822 288.754 183.48C288.835 183.409 288.915 183.338 288.998 183.27C292.163 180.56 296.235 179.143 300.4 179.301C308.139 179.715 314.896 184.91 319.589 191.071C327.142 200.986 330.452 214.902 325.164 226.188C320.513 236.115 310.593 242.009 300.469 246.748C299.055 247.409 297.645 248.051 296.236 248.673C296.227 248.676 296.217 248.682 296.208 248.685C296.14 248.714 296.072 248.744 296.009 248.775C295.718 248.903 295.427 249.031 295.139 249.157L295.273 249.245L295.689 249.514C295.545 249.427 295.402 249.342 295.258 249.255C295.215 249.228 295.169 249.203 295.126 249.177C290.154 246.197 285.113 243.045 281.677 238.393C278.115 233.563 276.682 226.644 279.836 221.538Z" fill="#F1F1F1"/>
<path d="M313.011 210.321C314.112 212.822 314.842 215.471 315.178 218.183C315.442 220.601 315.343 223.045 314.883 225.434C313.896 230.343 311.743 234.944 308.604 238.849C306.237 241.814 303.503 244.468 300.469 246.748C299.056 247.409 297.645 248.051 296.237 248.673C296.228 248.676 296.218 248.682 296.208 248.685C296.14 248.715 296.073 248.744 296.009 248.775C295.718 248.903 295.428 249.031 295.14 249.158L295.273 249.245L295.689 249.514C295.545 249.427 295.402 249.342 295.258 249.255C295.215 249.228 295.17 249.203 295.127 249.177C296.221 245.354 296.382 241.325 295.596 237.427C294.81 233.529 293.1 229.877 290.609 226.775C288.105 223.712 284.912 221.284 281.29 219.688C281.518 219.452 281.758 219.23 282.005 219.014C283.4 219.654 284.736 220.416 285.997 221.291C290.506 224.403 293.893 228.884 295.654 234.068C297.227 238.772 297.423 243.826 296.22 248.637C296.47 248.474 296.72 248.307 296.964 248.14C301.596 245.02 305.865 241.273 309.081 236.679C311.855 232.795 313.629 228.29 314.249 223.561C314.865 218.394 313.571 213.314 311.262 208.704C308.711 203.772 305.498 199.211 301.71 195.149C297.906 190.974 293.604 187.281 288.902 184.15C288.796 184.078 288.721 183.969 288.694 183.844C288.667 183.72 288.688 183.589 288.754 183.48C288.805 183.38 288.892 183.305 288.998 183.27C289.052 183.256 289.108 183.254 289.163 183.265C289.217 183.276 289.268 183.3 289.312 183.333C289.893 183.72 290.469 184.11 291.037 184.512C295.773 187.861 300.074 191.785 303.841 196.193C307.481 200.443 310.794 205.164 313.011 210.321Z" fill="white"/>
<path d="M175.023 250H328.597C328.704 250 328.806 249.958 328.882 249.882C328.957 249.807 329 249.704 329 249.597C329 249.491 328.957 249.388 328.882 249.313C328.806 249.237 328.704 249.195 328.597 249.195H175.023C174.916 249.195 174.814 249.237 174.738 249.313C174.663 249.388 174.62 249.491 174.62 249.597C174.62 249.704 174.663 249.807 174.738 249.882C174.814 249.958 174.916 250 175.023 250Z" fill="#CBCBCB"/>
<path d="M211.959 217.879L204.513 217.762L205.408 243.111H211.958L211.959 217.879Z" fill="#FFB7B7"/>
<path d="M213.629 240.975L200.73 240.974H200.729C198.549 240.975 196.458 241.84 194.917 243.379C193.375 244.919 192.509 247.007 192.509 249.184V249.451L213.628 249.452L213.629 240.975Z" fill="#2F2E41"/>
<path d="M261.262 211.156L253.128 216.372L269.399 235.923L274.911 232.388L261.262 211.156Z" fill="#FFB7B7"/>
<path d="M275.161 229.69L264.307 236.65L264.306 236.65C262.472 237.826 261.18 239.683 260.716 241.81C260.252 243.937 260.652 246.162 261.83 247.994L261.975 248.219L279.747 236.823L275.161 229.69Z" fill="#2F2E41"/>
<path d="M195.646 150.452C194.253 150.839 192.766 150.701 191.468 150.066C190.169 149.431 189.149 148.342 188.601 147.006C188.052 145.67 188.013 144.18 188.492 142.817C188.97 141.454 189.933 140.314 191.196 139.613L203.732 125.408L214.335 127.696L199.422 142.285C199.789 143.06 199.981 143.907 199.984 144.765C199.988 145.622 199.803 146.47 199.443 147.249C199.083 148.028 198.557 148.718 197.901 149.271C197.245 149.825 196.475 150.228 195.646 150.452H195.646Z" fill="#FFB7B7"/>
<path d="M172.535 124.481C174.969 124.481 176.943 122.51 176.943 120.079C176.943 117.648 174.969 115.677 172.535 115.677C170.101 115.677 168.128 117.648 168.128 120.079C168.128 122.51 170.101 124.481 172.535 124.481Z" fill="#F1F1F1"/>
<path d="M301.521 112.404C303.955 112.404 305.928 110.433 305.928 108.002C305.928 105.571 303.955 103.6 301.521 103.6C299.087 103.6 297.113 105.571 297.113 108.002C297.113 110.433 299.087 112.404 301.521 112.404Z" fill="#F1F1F1"/>
<path d="M112.188 4.9447H103.095C103.513 5.96861 103.672 7.07951 103.559 8.17954C103.446 9.27957 103.064 10.335 102.447 11.2528C101.829 12.1706 100.995 12.9226 100.018 13.4426C99.0409 13.9626 97.9507 14.2346 96.8435 14.2347H56.9365C55.8293 14.2346 54.7392 13.9626 53.762 13.4426C52.7849 12.9226 51.9508 12.1706 51.3332 11.2528C50.7157 10.335 50.3335 9.27958 50.2206 8.17955C50.1076 7.07951 50.2672 5.96861 50.6854 4.9447H42.1926C40.3264 4.9447 38.4784 5.31183 36.7542 6.02511C35.0301 6.73839 33.4634 7.78387 32.1438 9.10185C30.8242 10.4198 29.7774 11.9845 29.0632 13.7065C28.349 15.4285 27.9814 17.2742 27.9814 19.1381V199.027C27.9814 200.891 28.349 202.737 29.0632 204.459C29.7774 206.181 30.8242 207.746 32.1438 209.064C33.4634 210.382 35.0301 211.427 36.7542 212.14C38.4784 212.854 40.3264 213.221 42.1926 213.221H112.188C114.054 213.221 115.902 212.854 117.626 212.14C119.35 211.427 120.917 210.382 122.236 209.064C123.556 207.746 124.603 206.181 125.317 204.459C126.031 202.737 126.399 200.891 126.399 199.027V19.1381C126.399 17.2742 126.031 15.4285 125.317 13.7065C124.603 11.9845 123.556 10.4198 122.236 9.10185C120.917 7.78387 119.35 6.73839 117.626 6.02511C115.902 5.31183 114.054 4.9447 112.188 4.9447Z" fill="white"/>
<path d="M77.1899 139.163C95.9889 139.163 111.229 123.942 111.229 105.166C111.229 86.391 95.9889 71.1704 77.1899 71.1704C58.391 71.1704 43.1514 86.391 43.1514 105.166C43.1514 123.942 58.391 139.163 77.1899 139.163Z" fill="#246BFD"/>
<path d="M73.8171 118.135C73.0513 118.136 72.3059 117.889 71.6932 117.43L71.6552 117.402L63.6557 111.29C63.2852 111.006 62.9743 110.652 62.7407 110.249C62.5071 109.845 62.3554 109.399 62.2943 108.937C62.2332 108.475 62.2638 108.005 62.3844 107.555C62.505 107.104 62.7133 106.682 62.9974 106.312C63.2814 105.942 63.6356 105.631 64.0398 105.398C64.444 105.165 64.8903 105.013 65.3531 104.952C65.8159 104.891 66.2862 104.922 66.7372 105.042C67.1882 105.163 67.611 105.371 67.9815 105.654L73.1629 109.623L85.407 93.6691C85.6909 93.2993 86.045 92.9889 86.449 92.7557C86.853 92.5224 87.2991 92.371 87.7617 92.31C88.2243 92.2489 88.6945 92.2795 89.1453 92.4C89.5961 92.5204 90.0187 92.7283 90.389 93.0119L90.3901 93.0127L90.3141 93.1181L90.3921 93.0127C91.1393 93.5862 91.6281 94.4323 91.7513 95.3653C91.8745 96.2984 91.6221 97.2421 91.0494 97.9895L76.6478 116.746C76.3146 117.178 75.8862 117.528 75.3958 117.768C74.9055 118.008 74.3663 118.132 73.8202 118.131L73.8171 118.135Z" fill="white"/>
<path d="M236.889 99.5995L205.644 138.77L196.12 134.403L232.845 77.2996L236.889 99.5995Z" fill="#3F3D56"/>
<path d="M311.649 38.903C311.851 37.4731 311.52 36.019 310.72 34.8162C309.92 33.6135 308.706 32.7456 307.308 32.3771C305.91 32.0086 304.425 32.165 303.135 32.8168C301.845 33.4686 300.839 34.5704 300.308 35.9134L287.846 50.1825L291.502 60.3825L304.035 43.7096C304.853 43.9713 305.718 44.0507 306.57 43.9422C307.422 43.8337 308.24 43.5399 308.966 43.0817C309.692 42.6234 310.308 42.0118 310.772 41.2898C311.235 40.5678 311.535 39.7531 311.649 38.903Z" fill="#FFB7B7"/>
<path d="M259.991 94.4239L301.359 50.3301L295.779 41.4702L243.894 85.2963L259.991 94.4239Z" fill="#3F3D56"/>
<path d="M250.759 67.6328C258.773 67.6328 265.27 61.1442 265.27 53.1401C265.27 45.136 258.773 38.6473 250.759 38.6473C242.745 38.6473 236.248 45.136 236.248 53.1401C236.248 61.1442 242.745 67.6328 250.759 67.6328Z" fill="#2F2E41"/>
<path d="M251.926 44.953C255.048 41.7906 258.827 39.3502 262.996 37.8036C265.672 36.8135 268.584 36.2018 271.382 36.7641C274.179 37.3263 276.825 39.2593 277.605 42.0007C278.244 44.2424 277.585 46.656 276.594 48.7662C275.604 50.8764 274.281 52.8332 273.481 55.0222C272.663 57.2557 272.418 59.6577 272.766 62.0101C273.114 64.3625 274.044 66.5909 275.473 68.493C276.902 70.395 278.784 71.9105 280.949 72.9018C283.113 73.8931 285.491 74.3289 287.866 74.1696C285.117 74.5377 282.584 75.8279 279.897 76.5146C277.21 77.2013 274.039 77.1547 272.042 75.2323C269.93 73.1983 269.888 69.8912 269.99 66.9624C270.142 62.6085 270.293 58.2547 270.445 53.9008C270.523 51.6804 270.589 49.3889 269.787 47.3164C268.985 45.244 267.08 43.4293 264.855 43.4482C263.17 43.4624 261.677 44.4825 260.325 45.4884C258.973 46.4944 257.542 47.5676 255.863 47.7172C254.184 47.8669 252.266 46.6257 252.392 44.9465L251.926 44.953Z" fill="#2F2E41"/>
<path d="M264.16 133.752C264.16 133.752 246.086 73.7974 240.278 72.9872C234.469 72.177 225.111 88.3709 225.111 88.3709C212.977 103.833 200.465 153.919 200.465 153.919C200.465 153.919 221.323 155.222 236.57 163.324C251.817 171.426 269.811 162.914 269.811 162.914L264.16 133.752Z" fill="#3F3D56"/>
<path opacity="0.1" d="M264.16 133.752C264.16 133.752 246.086 73.7973 240.278 72.9871C234.469 72.1769 227.488 88.5351 227.488 88.5351C221.442 113.495 200.465 153.919 200.465 153.919C200.465 153.919 221.323 155.222 236.57 163.324C251.817 171.426 269.811 162.914 269.811 162.914L264.16 133.752Z" fill="black"/>
<path d="M249.332 115.814V145.941L252.882 189.582L270.617 222.593L262.153 228.632L237.968 197.231L228.402 166.051L213.38 235.073L202.094 234.268L209.932 138.571L224.806 111.634L249.332 115.814Z" fill="#2F2E41"/>
<path d="M231.109 86.6745C225.466 92.3106 230.706 98.3493 230.706 98.3493L224.257 112.842L249.651 119.686L258.525 80.081L252.479 73.6398C240.387 73.2372 240.38 72.9869 240.38 72.9869C238.261 75.0577 231.109 86.6745 231.109 86.6745Z" fill="#246BFD"/>
<path d="M259.548 75.9781C258.395 75.1278 257.084 74.5145 255.691 74.1738C254.299 73.833 252.853 73.7716 251.437 73.993C250.02 74.2144 248.662 74.7143 247.441 75.4636C246.219 76.213 245.159 77.197 244.321 78.3586C237.937 87.2363 232.034 101.572 240.167 119.45C253.226 148.158 264.591 162.854 269.211 162.852C269.413 162.854 269.613 162.822 269.805 162.759C272.649 161.796 276.76 156.989 277.505 152.754C277.771 151.238 277.708 149.127 275.892 147.677C270.678 143.511 261.318 130.542 258.398 113.472C256.784 104.04 259.914 95.448 262.823 89.9014C264.052 87.6063 264.411 84.9458 263.836 82.4076C263.26 79.8693 261.787 77.6233 259.688 76.0813L259.548 75.9781Z" fill="#3F3D56"/>
<path d="M251.506 66.2091C256.682 63.383 258.584 56.9009 255.755 51.731C252.925 46.5611 246.435 44.6611 241.258 47.4872C236.082 50.3133 234.18 56.7954 237.009 61.9653C239.839 67.1353 246.329 69.0353 251.506 66.2091Z" fill="#FFB7B7"/>
<path d="M231.359 56.0415H246.783L246.942 53.8299L247.732 56.0415H250.107L250.421 51.6581L251.988 56.0415H256.584V55.8244C256.58 52.7727 255.365 49.8469 253.204 47.689C251.044 45.5311 248.114 44.3173 245.059 44.3138H242.884C239.829 44.3173 236.899 45.5311 234.739 47.689C232.578 49.8469 231.363 52.7726 231.359 55.8244V56.0415Z" fill="#2F2E41"/>
<path d="M254.254 63.9912L260.836 61.8581V45.8937H248.403L248.711 46.2006C252.994 50.4723 257.757 65.6278 254.254 63.9912Z" fill="#2F2E41"/>
<path d="M211.634 15.7852C215.627 15.7852 218.863 12.5528 218.863 8.56541C218.863 4.57801 215.627 1.34558 211.634 1.34558C207.642 1.34558 204.405 4.57801 204.405 8.56541C204.405 12.5528 207.642 15.7852 211.634 15.7852Z" fill="#F1F1F1"/>
</g>
<defs>
<clipPath id="clip0_1329_23253">
<rect width="329" height="250" fill="white"/>
</clipPath>
</defs>
</svg>
