<svg width="20" height="20" viewBox="0 0 20 20" fill="none" xmlns="http://www.w3.org/2000/svg">
<path fill-rule="evenodd" clip-rule="evenodd" d="M13.0967 14.145H7.08008C6.73508 14.145 6.45508 13.865 6.45508 13.52C6.45508 13.175 6.73508 12.895 7.08008 12.895H13.0967C13.4417 12.895 13.7217 13.175 13.7217 13.52C13.7217 13.865 13.4417 14.145 13.0967 14.145Z" fill="#9E9E9E"/>
<path fill-rule="evenodd" clip-rule="evenodd" d="M13.0967 10.6562H7.08008C6.73508 10.6562 6.45508 10.3762 6.45508 10.0312C6.45508 9.68625 6.73508 9.40625 7.08008 9.40625H13.0967C13.4417 9.40625 13.7217 9.68625 13.7217 10.0312C13.7217 10.3762 13.4417 10.6562 13.0967 10.6562Z" fill="#9E9E9E"/>
<path fill-rule="evenodd" clip-rule="evenodd" d="M9.37494 7.17529H7.0791C6.7341 7.17529 6.4541 6.89529 6.4541 6.55029C6.4541 6.20529 6.7341 5.92529 7.0791 5.92529H9.37494C9.71994 5.92529 9.99994 6.20529 9.99994 6.55029C9.99994 6.89529 9.71994 7.17529 9.37494 7.17529Z" fill="#9E9E9E"/>
<mask id="mask0_1340_26337" style="mask-type:luminance" maskUnits="userSpaceOnUse" x="2" y="1" width="16" height="18">
<path fill-rule="evenodd" clip-rule="evenodd" d="M2.5 1.66699H17.6372V18.2585H2.5V1.66699Z" fill="white"/>
</mask>
<g mask="url(#mask0_1340_26337)">
<path fill-rule="evenodd" clip-rule="evenodd" d="M13.2575 2.91699L6.85 2.92033C4.91 2.93199 3.75 4.13199 3.75 6.13116V13.7945C3.75 15.807 4.92083 17.0087 6.88 17.0087L13.2875 17.0062C15.2275 16.9945 16.3875 15.7928 16.3875 13.7945V6.13116C16.3875 4.11866 15.2175 2.91699 13.2575 2.91699ZM6.88083 18.2587C4.26083 18.2587 2.5 16.4645 2.5 13.7945V6.13116C2.5 3.43699 4.20583 1.68616 6.84583 1.67033L13.2567 1.66699H13.2575C15.8775 1.66699 17.6375 3.46116 17.6375 6.13116V13.7945C17.6375 16.4878 15.9317 18.2395 13.2917 18.2562L6.88083 18.2587Z" fill="#9E9E9E"/>
</g>
</svg>
