<svg width="45" height="34" viewBox="0 0 45 34" fill="none" xmlns="http://www.w3.org/2000/svg">
<path d="M11.3408 0C8.92608 0 6.40077 1.56045 4.16135 4.46694C1.92192 7.37343 0.189602 11.7536 0.279792 17.5495C0.279792 20.3165 1.16297 23.3863 2.83233 25.9508C3.07737 26.3286 3.50109 26.5549 3.78868 26.9088C2.61791 28.3229 0.598008 31.0031 0.598008 31.0031C0.416784 31.1575 0.269982 31.3483 0.167093 31.563C0.0642036 31.7777 0.00751719 32.0116 0.000698116 32.2496C-0.00612095 32.4876 0.0370791 32.7244 0.127506 32.9446C0.217932 33.1649 0.353572 33.3637 0.525657 33.5283C0.697742 33.6928 0.902442 33.8194 1.12652 33.8999C1.3506 33.9804 1.58908 34.0129 1.82653 33.9954C2.06398 33.978 2.29513 33.9109 2.50502 33.7985C2.71491 33.6861 2.89888 33.5309 3.04504 33.3429C3.04504 33.3429 5.09217 30.6032 6.18126 29.3014C7.4371 30.0995 8.87333 30.6304 10.4899 30.6304C13.3964 30.6304 16.1259 29.2402 18.4658 27.3326C18.7976 27.0637 18.9984 26.6672 19.3166 26.3762C20.0671 26.902 20.9502 27.2271 21.9219 27.2271C23.5538 27.2271 24.939 26.4494 26.1251 25.5254C27.3094 24.6013 28.3254 23.4884 29.2613 22.3874C29.8892 21.6489 30.3487 21.0363 30.8575 20.4203C30.7945 21.2218 30.7435 22.0114 30.7503 22.7601C30.7537 23.1515 30.7707 23.5038 30.9102 23.9836C30.9783 24.2219 31.0396 24.552 31.3356 24.8872C31.6317 25.2225 32.2341 25.5254 32.7702 25.5254C34.1605 25.5254 35.1951 24.746 35.9608 23.9836C36.7266 23.2196 37.3409 22.3415 38.0369 21.5366C39.4221 19.9285 40.7562 18.7186 42.6621 18.7186C43.1134 18.7186 43.5462 18.5393 43.8654 18.2202C44.1845 17.9011 44.3638 17.4682 44.3638 17.0169C44.3638 16.5656 44.1845 16.1328 43.8654 15.8136C43.5462 15.4945 43.1134 15.3152 42.6621 15.3152C39.2928 15.3152 37.0295 17.5104 35.4827 19.304C35.0028 19.8604 34.642 20.2399 34.2609 20.6858C34.2643 20.6245 34.2557 20.5888 34.2609 20.5258C34.3255 19.6613 34.431 18.819 34.3664 17.9733C34.3492 17.4964 34.2405 17.0273 34.0464 16.5915C33.8082 16.0708 33.0118 15.3152 32.132 15.3152C31.2114 15.3152 30.6924 15.7202 30.2721 16.0606C29.8518 16.4009 29.4842 16.7957 29.1013 17.2296C28.3356 18.0975 27.5273 19.1287 26.656 20.1548C25.783 21.1809 24.859 22.1952 23.9963 22.8673C23.1352 23.5378 22.4188 23.8237 21.9219 23.8237C21.8096 23.8237 21.7517 23.6314 21.6564 23.611C22.5532 22.5338 23.6559 21.6081 24.3689 20.473C25.9226 17.9954 27.0031 15.5432 27.3469 13.4008C27.5188 12.3287 27.58 11.2873 27.0814 10.2629C26.5811 9.24018 25.2776 8.50845 24.1035 8.50845C21.8147 8.50845 19.8901 9.98893 18.573 11.9646C17.2542 13.942 16.4459 16.5353 16.4459 19.4095C16.4459 20.9019 16.9138 22.156 17.4022 23.3982C16.9972 23.7896 16.7045 24.3342 16.2859 24.6745C14.3187 26.2775 12.2614 27.2271 10.4899 27.2271C9.71907 27.2271 9.03159 26.8901 8.36282 26.5362C9.15751 25.4777 9.21877 25.6173 10.0645 24.3546C13.5496 19.1491 17.1367 12.4955 17.1367 6.11758C17.1367 5.36033 17.0857 3.99047 16.2859 2.60699C15.4861 1.22181 13.7027 0 11.3408 0ZM11.3408 3.40338C12.7226 3.40338 13.0016 3.77775 13.3079 4.30698C13.6142 4.83791 13.7334 5.68195 13.7334 6.11588C13.7334 11.1393 10.5138 17.5325 7.19206 22.4947C6.51308 23.5089 6.51309 23.3693 5.86304 24.2491C5.81709 24.181 5.74903 24.1589 5.70308 24.0891C4.43702 22.1441 3.68317 19.5456 3.68317 17.5478C3.68343 17.5308 3.68343 17.5138 3.68317 17.4968C3.60319 12.4002 5.11259 8.87772 6.87384 6.59405C8.63339 4.31038 10.8609 3.40338 11.3408 3.40338ZM23.9963 11.9646C24.0201 12.0905 24.0847 12.3151 23.9963 12.8682C23.7767 14.2363 22.8782 16.4639 21.4965 18.6658C21.117 19.2699 20.5044 19.7209 20.0619 20.3148C20.0211 19.9608 19.8492 19.7975 19.8492 19.4095C19.8492 17.1803 20.4959 15.1672 21.391 13.8262C22.2452 12.5432 23.2339 12.0139 23.9963 11.9646Z" fill="white"/>
</svg>
