<svg width="20" height="20" viewBox="0 0 20 20" fill="none" xmlns="http://www.w3.org/2000/svg">
<path fill-rule="evenodd" clip-rule="evenodd" d="M14.6016 6.16318V7.44096C16.0369 7.88897 17.0827 9.18828 17.0827 10.7402V14.8543C17.0827 16.7755 15.4899 18.3332 13.5262 18.3332H6.47335C4.50881 18.3332 2.91602 16.7755 2.91602 14.8543V10.7402C2.91602 9.18828 3.96264 7.88897 5.39709 7.44096V6.16318C5.40556 3.67883 7.46324 1.6665 9.98665 1.6665C12.5439 1.6665 14.6016 3.67883 14.6016 6.16318ZM10.0036 3.11571C11.7226 3.11571 13.1197 4.4821 13.1197 6.16318V7.26126H6.87896V6.14661C6.88742 4.47382 8.28462 3.11571 10.0036 3.11571ZM10.7403 13.7123C10.7403 14.1181 10.41 14.441 9.99511 14.441C9.58866 14.441 9.25841 14.1181 9.25841 13.7123V11.8739C9.25841 11.4764 9.58866 11.1534 9.99511 11.1534C10.41 11.1534 10.7403 11.4764 10.7403 11.8739V13.7123Z" fill="white"/>
</svg>
