<svg width="20" height="20" viewBox="0 0 20 20" fill="none" xmlns="http://www.w3.org/2000/svg">
<mask id="mask0_0_347" style="mask-type:luminance" maskUnits="userSpaceOnUse" x="1" y="2" width="18" height="17">
<path fill-rule="evenodd" clip-rule="evenodd" d="M1.66699 2.5H18.7274V18.7508H1.66699V2.5Z" fill="white"/>
</mask>
<g mask="url(#mask0_0_347)">
<path fill-rule="evenodd" clip-rule="evenodd" d="M3.18696 10.1026C4.35529 13.7376 8.97112 16.6768 10.1978 17.4043C11.4286 16.6693 16.0778 13.6976 17.2086 10.1059C17.9511 7.78427 17.262 4.84343 14.5236 3.96093C13.197 3.5351 11.6495 3.79427 10.5811 4.62093C10.3578 4.7926 10.0478 4.79593 9.82279 4.62593C8.69112 3.7751 7.21279 3.52593 5.86529 3.96093C3.13112 4.8426 2.44446 7.78343 3.18696 10.1026ZM10.1986 18.7509C10.0953 18.7509 9.99279 18.7259 9.89946 18.6751C9.63862 18.5326 3.49446 15.1459 1.99696 10.4843C1.99612 10.4843 1.99612 10.4834 1.99612 10.4834C1.05612 7.54843 2.10279 3.8601 5.48196 2.77093C7.06862 2.2576 8.79779 2.48343 10.1961 3.36593C11.5511 2.50927 13.3511 2.2726 14.9061 2.77093C18.2886 3.86177 19.3386 7.54927 18.3995 10.4834C16.9503 15.0918 10.7611 18.5293 10.4986 18.6734C10.4053 18.7251 10.302 18.7509 10.1986 18.7509Z" fill="#246BFD"/>
</g>
<path fill-rule="evenodd" clip-rule="evenodd" d="M15.1282 8.85406C14.8057 8.85406 14.5324 8.60656 14.5057 8.27989C14.4507 7.59489 13.9924 7.01656 13.3399 6.80573C13.0107 6.69906 12.8307 6.34656 12.9366 6.01906C13.0441 5.69073 13.3932 5.51239 13.7232 5.61573C14.8591 5.98323 15.6549 6.98906 15.7524 8.17823C15.7799 8.52239 15.5241 8.82406 15.1799 8.85156C15.1624 8.85323 15.1457 8.85406 15.1282 8.85406Z" fill="#246BFD"/>
</svg>
