<svg width="20" height="20" viewBox="0 0 20 20" fill="none" xmlns="http://www.w3.org/2000/svg">
<path fill-rule="evenodd" clip-rule="evenodd" d="M8.16972 12.7103C8.69011 13.0631 9.32434 13.2764 9.99923 13.2764C11.7881 13.2764 13.2436 11.8078 13.2436 10.0029C13.2436 9.32196 13.0321 8.68203 12.6825 8.15696L11.7962 9.05122C11.9426 9.33017 12.0239 9.65834 12.0239 10.0029C12.0239 11.1269 11.1132 12.0458 9.99923 12.0458C9.65772 12.0458 9.33247 11.9637 9.05601 11.8161L8.16972 12.7103ZM15.3577 5.45777C16.5367 6.54073 17.5368 8.00108 18.2849 9.75679C18.3499 9.91267 18.3499 10.0932 18.2849 10.2408C16.5448 14.3265 13.4468 16.7714 9.99923 16.7714H9.9911C8.42178 16.7714 6.91752 16.2545 5.59214 15.3111L4.0147 16.9027C3.89273 17.0257 3.73824 17.0832 3.58375 17.0832C3.42926 17.0832 3.26663 17.0257 3.1528 16.9027C2.94952 16.6976 2.91699 16.3694 3.07962 16.1315L3.10401 16.0987L15.13 3.9646L15.13 3.96459C15.1463 3.94818 15.1625 3.93178 15.1706 3.91537L15.1706 3.91536C15.1869 3.89896 15.2032 3.88255 15.2113 3.86614L15.9756 3.09495C16.2196 2.85702 16.6017 2.85702 16.8375 3.09495C17.0815 3.33287 17.0815 3.72667 16.8375 3.9646L15.3577 5.45777ZM6.74896 10.0061C6.74896 10.2194 6.77336 10.4327 6.80588 10.6296L3.79735 13.6652C2.98424 12.7135 2.27683 11.5649 1.71578 10.244C1.65073 10.0964 1.65073 9.91587 1.71578 9.75999C3.45585 5.67428 6.55381 3.23762 9.99329 3.23762H10.0014C11.1642 3.23762 12.2944 3.51656 13.3352 4.04163L10.6194 6.78185C10.4242 6.74903 10.2128 6.72442 10.0014 6.72442C8.20444 6.72442 6.74896 8.19298 6.74896 10.0061Z" fill="#9E9E9E"/>
</svg>
