<svg width="40" height="40" viewBox="0 0 40 40" fill="none" xmlns="http://www.w3.org/2000/svg">
<path fill-rule="evenodd" clip-rule="evenodd" d="M27.7742 3.35023C30.1717 3.20039 32.536 4.03286 34.3175 5.66451C35.9491 7.446 36.7816 9.81022 36.6484 12.2244V27.775C36.7983 30.1891 35.9491 32.5534 34.3341 34.3348C32.5526 35.9665 30.1717 36.799 27.7742 36.6491H12.2235C9.80929 36.799 7.44505 35.9665 5.66355 34.3348C4.03189 32.5534 3.19941 30.1891 3.34926 27.775V12.2244C3.19941 9.81022 4.03189 7.446 5.66355 5.66451C7.44505 4.03286 9.80929 3.20039 12.2235 3.35023H27.7742ZM18.3012 28.0744L29.5064 16.8361C30.522 15.8038 30.522 14.1389 29.5064 13.1232L27.3419 10.9588C26.3097 9.92655 24.6447 9.92655 23.6124 10.9588L22.4969 12.091C22.3304 12.2575 22.3304 12.5405 22.4969 12.707C22.4969 12.707 25.1442 15.3376 25.1942 15.4042C25.3773 15.604 25.4938 15.8704 25.4938 16.1701C25.4938 16.7695 25.011 17.2689 24.395 17.2689C24.1119 17.2689 23.8455 17.1524 23.6624 16.9693L20.8819 14.2055C20.7487 14.0723 20.5156 14.0723 20.3824 14.2055L12.4406 22.1472C11.8911 22.6967 11.5748 23.4292 11.5582 24.2118L11.4583 28.1577C11.4583 28.3741 11.5249 28.5739 11.6747 28.7238C11.8245 28.8736 12.0243 28.9569 12.2408 28.9569H16.1534C16.9526 28.9569 17.7185 28.6405 18.3012 28.0744Z" fill="#246BFD"/>
</svg>
