<svg width="28" height="28" viewBox="0 0 28 28" fill="none" xmlns="http://www.w3.org/2000/svg">
<mask id="mask0_0_914" style="mask-type:luminance" maskUnits="userSpaceOnUse" x="2" y="3" width="25" height="24">
<path fill-rule="evenodd" clip-rule="evenodd" d="M2.33301 3.49988H26.2176V26.251H2.33301V3.49988Z" fill="white"/>
</mask>
<g mask="url(#mask0_0_914)">
<path fill-rule="evenodd" clip-rule="evenodd" d="M4.46096 14.1435C6.09662 19.2325 12.5588 23.3473 14.2761 24.3658C15.9993 23.3368 22.5081 19.1765 24.0913 14.1482C25.1308 10.8978 24.166 6.78067 20.3323 5.54517C18.475 4.949 16.3085 5.31183 14.8128 6.46917C14.5001 6.7095 14.0661 6.71417 13.7511 6.47617C12.1668 5.285 10.0971 4.93617 8.21062 5.54517C4.38279 6.7795 3.42146 10.8967 4.46096 14.1435ZM14.2773 26.2512C14.1326 26.2512 13.9891 26.2162 13.8585 26.145C13.4933 25.9455 4.89146 21.2042 2.79496 14.6778C2.79379 14.6778 2.79379 14.6767 2.79379 14.6767C1.47779 10.5677 2.94312 5.404 7.67396 3.87917C9.89529 3.1605 12.3161 3.47667 14.2738 4.71217C16.1708 3.51283 18.6908 3.1815 20.8678 3.87917C25.6033 5.40633 27.0733 10.5688 25.7585 14.6767C23.7296 21.1283 15.0648 25.9408 14.6973 26.1427C14.5666 26.215 14.422 26.2512 14.2773 26.2512Z" fill="white"/>
</g>
<path fill-rule="evenodd" clip-rule="evenodd" d="M21.1791 12.3957C20.7276 12.3957 20.345 12.0492 20.3076 11.5919C20.2306 10.6329 19.589 9.8232 18.6755 9.52804C18.2146 9.3787 17.9626 8.8852 18.1108 8.4267C18.2613 7.96704 18.7501 7.71737 19.2121 7.86204C20.8023 8.37654 21.9165 9.7847 22.053 11.4495C22.0915 11.9314 21.7333 12.3537 21.2515 12.3922C21.227 12.3945 21.2036 12.3957 21.1791 12.3957Z" fill="white"/>
</svg>
