<svg width="20" height="20" viewBox="0 0 20 20" fill="none" xmlns="http://www.w3.org/2000/svg">
<path fill-rule="evenodd" clip-rule="evenodd" d="M8.16874 12.7103C8.68914 13.0631 9.32337 13.2764 9.99825 13.2764C11.7871 13.2764 13.2426 11.8078 13.2426 10.0029C13.2426 9.32196 13.0312 8.68203 12.6815 8.15696L11.7952 9.05122C11.9416 9.33017 12.0229 9.65834 12.0229 10.0029C12.0229 11.1269 11.1122 12.0458 9.99825 12.0458C9.65674 12.0458 9.3315 11.9637 9.05504 11.8161L8.16874 12.7103ZM15.3567 5.45777C16.5357 6.54073 17.5358 8.00108 18.2839 9.75679C18.3489 9.91267 18.3489 10.0932 18.2839 10.2408C16.5438 14.3265 13.4459 16.7714 9.99825 16.7714H9.99012C8.42081 16.7714 6.91654 16.2545 5.59117 15.3111L4.01372 16.9027C3.89176 17.0257 3.73726 17.0832 3.58277 17.0832C3.42828 17.0832 3.26566 17.0257 3.15182 16.9027C2.94854 16.6976 2.91602 16.3694 3.07864 16.1315L3.10303 16.0987L15.129 3.9646L15.129 3.96459C15.1453 3.94818 15.1615 3.93178 15.1697 3.91537L15.1697 3.91536C15.1859 3.89896 15.2022 3.88255 15.2103 3.86614L15.9746 3.09495C16.2186 2.85702 16.6007 2.85702 16.8366 3.09495C17.0805 3.33287 17.0805 3.72667 16.8366 3.9646L15.3567 5.45777ZM6.74799 10.0061C6.74799 10.2194 6.77238 10.4327 6.8049 10.6296L3.79638 13.6652C2.98326 12.7135 2.27585 11.5649 1.7148 10.244C1.64975 10.0964 1.64975 9.91587 1.7148 9.75999C3.45487 5.67428 6.55284 3.23762 9.99232 3.23762H10.0004C11.1632 3.23762 12.2934 3.51656 13.3342 4.04163L10.6184 6.78185C10.4233 6.74903 10.2119 6.72442 10.0004 6.72442C8.20346 6.72442 6.74799 8.19298 6.74799 10.0061Z" fill="white"/>
</svg>
