<svg width="28" height="28" viewBox="0 0 28 28" fill="none" xmlns="http://www.w3.org/2000/svg">
<mask id="mask0_0_524" style="mask-type:luminance" maskUnits="userSpaceOnUse" x="2" y="3" width="25" height="24">
<path fill-rule="evenodd" clip-rule="evenodd" d="M2.33301 3.5H26.2176V26.2512H2.33301V3.5Z" fill="white"/>
</mask>
<g mask="url(#mask0_0_524)">
<path fill-rule="evenodd" clip-rule="evenodd" d="M4.46096 14.1436C6.09662 19.2326 12.5588 23.3475 14.2761 24.366C15.9993 23.337 22.5081 19.1766 24.0913 14.1483C25.1308 10.898 24.166 6.7808 20.3323 5.5453C18.475 4.94914 16.3085 5.31197 14.8128 6.4693C14.5001 6.70964 14.0661 6.7143 13.7511 6.4763C12.1668 5.28514 10.0971 4.9363 8.21062 5.5453C4.38279 6.77964 3.42146 10.8968 4.46096 14.1436ZM14.2773 26.2513C14.1326 26.2513 13.9891 26.2163 13.8585 26.1451C13.4933 25.9456 4.89146 21.2043 2.79496 14.678C2.79379 14.678 2.79379 14.6768 2.79379 14.6768C1.47779 10.5678 2.94312 5.40414 7.67396 3.8793C9.89529 3.16064 12.3161 3.4768 14.2738 4.7123C16.1708 3.51297 18.6908 3.18164 20.8678 3.8793C25.6033 5.40647 27.0733 10.569 25.7585 14.6768C23.7296 21.1285 15.0648 25.941 14.6973 26.1428C14.5666 26.2151 14.422 26.2513 14.2773 26.2513Z" fill="#212121"/>
</g>
<path fill-rule="evenodd" clip-rule="evenodd" d="M21.1791 12.3957C20.7276 12.3957 20.345 12.0492 20.3076 11.5919C20.2306 10.6329 19.589 9.82323 18.6755 9.52807C18.2146 9.37873 17.9626 8.88523 18.1108 8.42673C18.2613 7.96707 18.7501 7.7174 19.2121 7.86207C20.8023 8.37657 21.9165 9.78473 22.053 11.4496C22.0915 11.9314 21.7333 12.3537 21.2515 12.3922C21.227 12.3946 21.2036 12.3957 21.1791 12.3957Z" fill="#212121"/>
</svg>
