<svg width="20" height="20" viewBox="0 0 20 20" fill="none" xmlns="http://www.w3.org/2000/svg">
<path d="M6.14069 9.0575C6.18777 9.00917 6.36556 8.8025 6.53117 8.6325C7.50211 7.56333 10.035 5.81333 11.3607 5.27917C11.562 5.19333 12.071 5.01167 12.343 5C12.6036 5 12.852 5.06 13.0891 5.18167C13.3846 5.35167 13.6216 5.61917 13.7515 5.935C13.8351 6.15417 13.965 6.81 13.965 6.82167C14.0949 7.53917 14.1663 8.705 14.1663 9.99333C14.1663 11.2208 14.0949 12.3392 13.9886 13.0675C13.9764 13.0792 13.8465 13.8942 13.7044 14.1733C13.4438 14.6833 12.9348 15 12.3901 15H12.343C11.9882 14.9875 11.2422 14.6708 11.2422 14.6592C9.9879 14.1242 7.51348 12.46 6.519 11.3542C6.519 11.3542 6.23892 11.07 6.11714 10.8925C5.92718 10.6375 5.83301 10.3217 5.83301 10.0058C5.83301 9.65333 5.93936 9.325 6.14069 9.0575Z" fill="#9E9E9E"/>
</svg>
