<svg width="28" height="28" viewBox="0 0 28 28" fill="none" xmlns="http://www.w3.org/2000/svg">
<path d="M22.5614 6.90369L25.3656 4.08905C25.5611 3.89282 25.6682 3.63275 25.6682 3.35732C25.6682 3.08188 25.5611 2.82182 25.3656 2.62558C24.9757 2.23548 24.2986 2.23548 23.9087 2.62558L21.1046 5.4414L18.2993 2.62558C17.9095 2.23548 17.2323 2.23548 16.8425 2.62558C16.6482 2.82182 16.541 3.08188 16.541 3.35732C16.541 3.63275 16.6482 3.89282 16.8425 4.08905L19.6466 6.90369L16.8425 9.71832C16.6482 9.91455 16.541 10.1746 16.541 10.4501C16.541 10.7255 16.6482 10.9856 16.8425 11.1818C17.2323 11.5719 17.9095 11.5719 18.2993 11.1818L21.1046 8.36597L23.9087 11.1818C24.1042 11.3768 24.3622 11.4844 24.6377 11.4844C24.9133 11.4844 25.1712 11.3768 25.3656 11.1818C25.5611 10.9856 25.6682 10.7255 25.6682 10.4501C25.6682 10.1746 25.5611 9.91455 25.3656 9.71832L22.5614 6.90369Z" fill="white"/>
<path fill-rule="evenodd" clip-rule="evenodd" d="M12.871 15.1345C17.5249 19.7871 18.5807 14.4045 21.5439 17.3656C24.4006 20.2215 26.0425 20.7937 22.4231 24.4122C21.9697 24.7765 19.0892 29.16 8.96602 19.0396C-1.15841 8.918 3.2225 6.03452 3.58695 5.58127C7.21516 1.95282 7.77749 3.60428 10.6342 6.46022C13.5974 9.42258 8.21708 10.4818 12.871 15.1345Z" fill="white"/>
</svg>
