<svg width="302" height="303" viewBox="0 0 302 303" fill="none" xmlns="http://www.w3.org/2000/svg">
<g opacity="0.4">
<g opacity="0.54">
<path opacity="0.54" d="M3.38396 176.711C-1.99439 169.62 1.29831 158.667 8.23268 153.095C15.167 147.52 24.5073 146.104 33.3918 145.599C42.2764 145.089 51.4113 145.245 59.7375 142.113C76.9687 135.626 86.1201 117.192 93.1571 100.178C100.194 83.1646 108.032 64.5128 124.442 56.1579C137.309 49.6095 152.619 50.9684 166.775 48.1356C191.486 43.1924 212.881 24.1835 220.69 0.21906" stroke="white" stroke-width="1.41176" stroke-miterlimit="10"/>
<path opacity="0.54" d="M4.36486 178.903C-1.01349 171.825 2.20531 160.896 9.06578 155.263C9.67751 154.758 10.3139 154.29 10.9626 153.846C17.589 149.363 26.0096 148.053 34.0689 147.503C35.6249 147.396 37.1892 147.31 38.7534 147.224C46.0983 146.822 53.4925 146.403 60.3325 143.788C62.5495 142.942 64.6351 141.895 66.5976 140.68C79.8423 132.489 87.5116 116.6 93.5181 101.754C93.9533 100.675 94.3926 99.5907 94.836 98.5027C101.401 82.3965 109.062 65.7031 123.932 57.418C128.186 55.049 132.706 53.4232 137.53 52.4132C143.225 51.2185 149.215 50.8859 155.09 50.4959C159.101 50.229 163.079 49.9293 166.992 49.3094C168.831 49.0179 170.658 48.6484 172.469 48.1968C183.997 45.327 194.783 39.1111 203.429 30.7644C212.096 22.3971 218.661 11.932 222.29 0.444476" stroke="white" stroke-width="1.41176" stroke-miterlimit="10"/>
<path opacity="0.54" d="M5.3462 181.095C-0.03625 174.026 3.10864 163.125 9.89521 157.431C10.5028 156.922 11.131 156.445 11.7756 155.998C18.3404 151.457 26.7159 150.053 34.7505 149.408C36.3025 149.285 37.8585 149.183 39.4186 149.08C46.7389 148.6 54.1167 148.115 60.932 145.467C63.1408 144.609 65.2224 143.558 67.1807 142.334C80.3967 134.09 88.0044 118.206 93.8877 103.335C94.3147 102.256 94.7458 101.168 95.1769 100.08C101.59 83.9528 109.062 67.4072 123.44 58.6869C127.64 56.1373 132.09 54.1953 137.013 53.0499C142.831 51.695 149.042 51.4569 155.053 51.2475C159.155 51.1038 163.211 50.9642 167.214 50.488C169.098 50.2622 170.966 49.9584 172.83 49.5601C184.691 47.0311 195.941 40.6879 204.801 32.0497C213.681 23.3951 220.258 12.5194 223.888 0.66647" stroke="white" stroke-width="1.41176" stroke-miterlimit="10"/>
<path opacity="0.54" d="M6.32402 183.288C0.941571 176.23 4.00846 165.355 10.7252 159.603C11.3246 159.089 11.9446 158.605 12.5851 158.153C19.0925 153.551 27.4186 152.052 35.4287 151.317C36.9724 151.178 38.5284 151.055 40.0803 150.936C47.376 150.377 54.7332 149.827 61.528 147.146C63.7286 146.28 65.8019 145.221 67.7562 143.993C80.9393 135.7 88.4895 119.819 94.2497 104.92C94.6684 103.836 95.0872 102.748 95.5101 101.66C101.771 85.5088 109.059 69.0986 122.936 59.9555C127.086 57.2211 131.463 54.9713 136.488 53.6903C142.429 52.1712 148.862 52.0316 155.009 52.007C159.204 51.9865 163.335 52.0111 167.428 51.6745C169.353 51.5185 171.271 51.2762 173.184 50.9313C185.378 48.7431 197.091 42.2767 206.164 33.347C215.258 24.4009 221.848 13.1187 225.481 0.900443" stroke="white" stroke-width="1.41176" stroke-miterlimit="10"/>
<path opacity="0.54" d="M7.30439 185.484C1.92194 178.435 4.91493 167.588 11.5537 161.774C12.149 161.253 12.7607 160.769 13.393 160.309C19.8388 155.645 28.1198 154.056 36.1052 153.231C37.6448 153.071 39.1926 152.935 40.7445 152.8C48.0156 152.163 55.3564 151.543 62.1306 148.834C64.323 147.955 66.3923 146.892 68.3383 145.656C81.4927 137.313 88.9772 121.433 94.6224 106.509C95.033 105.425 95.4435 104.333 95.8541 103.241C101.963 87.0688 109.062 70.7655 122.442 61.2282C126.539 58.305 130.85 55.7472 135.974 54.3349C142.042 52.6516 148.693 52.6105 154.975 52.7665C159.261 52.8733 163.469 53.0539 167.657 52.8609C169.624 52.7706 171.59 52.59 173.557 52.3026C186.083 50.4592 198.26 43.8614 207.547 34.6444C216.854 25.4109 223.456 13.7181 227.094 1.13442" stroke="white" stroke-width="1.41176" stroke-miterlimit="10"/>
<path opacity="0.54" d="M8.28607 187.677C2.89952 180.64 5.81861 169.813 12.3835 163.942C12.9706 163.417 13.5782 162.924 14.2064 162.46C20.5906 157.735 28.8264 156.055 36.7872 155.136C38.3227 154.959 39.8664 154.807 41.4101 154.655C48.6565 153.941 55.9809 153.255 62.7305 150.513C64.9147 149.626 66.9757 148.554 68.9218 147.31C82.0474 138.914 89.4703 123.042 94.9923 108.09C95.3947 107.002 95.7929 105.914 96.1953 104.817C102.153 88.6249 109.058 72.4078 121.946 62.4927C125.998 59.3766 130.231 56.5191 135.453 54.9672C141.644 53.1237 148.517 53.1771 154.938 53.5138C159.319 53.7437 163.605 54.0845 167.879 54.0352C169.891 54.0106 171.899 53.8956 173.919 53.6616C186.777 52.1589 199.418 45.4381 208.919 35.9295C218.436 26.4045 225.054 14.3052 228.695 1.35617" stroke="white" stroke-width="1.41176" stroke-miterlimit="10"/>
<path opacity="0.54" d="M9.26719 189.869C3.88064 182.84 6.72172 172.043 13.2168 166.11C13.7957 165.58 14.3992 165.079 15.0191 164.611C21.3459 159.828 29.5325 158.051 37.4645 157.045C38.9959 156.852 40.5314 156.679 42.071 156.511C49.2927 155.723 56.5966 154.967 63.3257 152.192C65.5017 151.293 67.5586 150.213 69.4964 148.965C82.5933 140.52 89.9546 124.647 95.3535 109.67C95.7477 108.582 96.1377 107.49 96.5277 106.394C102.333 90.1809 109.046 74.0294 121.441 63.7613C125.444 60.4481 129.602 57.2909 134.927 55.6076C141.242 53.6 148.336 53.7519 154.893 54.2733C159.364 54.6264 163.728 55.1272 168.093 55.2217C170.145 55.2668 172.202 55.2134 174.276 55.0328C187.467 53.8709 200.572 47.0228 210.286 37.2268C220.016 27.4144 226.647 14.9046 230.292 1.59014" stroke="white" stroke-width="1.41176" stroke-miterlimit="10"/>
<path opacity="0.54" d="M10.2449 192.062C4.8542 185.045 7.62548 174.272 14.0425 168.282C14.6173 167.748 15.2126 167.243 15.8285 166.767C22.0936 161.922 30.235 160.054 38.1424 158.954C39.6656 158.745 41.2011 158.556 42.7325 158.371C49.9337 157.505 57.2171 156.679 63.9215 153.875C66.0893 152.968 68.1421 151.88 70.0717 150.624C83.1399 142.129 90.4397 126.261 95.7154 111.255C96.0972 110.163 96.479 109.071 96.8608 107.975C102.514 91.7411 109.022 75.6348 120.936 65.0301C124.89 61.5116 128.975 58.0669 134.402 56.2441C140.84 54.0722 148.156 54.3226 154.848 55.0247C159.414 55.5009 163.852 56.1619 168.311 56.4001C170.409 56.5109 172.507 56.5232 174.633 56.396C188.157 55.579 201.726 48.6035 211.654 38.5161C221.597 28.4122 228.24 15.4959 231.886 1.81604" stroke="white" stroke-width="1.41176" stroke-miterlimit="10"/>
<path opacity="0.54" d="M11.2259 194.258C5.83528 187.254 8.52856 176.506 14.8758 170.454C15.4424 169.912 16.0336 169.403 16.6412 168.923C22.8489 164.016 30.937 162.054 38.8238 160.863C40.3429 160.633 41.8702 160.428 43.3975 160.227C50.5741 159.283 57.841 158.392 64.5208 155.555C66.6845 154.639 68.725 153.543 70.6546 152.283C83.6899 143.735 90.9322 127.871 96.0847 112.84C96.4583 111.748 96.8319 110.652 97.2014 109.551C102.699 93.2973 109.001 77.2239 120.439 66.2989C124.344 62.571 128.359 58.839 133.881 56.8847C140.442 54.5527 147.98 54.8976 154.807 55.7803C159.463 56.3797 163.979 57.205 168.528 57.5868C170.667 57.7633 172.814 57.8413 174.99 57.7674C188.847 57.2912 202.876 50.1885 213.021 39.8136C223.178 29.4223 229.833 16.0914 233.483 2.05026" stroke="white" stroke-width="1.41176" stroke-miterlimit="10"/>
<path opacity="0.54" d="M12.2065 196.45C6.81173 189.454 9.43522 178.735 15.7045 172.621C16.2669 172.075 16.8499 171.558 17.4494 171.074C23.5955 166.11 31.6383 164.053 39.5006 162.772C41.0155 162.526 42.5387 162.304 44.0619 162.086C51.2139 161.064 58.4603 160.108 65.1196 157.238C67.275 156.31 69.3114 155.21 71.2328 153.941C84.2394 145.344 91.4201 129.484 96.4535 114.424C96.8189 113.332 97.1802 112.232 97.5415 111.132C102.887 94.8572 108.972 78.796 119.942 67.5713C123.793 63.6299 127.738 59.6146 133.363 57.5249C140.047 55.0287 147.806 55.468 154.774 56.5354C159.524 57.2621 164.114 58.2434 168.757 58.7689C170.937 59.0152 173.134 59.1548 175.363 59.1343C189.552 59.0029 204.045 51.7729 214.404 41.1066C224.774 30.4279 231.446 16.6864 235.096 2.27984" stroke="white" stroke-width="1.41176" stroke-miterlimit="10"/>
<path opacity="0.54" d="M13.1878 198.643C7.79305 191.659 10.3385 180.96 16.5339 174.793C17.0881 174.243 17.6629 173.722 18.2623 173.229C24.351 168.204 32.3446 166.052 40.1822 164.681C41.6889 164.418 43.208 164.18 44.7271 163.946C51.8544 162.85 59.0844 161.819 65.719 158.921C67.8663 157.985 69.8944 156.876 71.8118 155.599C84.7896 146.953 91.9087 131.097 96.819 116.009C97.1762 114.913 97.5293 113.813 97.8782 112.712C103.072 96.4172 108.931 80.3519 119.441 68.8398C123.239 64.6808 127.114 60.3905 132.842 58.1652C139.649 55.5048 147.63 56.0426 154.733 57.2949C159.577 58.1447 164.241 59.2861 168.975 59.9553C171.2 60.2673 173.438 60.4726 175.721 60.5054C190.242 60.7148 205.199 53.3576 215.771 42.3997C226.355 31.4295 233.039 17.2816 236.693 2.50965" stroke="white" stroke-width="1.41176" stroke-miterlimit="10"/>
<path opacity="0.54" d="M14.1654 200.835C8.76649 193.859 11.2381 183.189 17.3636 176.961C17.9097 176.402 18.4803 175.877 19.0716 175.38C25.0986 170.293 33.047 168.052 40.8559 166.59C42.3585 166.311 43.8735 166.052 45.3844 165.802C52.4871 164.628 59.7006 163.531 66.3148 160.6C68.4538 159.652 70.4778 158.539 72.391 157.254C85.3401 148.554 92.3936 132.702 97.1848 117.59C97.5338 116.493 97.8745 115.389 98.2153 114.285C103.257 97.9689 108.878 81.8913 118.94 70.1042C122.681 65.7235 126.491 61.158 132.316 58.7973C139.247 55.9768 147.45 56.609 154.688 58.0419C159.623 59.0149 164.365 60.3164 169.189 61.1293C171.455 61.5111 173.742 61.778 176.078 61.8642C190.932 62.4144 206.353 54.9298 217.138 43.6846C227.936 32.427 234.632 17.8685 238.29 2.73116" stroke="white" stroke-width="1.41176" stroke-miterlimit="10"/>
<path opacity="0.54" d="M15.1466 203.032C9.74774 196.069 12.1454 185.423 18.193 179.133C18.7349 178.57 19.2974 178.037 19.8845 177.532C25.8499 172.383 33.7532 170.047 41.5374 168.495C43.036 168.196 44.5427 167.925 46.0495 167.658C53.1276 166.406 60.3206 165.244 66.9142 162.279C69.045 161.323 71.065 160.198 72.97 158.909C85.8903 150.16 92.8821 134.312 97.5502 119.171C97.891 118.07 98.2235 116.966 98.552 115.861C103.442 99.5211 108.812 83.419 118.44 71.369C122.122 66.7625 125.871 61.9302 131.795 59.434C138.848 56.4492 147.273 57.18 154.651 58.7935C159.68 59.8897 164.5 61.3554 169.415 62.3079C171.726 62.7554 174.058 63.088 176.444 63.2276C191.63 64.1226 207.515 56.5108 218.514 44.9741C229.525 33.425 236.233 18.4601 239.892 2.95731" stroke="white" stroke-width="1.41176" stroke-miterlimit="10"/>
<path opacity="0.54" d="M16.1281 205.224C10.7252 198.269 13.0489 187.652 19.0267 181.301C19.5604 180.734 20.1188 180.196 20.6977 179.683C26.6056 174.477 34.4597 172.047 42.2193 170.404C43.7137 170.088 45.2122 169.797 46.7149 169.518C53.7683 168.187 60.9449 166.956 67.5139 163.963C69.6365 162.998 71.6482 161.865 73.5491 160.567C86.4366 151.769 93.371 135.921 97.9159 120.755C98.2443 119.655 98.5687 118.546 98.8889 117.442C103.627 101.081 108.738 84.9462 117.943 72.6417C121.56 67.8053 125.251 62.7061 131.278 60.0744C138.455 56.9254 147.101 57.7548 154.614 59.553C159.734 60.7765 164.632 62.3982 169.637 63.4944C171.989 64.0076 174.366 64.4018 176.805 64.5988C192.324 65.8346 208.673 58.0955 219.885 46.2714C231.11 34.4349 237.831 19.0594 241.493 3.19128" stroke="white" stroke-width="1.41176" stroke-miterlimit="10"/>
<path opacity="0.54" d="M17.1048 207.417C11.7018 200.474 13.9476 189.882 19.8514 183.473C20.3769 182.902 20.9312 182.356 21.5019 181.839C27.3483 176.571 35.1571 174.046 42.8921 172.314C44.3783 171.981 45.8768 171.673 47.3754 171.374C54.4083 169.97 61.5644 168.668 68.1087 165.642C70.2231 164.665 72.2307 163.528 74.1275 162.226C86.9863 153.379 93.8591 137.535 98.2849 122.34C98.6051 121.236 98.9213 120.128 99.2292 119.023C103.815 102.642 108.66 86.4616 117.446 73.9107C120.997 68.8403 124.631 63.4825 130.756 60.7153C138.056 57.4062 146.92 58.33 154.573 60.3089C159.787 61.6555 164.759 63.4373 169.858 64.6772C172.251 65.2602 174.678 65.7159 177.17 65.9664C193.022 67.5429 209.834 59.6807 221.26 47.5651C232.698 35.4371 239.431 19.6552 243.098 3.42159" stroke="white" stroke-width="1.41176" stroke-miterlimit="10"/>
<path opacity="0.54" d="M18.0865 209.609C12.6794 202.674 14.8554 192.111 20.6812 185.64C21.2027 185.061 21.7487 184.511 22.3153 183.99C28.1042 178.661 35.8638 176.045 43.57 174.218C45.0521 173.869 46.5425 173.545 48.0369 173.229C55.0452 171.747 62.1807 170.38 68.7045 167.321C70.8107 166.336 72.8101 165.19 74.7028 163.881C87.5328 154.98 94.344 139.14 98.6467 123.921C98.9587 122.816 99.2625 121.708 99.5622 120.595C103.996 104.193 108.558 87.9597 116.941 75.1748C120.419 69.8704 124.003 64.2498 130.231 61.3471C137.654 57.8738 146.74 58.8961 154.528 61.0556C159.833 62.5254 164.882 64.4674 170.072 65.851C172.511 66.4997 174.978 67.0211 177.524 67.3249C193.708 69.2463 210.984 61.2527 222.624 48.8497C234.275 36.4343 241.021 20.2418 244.691 3.64285" stroke="white" stroke-width="1.41176" stroke-miterlimit="10"/>
<path opacity="0.54" d="M19.067 211.805C13.6599 204.883 15.7578 194.34 21.5139 187.812C22.0271 187.229 22.5649 186.675 23.1274 186.145C28.8547 180.755 36.5692 178.049 44.2507 176.132C45.7288 175.762 47.215 175.422 48.7012 175.089C55.6849 173.529 62.804 172.092 69.3031 169.004C71.4011 168.007 73.3964 166.857 75.2809 165.539C88.0822 156.589 94.8318 140.754 99.0113 125.506C99.3151 124.397 99.6107 123.289 99.8981 122.176C104.18 105.754 108.454 89.4666 116.44 76.4436C119.839 70.901 123.382 65.0259 129.709 61.9878C137.255 58.3502 146.562 59.471 154.49 61.8112C159.889 63.4042 165.013 65.5104 170.293 67.0335C172.773 67.752 175.289 68.335 177.884 68.6922C194.401 70.9544 212.141 62.8376 223.994 50.1431C235.859 37.4362 242.617 20.8373 246.292 3.87291" stroke="white" stroke-width="1.41176" stroke-miterlimit="10"/>
<path opacity="0.54" d="M20.0483 213.998C14.6412 207.084 16.6612 196.57 22.3433 189.984C22.8524 189.397 23.3821 188.835 23.9404 188.301C29.6062 182.853 37.2754 180.049 44.9324 178.041C46.4063 177.655 47.8843 177.298 49.3664 176.949C56.3254 175.311 63.4281 173.808 69.9027 170.688C71.9924 169.682 73.9836 168.524 75.864 167.198C88.6366 158.199 95.3246 142.367 99.3809 127.09C99.6765 125.982 99.9598 124.869 100.239 123.757C104.369 107.314 108.339 90.9692 115.943 77.7163C119.26 71.9315 122.762 65.8019 129.188 62.6323C136.857 58.8347 146.386 60.0499 154.449 62.5749C159.939 64.291 165.14 66.5573 170.515 68.2242C173.04 69.0083 175.601 69.657 178.25 70.0676C195.099 72.6746 213.303 64.4265 225.37 51.4446C237.448 38.4503 244.218 21.4408 247.893 4.11104" stroke="white" stroke-width="1.41176" stroke-miterlimit="10"/>
<path opacity="0.54" d="M21.0256 216.19C15.6144 209.289 17.5646 198.799 23.1729 192.152C23.6737 191.556 24.1993 190.99 24.7494 190.452C30.3577 184.942 37.9777 182.048 45.61 179.95C47.0757 179.548 48.5537 179.17 50.0276 178.809C56.962 177.092 64.0442 175.524 70.5023 172.371C72.5838 171.357 74.5668 170.187 76.4431 168.857C89.1828 159.804 95.8134 143.977 99.7465 128.675C100.034 127.562 100.309 126.45 100.576 125.337C104.554 108.874 108.216 92.4635 115.442 78.9848C118.673 72.9578 122.138 66.5777 128.666 63.2686C136.459 59.3067 146.21 60.6163 154.409 63.326C159.992 65.1695 165.272 67.5918 170.732 69.4064C173.298 70.2563 175.906 70.9707 178.607 71.4346C195.793 74.3824 214.457 66.0111 226.737 52.7336C239.029 39.4519 245.812 22.0319 249.49 4.3367" stroke="white" stroke-width="1.41176" stroke-miterlimit="10"/>
<path opacity="0.54" d="M22.0072 218.383C16.596 211.49 18.4682 201.029 24.0026 194.32C24.4952 193.721 25.0166 193.15 25.5586 192.604C31.1053 187.033 38.6801 184.044 46.2878 181.855C47.7494 181.437 49.2192 181.042 50.6931 180.661C57.6028 178.871 64.6686 177.228 71.1021 174.042C73.1754 173.016 75.1543 171.842 77.0223 170.508C89.7333 161.405 96.2982 145.582 100.116 130.252C100.391 129.139 100.662 128.023 100.921 126.906C104.747 110.422 108.089 93.9503 114.95 80.2458C118.087 73.9765 121.523 67.3419 128.154 63.9014C136.069 59.7752 146.042 61.1834 154.376 64.0738C160.054 66.0404 165.408 68.6228 170.959 70.5812C173.57 71.5008 176.222 72.2768 178.977 72.7941C196.495 76.0827 215.623 67.5841 228.117 54.0192C240.622 40.446 247.421 22.6195 251.1 4.55894" stroke="white" stroke-width="1.41176" stroke-miterlimit="10"/>
<path opacity="0.54" d="M22.9883 220.579C17.573 213.698 19.3713 203.262 24.8317 196.492C25.3203 195.888 25.8335 195.309 26.3713 194.759C31.8605 189.13 39.3861 186.047 46.965 183.764C48.4225 183.325 49.8882 182.918 51.3539 182.52C58.239 180.652 65.2884 178.944 71.6972 175.725C73.7623 174.691 75.733 173.508 77.597 172.166C90.2792 163.014 96.7825 147.191 100.478 131.837C100.744 130.72 101.003 129.603 101.253 128.486C104.924 111.982 107.941 95.4485 114.445 81.5182C117.487 75.0067 120.899 68.1216 127.624 64.5415C135.663 60.2553 145.857 61.7579 154.331 64.833C160.099 66.9228 165.531 69.6653 171.176 71.7674C173.828 72.7528 176.53 73.5944 179.334 74.1651C197.185 77.7985 216.777 69.1727 229.484 55.3162C242.203 41.4557 249.014 23.2145 252.697 4.79267" stroke="white" stroke-width="1.41176" stroke-miterlimit="10"/>
<path opacity="0.54" d="M23.9697 222.771C18.5544 215.898 20.2787 205.487 25.6653 198.663C26.1456 198.056 26.6547 197.468 27.1843 196.914C32.612 191.224 40.0924 188.046 47.6467 185.677C49.1001 185.221 50.5576 184.794 52.0192 184.38C58.8837 182.434 65.9084 180.66 72.2967 177.408C74.3537 176.361 76.3202 175.175 78.1801 173.824C90.8335 164.619 97.2752 148.805 100.847 133.421C101.106 132.304 101.356 131.183 101.594 130.067C105.113 113.538 107.794 96.9427 113.948 82.7865C116.888 76.0287 120.279 68.8931 127.107 65.1817C135.269 60.7312 145.684 62.3324 154.294 65.5881C160.157 67.8011 165.662 70.7078 171.398 72.9495C174.091 74.0005 176.838 74.9079 179.695 75.5319C197.879 79.5061 217.931 70.753 230.855 56.6092C243.788 42.4572 250.611 23.8095 254.298 5.02224" stroke="white" stroke-width="1.41176" stroke-miterlimit="10"/>
<path opacity="0.54" d="M24.9462 224.964C19.5268 218.104 21.1772 207.716 26.4899 200.831C26.9661 200.215 27.467 199.628 27.9884 199.066C33.3545 193.314 40.7897 190.046 48.3194 187.582C49.7646 187.11 51.2221 186.667 52.6754 186.236C59.5154 184.212 66.5236 182.372 72.8873 179.088C74.936 178.033 76.8985 176.838 78.7501 175.479C91.3749 166.225 97.755 150.41 101.204 135.002C101.454 133.881 101.692 132.76 101.922 131.644C105.289 115.094 107.621 98.4374 113.438 84.0555C116.271 77.0554 119.646 69.6694 126.576 65.8184C134.866 61.2037 145.499 62.9034 154.244 66.3398C160.197 68.68 165.781 71.7428 171.611 74.1281C174.349 75.249 177.141 76.2179 180.052 76.8953C198.568 81.2103 219.084 72.334 232.222 57.8987C245.368 43.4593 252.204 24.401 255.891 5.24839" stroke="white" stroke-width="1.41176" stroke-miterlimit="10"/>
<path opacity="0.54" d="M25.9282 227.156C20.5088 220.304 22.0813 209.945 27.3241 202.999C27.7921 202.379 28.2848 201.783 28.8062 201.217C34.1148 195.403 41.5008 192.041 49.0058 189.491C50.4469 189.003 51.8962 188.539 53.3454 188.095C60.1607 185.997 67.1526 184.084 73.4916 180.771C75.5321 179.703 77.4864 178.505 79.3339 177.137C91.9258 167.834 98.2484 152.023 101.574 136.586C101.816 135.465 102.046 134.341 102.264 133.22C105.478 116.649 107.461 99.9356 112.942 85.3196C115.66 78.0732 119.027 70.4368 126.056 66.4544C134.468 61.6795 145.323 63.4737 154.208 67.0907C160.255 69.5541 165.913 72.777 171.833 75.306C174.613 76.4926 177.45 77.5231 180.414 78.258C199.263 82.9178 220.242 73.9101 233.594 59.1874C246.949 44.4565 253.802 24.9919 257.493 5.4738" stroke="white" stroke-width="1.41176" stroke-miterlimit="10"/>
<path opacity="0.54" d="M26.9087 229.352C21.4852 222.513 22.9879 212.179 28.1527 205.175C28.6126 204.551 29.1011 203.947 29.6143 203.376C34.8613 197.505 42.2021 194.048 49.6784 191.404C51.1154 190.899 52.5606 190.419 54.0057 189.955C60.7964 187.779 67.7677 185.8 74.0862 182.454C76.1185 181.378 78.0687 180.171 79.9121 178.796C92.4752 169.439 98.7363 153.637 101.939 138.171C102.173 137.046 102.39 135.921 102.6 134.8C105.662 118.21 107.284 101.438 112.445 86.5923C115.048 79.1037 118.41 71.2127 125.538 67.0948C134.073 62.1558 145.15 64.0484 154.17 67.8502C160.308 70.4368 166.044 73.8198 172.054 76.4925C174.879 77.7489 177.761 78.8409 180.779 79.6292C199.96 84.6298 221.404 75.499 234.969 60.4848C248.538 45.4665 255.402 25.5912 259.097 5.70778" stroke="white" stroke-width="1.41176" stroke-miterlimit="10"/>
<path opacity="0.54" d="M27.8902 231.545C22.4667 224.714 23.8914 214.409 28.9864 207.343C29.4421 206.711 29.9225 206.107 30.4316 205.524C35.6211 199.591 42.9126 196.04 50.3643 193.306C51.793 192.78 53.2341 192.288 54.6752 191.807C61.4412 189.553 68.3961 187.509 74.6941 184.13C76.7182 183.046 78.6601 181.826 80.4994 180.451C93.0338 171.045 99.2333 155.243 102.317 139.752C102.542 138.627 102.752 137.502 102.949 136.377C105.86 119.766 107.116 102.941 111.957 87.8574C114.436 80.1224 117.799 71.9851 125.029 67.7317C133.688 62.6284 144.986 64.6196 154.142 68.6021C160.374 71.3118 166.188 74.859 172.288 77.6714C175.154 78.9934 178.086 80.1512 181.152 80.9928C200.666 86.3383 222.574 77.0761 236.356 61.7704C250.139 46.4647 257.016 26.1789 260.715 5.93002" stroke="white" stroke-width="1.41176" stroke-miterlimit="10"/>
<path opacity="0.54" d="M28.8673 233.738C23.4397 226.918 24.7945 216.634 29.8116 209.51C30.2591 208.874 30.7353 208.262 31.2362 207.675C36.3641 201.681 43.6105 198.039 51.0375 195.215C52.4622 194.673 53.8991 194.16 55.332 193.667C62.0734 191.335 69.0119 189.22 75.2852 185.813C77.3011 184.717 79.2389 183.493 81.07 182.11C93.5757 172.654 99.7136 156.856 102.674 141.337C102.887 140.208 103.088 139.083 103.277 137.954C106.036 121.322 106.923 104.448 111.447 89.1258C113.804 81.1487 117.167 72.7568 124.495 68.3679C133.277 63.1045 144.797 65.1902 154.088 69.3532C160.411 72.1861 166.302 75.8935 172.494 78.8495C175.4 80.2372 178.377 81.4607 181.497 82.3557C201.344 88.042 223.715 78.6524 237.711 63.0594C251.707 47.4622 258.596 26.7699 262.3 6.15568" stroke="white" stroke-width="1.41176" stroke-miterlimit="10"/>
<path opacity="0.54" d="M29.8487 235.93C24.4211 229.119 25.6979 218.863 30.6411 211.678C31.0845 211.038 31.5525 210.418 32.0452 209.827C37.1156 203.775 44.3127 200.039 51.7151 197.12C53.1357 196.562 54.5644 196.032 55.9932 195.519C62.7099 193.109 69.6279 190.929 75.8807 187.488C77.8884 186.384 79.8221 185.152 81.6491 183.76C94.126 174.256 100.198 158.458 103.039 142.914C103.245 141.785 103.438 140.656 103.614 139.527C106.221 122.874 106.73 105.955 110.947 90.3866C113.172 82.1672 116.547 73.5249 123.974 69.0005C132.879 63.5729 144.621 65.753 154.051 70.1049C160.469 73.0651 166.434 76.9284 172.72 80.0282C175.672 81.4857 178.693 82.7707 181.867 83.7191C202.046 89.7461 224.881 80.2334 239.091 64.3489C253.3 48.4643 260.202 27.3615 263.909 6.38183" stroke="white" stroke-width="1.41176" stroke-miterlimit="10"/>
<path opacity="0.54" d="M30.8302 238.126C25.3985 231.327 26.6014 221.096 31.4748 213.854C31.91 213.209 32.3739 212.585 32.8625 211.986C37.8713 205.873 45.0233 202.042 52.401 199.037C53.8175 198.462 55.2421 197.912 56.6627 197.386C63.3589 194.903 70.2563 192.653 76.4845 189.179C78.484 188.063 80.4095 186.827 82.2324 185.427C94.6765 175.869 100.691 160.079 103.409 144.506C103.606 143.373 103.787 142.244 103.955 141.115C106.41 124.442 106.538 107.482 110.45 91.6671C112.544 83.2054 115.927 74.3086 123.457 69.6487C132.485 64.0569 144.449 66.3355 154.015 70.8681C160.526 73.9514 166.566 77.9749 172.942 81.2183C175.935 82.7415 179.006 84.0922 182.229 85.094C202.74 91.4659 226.039 81.8218 240.462 65.6499C254.885 49.4738 261.799 27.9645 265.507 6.61947" stroke="white" stroke-width="1.41176" stroke-miterlimit="10"/>
<path opacity="0.54" d="M31.8069 240.319C26.3752 233.528 27.5042 223.326 32.2996 216.022C32.7266 215.369 33.1864 214.741 33.6668 214.137C38.614 207.963 45.7208 204.042 53.0698 200.942C54.4781 200.347 55.8986 199.784 57.3191 199.238C63.9908 196.676 70.8718 194.357 77.0753 190.855C79.0665 189.73 80.988 188.486 82.8026 187.077C95.218 177.47 101.171 161.68 103.766 146.083C103.955 144.95 104.127 143.817 104.283 142.688C106.586 125.994 106.328 108.997 109.941 92.9276C111.895 84.2278 115.294 75.0764 122.923 70.2811C132.074 64.5291 144.259 66.9022 153.961 71.6154C160.563 74.8219 166.68 79.0055 173.147 82.3967C176.185 83.9856 179.297 85.402 182.573 86.4572C203.417 93.1698 227.18 83.4026 241.817 66.9391C256.453 50.4756 263.379 28.5558 267.091 6.84537" stroke="white" stroke-width="1.41176" stroke-miterlimit="10"/>
<path opacity="0.54" d="M32.7884 242.511C27.3567 235.733 28.4077 225.555 33.1333 218.19C33.5561 217.533 34.0036 216.896 34.484 216.289C39.3738 210.052 46.4313 206.037 53.7557 202.851C55.1598 202.239 56.5763 201.66 57.9886 201.098C64.6356 198.458 71.496 196.073 77.6791 192.538C79.6662 191.405 81.5753 190.152 83.39 188.74C95.7766 179.084 101.668 163.298 104.144 147.672C104.324 146.534 104.485 145.401 104.632 144.268C106.784 127.55 106.139 110.524 109.452 94.2002C111.267 85.2623 114.683 75.8523 122.414 70.9215C131.688 65.0053 144.095 67.4769 153.932 72.3707C160.629 75.7004 166.82 80.0482 173.381 83.579C176.46 85.2377 179.621 86.7157 182.951 87.8242C204.128 94.8777 228.355 84.9832 243.205 68.2323C258.055 51.4773 264.997 29.151 268.709 7.07519" stroke="white" stroke-width="1.41176" stroke-miterlimit="10"/>
<path opacity="0.54" d="M33.7695 244.703C27.8492 237.33 29.5366 225.945 35.2927 218.44C41.0488 210.939 49.9005 206.542 58.6495 202.953C67.3985 199.365 76.5335 196.232 83.9688 190.394C97.2217 179.982 102.97 162.579 104.965 145.844C106.964 129.106 105.926 112.051 108.947 95.4686C110.618 86.2926 114.059 76.628 121.888 71.5617C131.286 65.4812 143.915 68.0514 153.891 73.13C163.868 78.2086 172.724 85.5536 183.308 89.1952C204.817 96.5935 229.508 86.5717 244.572 69.5294C259.635 52.487 266.59 29.7502 270.306 7.30892" stroke="white" stroke-width="1.41176" stroke-miterlimit="10"/>
</g>
<g opacity="0.54">
<path opacity="0.54" d="M298.451 230.675C304.136 223.179 300.655 211.599 293.324 205.709C285.993 199.815 276.119 198.317 266.726 197.783C257.333 197.245 247.676 197.41 238.874 194.098C220.657 187.24 210.982 167.752 203.542 149.765C196.103 131.778 187.817 112.06 170.468 103.227C156.865 96.3038 140.68 97.7404 125.714 94.7455C99.5888 89.5196 76.9707 69.4234 68.7152 44.0882" stroke="white" stroke-width="1.41176" stroke-miterlimit="10"/>
<path opacity="0.54" d="M297.413 232.993C303.099 225.51 299.697 213.956 292.444 208.001C291.797 207.467 291.124 206.972 290.438 206.504C283.433 201.764 274.531 200.379 266.01 199.798C264.365 199.685 262.712 199.594 261.058 199.503C253.293 199.077 245.476 198.634 238.245 195.87C235.901 194.975 233.696 193.869 231.621 192.584C217.619 183.925 209.511 167.127 203.161 151.432C202.701 150.291 202.236 149.145 201.767 147.994C194.827 130.967 186.728 113.319 171.007 104.56C166.51 102.055 161.731 100.336 156.631 99.2687C150.611 98.0056 144.278 97.654 138.067 97.2417C133.827 96.9595 129.621 96.6427 125.484 95.9873C123.54 95.6791 121.608 95.2885 119.694 94.811C107.506 91.7771 96.1037 85.2056 86.9628 76.3815C77.8001 67.5357 70.8597 56.4719 67.0228 44.3273" stroke="white" stroke-width="1.41176" stroke-miterlimit="10"/>
<path opacity="0.54" d="M296.376 235.311C302.066 227.836 298.741 216.312 291.567 210.292C290.924 209.754 290.26 209.251 289.579 208.777C282.638 203.977 273.784 202.492 265.29 201.811C263.649 201.681 262.004 201.572 260.355 201.464C252.616 200.956 244.816 200.444 237.611 197.644C235.275 196.737 233.075 195.626 231.004 194.332C217.033 185.617 208.99 168.824 202.77 153.103C202.318 151.961 201.863 150.811 201.407 149.661C194.627 132.611 186.728 115.119 171.527 105.9C167.087 103.205 162.382 101.152 157.178 99.9408C151.027 98.5084 144.46 98.2567 138.106 98.0353C133.77 97.8834 129.481 97.7358 125.25 97.2323C123.257 96.9936 121.282 96.6724 119.312 96.2514C106.772 93.5777 94.8794 86.8717 85.5128 77.7394C76.1244 68.5898 69.171 57.0919 65.3341 44.5611" stroke="white" stroke-width="1.41176" stroke-miterlimit="10"/>
<path opacity="0.54" d="M295.343 237.629C301.033 230.168 297.791 218.67 290.69 212.589C290.056 212.046 289.401 211.534 288.724 211.057C281.844 206.191 273.042 204.607 264.573 203.83C262.941 203.682 261.296 203.552 259.656 203.426C251.943 202.836 244.165 202.254 236.981 199.42C234.655 198.504 232.463 197.384 230.397 196.086C216.46 187.319 208.478 170.53 202.388 154.778C201.945 153.633 201.502 152.482 201.055 151.332C194.436 134.257 186.732 116.908 172.061 107.242C167.673 104.351 163.046 101.973 157.733 100.618C151.453 99.0124 144.651 98.8649 138.154 98.8388C133.718 98.8171 129.351 98.8432 125.024 98.4872C122.988 98.3223 120.961 98.0662 118.939 97.7016C106.047 95.3882 93.6641 88.552 84.0717 79.1115C74.4576 69.6537 67.4912 57.7261 63.6499 44.809" stroke="white" stroke-width="1.41176" stroke-miterlimit="10"/>
<path opacity="0.54" d="M294.305 239.951C299.996 232.498 296.831 221.031 289.813 214.885C289.184 214.334 288.537 213.822 287.868 213.335C281.054 208.405 272.299 206.725 263.857 205.852C262.229 205.683 260.593 205.54 258.952 205.397C251.265 204.724 243.505 204.069 236.343 201.204C234.025 200.275 231.838 199.151 229.78 197.844C215.873 189.025 207.961 172.236 201.993 156.458C201.559 155.312 201.125 154.158 200.691 153.003C194.232 135.906 186.727 118.67 172.582 108.587C168.25 105.497 163.693 102.793 158.276 101.3C151.861 99.5203 144.829 99.4769 138.188 99.6418C133.657 99.7547 129.208 99.9457 124.781 99.7417C122.701 99.6462 120.622 99.4552 118.543 99.1514C105.301 97.2025 92.4269 90.2274 82.6088 80.4831C72.769 70.7214 65.7896 58.3599 61.944 45.0564" stroke="white" stroke-width="1.41176" stroke-miterlimit="10"/>
<path opacity="0.54" d="M293.268 242.269C298.963 234.829 295.877 223.383 288.936 217.176C288.316 216.621 287.673 216.1 287.009 215.61C280.26 210.614 271.553 208.838 263.137 207.866C261.513 207.68 259.881 207.519 258.249 207.358C250.589 206.603 242.845 205.878 235.71 202.979C233.4 202.041 231.222 200.909 229.164 199.593C215.288 190.717 207.44 173.937 201.602 158.129C201.177 156.979 200.756 155.829 200.331 154.67C194.033 137.551 186.732 120.406 173.107 109.924C168.823 106.63 164.348 103.609 158.827 101.968C152.282 100.019 145.016 100.076 138.228 100.432C133.596 100.675 129.065 101.035 124.546 100.983C122.42 100.957 120.297 100.835 118.162 100.588C104.567 98.9992 91.2032 91.8939 81.1594 81.8415C71.0982 71.7716 64.1014 58.9804 60.2514 45.2906" stroke="white" stroke-width="1.41176" stroke-miterlimit="10"/>
<path opacity="0.54" d="M292.231 244.586C297.925 237.156 294.922 225.74 288.055 219.468C287.443 218.908 286.805 218.379 286.15 217.884C279.461 212.827 270.806 210.948 262.421 209.885C260.802 209.681 259.178 209.498 257.551 209.32C249.916 208.487 242.194 207.688 235.08 204.754C232.78 203.804 230.605 202.662 228.556 201.343C214.71 192.414 206.928 175.634 201.22 159.8C200.804 158.65 200.391 157.495 199.979 156.337C193.842 139.196 186.745 122.121 173.641 111.265C169.409 107.763 165.012 104.425 159.383 102.645C152.707 100.523 145.207 100.683 138.275 101.235C133.548 101.608 128.935 102.137 124.321 102.237C122.15 102.285 119.976 102.229 117.784 102.038C103.838 100.809 89.9835 93.5694 79.714 83.2131C69.4271 72.8394 62.4173 59.6141 58.563 45.538" stroke="white" stroke-width="1.41176" stroke-miterlimit="10"/>
<path opacity="0.54" d="M291.198 246.904C296.897 239.487 293.967 228.097 287.183 221.764C286.575 221.2 285.946 220.666 285.295 220.163C278.671 215.041 270.064 213.066 261.704 211.903C260.094 211.682 258.471 211.482 256.852 211.287C249.239 210.371 241.539 209.498 234.451 206.534C232.159 205.575 229.989 204.424 227.949 203.096C214.133 194.116 206.416 177.34 200.838 161.476C200.435 160.321 200.031 159.167 199.627 158.008C193.651 140.846 186.771 123.818 174.175 112.607C169.995 108.887 165.676 105.245 159.938 103.318C153.133 101.022 145.398 101.287 138.323 102.029C133.496 102.533 128.804 103.231 124.091 103.483C121.873 103.6 119.655 103.613 117.406 103.479C103.109 102.615 88.7638 95.2406 78.2686 84.5761C67.756 73.8943 60.7332 60.2392 56.8789 45.7769" stroke="white" stroke-width="1.41176" stroke-miterlimit="10"/>
<path opacity="0.54" d="M290.16 249.226C295.859 241.821 293.012 230.458 286.302 224.06C285.703 223.487 285.078 222.949 284.435 222.441C277.872 217.255 269.322 215.18 260.984 213.921C259.378 213.678 257.763 213.461 256.149 213.248C248.561 212.25 240.879 211.308 233.817 208.309C231.53 207.341 229.372 206.182 227.332 204.85C213.551 195.813 205.895 179.041 200.448 163.151C200.053 161.996 199.658 160.837 199.267 159.674C193.455 142.49 186.793 125.498 174.7 113.948C170.572 110.007 166.327 106.061 160.49 103.995C153.554 101.53 145.584 101.894 138.366 102.827C133.444 103.461 128.67 104.334 123.861 104.737C121.599 104.924 119.329 105.006 117.029 104.928C102.38 104.425 87.5484 96.9158 76.8232 85.9475C66.085 74.9618 59.0491 60.8684 55.1904 46.0241" stroke="white" stroke-width="1.41176" stroke-miterlimit="10"/>
<path opacity="0.54" d="M289.123 251.544C294.827 244.148 292.053 232.815 285.425 226.352C284.831 225.775 284.214 225.228 283.581 224.716C277.083 219.468 268.58 217.293 260.268 215.939C258.666 215.679 257.056 215.444 255.446 215.214C247.885 214.134 240.224 213.122 233.184 210.088C230.905 209.107 228.752 207.944 226.721 206.603C212.97 197.514 205.379 180.747 200.057 164.826C199.671 163.672 199.289 162.508 198.907 161.345C193.256 144.14 186.823 127.16 175.226 115.293C171.154 111.126 166.983 106.881 161.037 104.672C153.971 102.033 145.767 102.497 138.401 103.626C133.38 104.394 128.527 105.431 123.618 105.987C121.313 106.247 118.991 106.395 116.634 106.373C101.634 106.234 86.3117 98.5909 75.3608 87.3144C64.3968 76.0249 57.3436 61.4975 53.485 46.2668" stroke="white" stroke-width="1.41176" stroke-miterlimit="10"/>
<path opacity="0.54" d="M288.086 253.862C293.789 246.479 291.098 235.167 284.548 228.648C283.962 228.067 283.354 227.515 282.721 226.994C276.284 221.682 267.833 219.407 259.547 217.958C257.954 217.68 256.348 217.428 254.742 217.181C247.207 216.022 239.564 214.932 232.55 211.868C230.28 210.878 228.135 209.706 226.108 208.357C212.388 199.216 204.862 182.453 199.671 166.502C199.293 165.343 198.92 164.18 198.551 163.016C193.06 145.789 186.866 128.805 175.755 116.634C171.74 112.237 167.643 107.702 161.588 105.349C154.391 102.537 145.953 103.105 138.444 104.429C133.323 105.327 128.392 106.534 123.387 107.242C121.035 107.571 118.669 107.788 116.256 107.823C100.904 108.045 85.0917 100.267 73.9151 88.6819C62.7254 77.0842 55.6592 62.127 51.7962 46.5101" stroke="white" stroke-width="1.41176" stroke-miterlimit="10"/>
<path opacity="0.54" d="M287.052 256.18C292.76 248.805 290.147 237.524 283.671 230.94C283.094 230.35 282.491 229.794 281.866 229.269C275.494 223.891 267.091 221.521 258.835 219.976C257.247 219.681 255.645 219.407 254.048 219.143C246.539 217.901 238.913 216.742 231.92 213.643C229.659 212.641 227.519 211.464 225.496 210.106C211.807 200.908 204.35 184.15 199.284 168.173C198.915 167.014 198.555 165.846 198.195 164.679C192.865 147.43 186.923 130.433 176.284 117.971C172.33 113.34 168.302 108.513 162.143 106.018C154.817 103.036 146.144 103.704 138.492 105.219C133.275 106.248 128.262 107.624 123.162 108.483C120.766 108.887 118.348 109.169 115.878 109.26C100.175 109.842 83.872 101.929 72.4697 90.0405C61.0543 78.139 53.975 62.7478 50.1077 46.7446" stroke="white" stroke-width="1.41176" stroke-miterlimit="10"/>
<path opacity="0.54" d="M286.015 258.502C291.723 251.141 289.188 239.886 282.794 233.236C282.221 232.642 281.627 232.078 281.006 231.544C274.699 226.101 266.344 223.631 258.114 221.99C256.53 221.674 254.937 221.387 253.344 221.105C245.861 219.781 238.257 218.553 231.286 215.419C229.033 214.408 226.898 213.218 224.884 211.855C211.225 202.606 203.833 185.852 198.898 169.844C198.538 168.681 198.186 167.513 197.839 166.346C192.669 149.071 186.992 132.048 176.814 119.308C172.92 114.439 168.957 109.33 162.694 106.691C155.237 103.535 146.331 104.308 138.531 106.014C133.214 107.173 128.118 108.722 122.923 109.729C120.479 110.202 118.014 110.554 115.492 110.701C99.4366 111.648 82.6434 103.6 71.0154 91.4038C59.3743 79.1941 52.282 63.3732 48.4147 46.9837" stroke="white" stroke-width="1.41176" stroke-miterlimit="10"/>
<path opacity="0.54" d="M284.978 260.82C290.69 253.467 288.233 242.243 281.913 235.528C281.349 234.929 280.759 234.36 280.147 233.818C273.901 228.314 265.598 225.745 257.394 224.008C255.814 223.674 254.23 223.366 252.641 223.071C245.184 221.665 237.597 220.362 230.653 217.198C228.409 216.178 226.282 214.98 224.272 213.609C210.648 204.307 203.317 187.553 198.512 171.519C198.164 170.356 197.822 169.184 197.483 168.017C192.474 150.72 187.07 133.662 177.339 120.654C173.515 115.541 169.613 110.15 163.241 107.368C155.654 104.039 146.513 104.915 138.57 106.816C133.158 108.11 127.98 109.824 122.689 110.983C120.201 111.526 117.688 111.943 115.11 112.151C98.7032 113.457 81.4196 105.276 69.5658 92.7751C57.6991 80.2616 50.5937 64.0067 46.7221 47.2309" stroke="white" stroke-width="1.41176" stroke-miterlimit="10"/>
<path opacity="0.54" d="M283.945 263.137C289.657 255.798 287.282 244.599 281.041 237.824C280.485 237.221 279.899 236.643 279.296 236.097C273.115 230.528 264.86 227.858 256.682 226.027C255.111 225.675 253.527 225.35 251.942 225.033C244.507 223.548 236.942 222.172 230.023 218.973C227.788 217.94 225.665 216.738 223.66 215.362C210.066 206.009 202.8 189.259 198.121 173.195C197.782 172.027 197.448 170.855 197.123 169.688C192.274 152.369 187.153 135.264 177.864 121.995C174.11 116.634 170.268 110.97 163.792 108.045C156.075 104.546 146.704 105.523 138.613 107.615C133.101 109.039 127.845 110.922 122.454 112.233C119.923 112.85 117.358 113.331 114.724 113.596C97.9652 115.263 80.1911 106.951 68.1116 94.1423C56.0191 81.3206 48.9008 64.636 45.0248 47.4739" stroke="white" stroke-width="1.41176" stroke-miterlimit="10"/>
<path opacity="0.54" d="M282.907 265.455C288.624 258.124 286.323 246.956 280.164 240.116C279.613 239.504 279.035 238.922 278.436 238.371C272.316 232.737 264.113 229.972 255.966 228.04C254.399 227.672 252.824 227.329 251.244 226.994C243.834 225.428 236.291 223.982 229.394 220.749C227.167 219.707 225.053 218.496 223.052 217.111C209.489 207.701 202.288 190.956 197.739 174.866C197.409 173.698 197.088 172.526 196.771 171.35C192.083 154.01 187.261 136.848 178.398 123.332C174.722 117.724 170.932 111.782 164.348 108.713C156.5 105.041 146.895 106.122 138.661 108.405C133.053 109.959 127.715 112.012 122.228 113.474C119.65 114.16 117.041 114.712 114.35 115.033C97.2403 117.064 78.9757 108.613 66.6705 95.5007C54.3524 82.3752 47.221 65.2565 43.3407 47.7081" stroke="white" stroke-width="1.41176" stroke-miterlimit="10"/>
<path opacity="0.54" d="M281.87 267.777C287.586 260.459 285.368 249.313 279.283 242.412C278.741 241.795 278.172 241.209 277.577 240.649C271.522 234.95 263.367 232.09 255.246 230.063C253.683 229.672 252.112 229.312 250.541 228.961C243.158 227.311 235.631 225.792 228.76 222.528C226.542 221.473 224.433 220.258 222.441 218.865C208.907 209.403 201.772 192.662 197.353 176.541C197.032 175.369 196.719 174.197 196.415 173.021C191.888 155.659 187.37 138.441 178.928 124.673C175.334 118.813 171.588 112.602 164.899 109.39C156.922 105.544 147.082 106.729 138.701 109.203C132.993 110.888 127.576 113.114 121.994 114.724C119.373 115.484 116.712 116.1 113.969 116.478C96.5071 118.87 77.752 110.289 65.2212 96.8679C52.6773 83.4342 45.5329 65.8858 41.6482 47.9511" stroke="white" stroke-width="1.41176" stroke-miterlimit="10"/>
<path opacity="0.54" d="M280.833 270.095C286.549 262.786 284.414 251.67 278.407 244.708C277.869 244.087 277.309 243.492 276.718 242.928C270.729 237.168 262.621 234.204 254.526 232.081C252.967 231.673 251.405 231.296 249.838 230.927C242.481 229.195 234.972 227.606 228.127 224.308C225.918 223.244 223.813 222.02 221.825 220.618C208.322 211.104 201.251 194.367 196.963 178.217C196.65 177.045 196.351 175.868 196.056 174.692C191.689 157.309 187.492 140.029 179.453 126.018C175.946 119.903 172.244 113.422 165.451 110.072C157.343 106.057 147.269 107.341 138.744 110.011C132.941 111.825 127.442 114.221 121.76 115.983C119.091 116.812 116.382 117.498 113.583 117.932C95.7696 120.688 76.5241 111.968 63.7675 98.2439C50.9979 84.5064 43.8406 66.5239 39.9559 48.2029" stroke="white" stroke-width="1.41176" stroke-miterlimit="10"/>
<path opacity="0.54" d="M279.8 272.413C285.521 265.117 283.459 254.027 277.53 247C277 246.37 276.445 245.771 275.863 245.203C269.934 239.378 261.878 236.318 253.809 234.1C252.26 233.675 250.697 233.275 249.139 232.893C241.808 231.079 234.321 229.421 227.493 226.087C225.293 225.015 223.196 223.778 221.213 222.372C207.744 212.801 200.735 196.069 196.576 179.892C196.273 178.716 195.982 177.54 195.7 176.363C191.494 158.958 187.622 141.609 179.983 127.36C176.567 120.988 172.904 114.243 166.002 110.745C157.764 106.556 147.456 107.941 138.788 110.805C132.885 112.754 127.303 115.315 121.53 117.233C118.817 118.132 116.061 118.887 113.205 119.378C95.0361 122.494 75.3045 113.644 62.3222 99.6069C49.3269 85.5656 42.1565 67.1491 38.2675 48.4418" stroke="white" stroke-width="1.41176" stroke-miterlimit="10"/>
<path opacity="0.54" d="M278.763 274.731C284.483 267.443 282.504 256.384 276.653 249.292C276.132 248.658 275.581 248.055 275.008 247.477C269.144 241.587 261.136 238.427 253.093 236.114C251.548 235.671 249.994 235.255 248.436 234.851C241.131 232.958 233.661 231.222 226.86 227.854C224.668 226.769 222.576 225.528 220.601 224.117C207.163 214.494 200.222 197.766 196.186 181.559C195.895 180.383 195.609 179.202 195.335 178.021C191.29 160.595 187.757 143.181 180.504 128.692C177.188 122.064 173.555 115.05 166.545 111.413C158.177 107.051 147.634 108.54 138.823 111.595C132.82 113.674 127.16 116.405 121.291 118.475C118.531 119.447 115.727 120.268 112.815 120.814C94.2939 124.291 74.0718 115.306 60.8638 100.966C47.6428 86.6161 40.4551 67.7699 36.566 48.6763" stroke="white" stroke-width="1.41176" stroke-miterlimit="10"/>
<path opacity="0.54" d="M277.725 277.053C283.45 269.778 281.549 258.745 275.776 251.588C275.259 250.95 274.717 250.338 274.148 249.756C268.345 243.805 260.389 240.546 252.377 238.132C250.836 237.668 249.286 237.238 247.737 236.817C240.458 234.842 233.005 233.037 226.23 229.634C224.047 228.54 221.963 227.29 219.993 225.871C206.585 216.196 199.71 199.468 195.803 183.234C195.521 182.054 195.248 180.873 194.983 179.693C191.103 162.244 187.912 144.765 181.037 130.038C177.821 123.154 174.214 115.875 167.104 112.09C158.606 107.559 147.828 109.147 138.87 112.398C132.771 114.608 127.029 117.507 121.061 119.729C118.257 120.771 115.401 121.661 112.436 122.264C93.5641 126.105 72.8515 116.986 59.4179 102.337C45.9712 87.6838 38.7704 68.3992 34.877 48.9237" stroke="white" stroke-width="1.41176" stroke-miterlimit="10"/>
<path opacity="0.54" d="M276.688 279.371C282.413 272.105 280.59 261.098 274.895 253.884C274.387 253.242 273.849 252.621 273.289 252.035C267.551 246.019 259.643 242.66 251.656 240.155C250.12 239.673 248.579 239.222 247.034 238.783C239.777 236.726 232.35 234.851 225.596 231.413C223.422 230.307 221.343 229.052 219.377 227.624C205.999 217.893 199.189 201.174 195.413 184.91C195.14 183.729 194.875 182.544 194.623 181.364C190.903 163.889 188.069 146.345 181.563 131.379C178.455 124.235 174.87 116.691 167.651 112.767C159.023 108.062 148.011 109.755 138.909 113.197C132.711 115.537 126.89 118.61 120.827 120.98C117.979 122.091 115.076 123.05 112.055 123.71C92.8309 127.911 71.6322 118.657 57.9685 103.705C44.2961 88.7431 37.0823 69.0288 33.1845 49.1669" stroke="white" stroke-width="1.41176" stroke-miterlimit="10"/>
<path opacity="0.54" d="M275.654 281.689C281.384 274.436 279.639 263.454 274.022 256.175C273.519 255.524 272.989 254.904 272.438 254.309C266.765 248.228 258.905 244.773 250.944 242.169C249.416 241.67 247.875 241.201 246.339 240.745C239.108 238.605 231.699 236.661 224.971 233.188C222.805 232.073 220.73 230.81 218.773 229.373C205.426 219.59 198.681 202.87 195.035 186.581C194.77 185.396 194.518 184.211 194.275 183.03C190.716 165.534 188.251 147.925 182.1 132.72C179.105 125.32 175.538 117.511 168.211 113.44C159.448 108.561 148.206 110.358 138.961 113.991C132.667 116.465 126.764 119.703 120.601 122.225C117.706 123.41 114.754 124.434 111.677 125.15C92.1013 129.712 70.4121 120.328 56.5227 105.067C42.6246 89.8018 35.3977 69.6535 31.5 49.4053" stroke="white" stroke-width="1.41176" stroke-miterlimit="10"/>
<path opacity="0.54" d="M274.617 284.006C280.347 276.762 278.684 265.811 273.142 258.467C272.647 257.811 272.126 257.182 271.575 256.583C265.963 250.437 258.154 246.882 250.22 244.187C248.696 243.67 247.164 243.18 245.632 242.711C238.427 240.493 231.035 238.47 224.333 234.968C222.176 233.839 220.11 232.572 218.157 231.126C204.845 221.291 198.16 204.576 194.645 188.256C194.389 187.071 194.146 185.881 193.916 184.697C190.517 167.179 188.421 149.509 182.626 134.057C179.753 126.396 176.194 118.323 168.763 114.112C159.869 109.064 148.393 110.961 139 114.785C132.607 117.389 126.626 120.797 120.367 123.47C117.428 124.725 114.429 125.814 111.295 126.591C91.3683 131.517 69.1886 121.995 55.0734 106.43C40.954 90.8562 33.7098 70.2782 29.8077 49.6437" stroke="white" stroke-width="1.41176" stroke-miterlimit="10"/>
<path opacity="0.54" d="M273.58 286.329C279.314 279.097 277.725 268.173 272.265 260.768C271.779 260.108 271.262 259.47 270.72 258.867C265.173 252.66 257.412 249.005 249.508 246.21C247.989 245.676 246.461 245.168 244.933 244.678C237.754 242.377 230.384 240.285 223.704 236.748C221.555 235.61 219.494 234.334 217.545 232.88C204.263 222.988 197.644 206.282 194.258 189.932C194.011 188.742 193.781 187.553 193.56 186.368C190.322 168.828 188.607 151.098 183.151 135.403C180.399 127.486 176.844 119.143 169.309 114.79C160.286 109.568 148.575 111.569 139.039 115.589C132.55 118.323 126.487 121.9 120.132 124.725C117.146 126.053 114.099 127.208 110.909 128.041C90.6302 133.328 67.9601 123.675 53.6192 107.802C39.2741 91.9244 32.0168 70.9124 28.1104 49.8916" stroke="white" stroke-width="1.41176" stroke-miterlimit="10"/>
<path opacity="0.54" d="M272.543 288.646C278.276 281.424 276.77 270.529 271.384 263.059C270.902 262.391 270.394 261.753 269.856 261.136C264.369 254.865 256.661 251.11 248.783 248.219C247.272 247.664 245.749 247.143 244.225 246.635C237.072 244.252 229.72 242.091 223.061 238.518C220.922 237.373 218.869 236.083 216.924 234.629C203.673 224.685 197.119 207.979 193.859 191.603C193.62 190.413 193.399 189.224 193.191 188.035C190.113 170.473 188.785 152.686 183.668 136.739C181.046 128.562 177.491 119.959 169.848 115.463C160.694 110.067 148.749 112.172 139.07 116.383C132.481 119.247 126.335 122.998 119.885 125.971C116.855 127.368 113.756 128.592 110.514 129.482C89.8836 135.133 66.723 125.341 52.1522 109.16C37.5813 92.979 30.3111 71.5329 26.4003 50.1258" stroke="white" stroke-width="1.41176" stroke-miterlimit="10"/>
<path opacity="0.54" d="M271.509 290.964C277.247 283.755 275.815 272.882 270.511 265.351C270.038 264.678 269.535 264.032 269.005 263.411C263.584 257.074 255.923 253.224 248.071 250.238C246.565 249.665 245.046 249.122 243.531 248.601C236.404 246.136 229.069 243.901 222.436 240.298C220.305 239.139 218.257 237.846 216.321 236.383C203.1 226.387 196.611 209.685 193.481 193.278C193.256 192.084 193.043 190.895 192.843 189.702C189.926 172.118 188.989 154.279 184.206 138.081C181.714 129.647 178.159 120.775 170.412 116.135C161.128 110.571 148.948 112.776 139.126 117.177C132.442 120.172 126.213 124.091 119.668 127.217C116.595 128.684 113.448 129.977 110.149 130.923C89.1674 136.935 65.5163 127.008 50.7197 110.523C35.9232 94.0339 28.6399 72.158 24.7248 50.3647" stroke="white" stroke-width="1.41176" stroke-miterlimit="10"/>
<path opacity="0.54" d="M270.472 293.282C276.21 286.081 274.86 275.239 269.634 267.643C269.165 266.966 268.671 266.31 268.15 265.685C262.789 259.287 255.181 255.338 247.355 252.252C245.853 251.661 244.343 251.101 242.832 250.559C235.731 248.011 228.417 245.706 221.807 242.069C219.684 240.901 217.64 239.599 215.709 238.128C202.518 228.08 196.098 211.378 193.095 194.945C192.878 193.751 192.674 192.557 192.487 191.364C189.731 173.759 189.193 155.872 184.735 139.413C182.383 130.724 178.815 121.587 170.963 116.804C161.549 111.066 149.135 113.37 139.165 117.971C132.381 121.101 126.074 125.185 119.429 128.462C116.308 130.003 113.114 131.362 109.758 132.364C88.4251 138.736 64.2836 128.679 49.2613 111.886C34.239 95.0928 26.9427 72.783 23.0233 50.6033" stroke="white" stroke-width="1.41176" stroke-miterlimit="10"/>
<path opacity="0.54" d="M269.434 295.604C275.177 288.416 273.905 277.6 268.753 269.943C268.293 269.262 267.802 268.602 267.286 267.968C261.99 261.505 254.429 257.456 246.63 254.279C245.132 253.671 243.626 253.089 242.124 252.534C235.045 249.908 227.753 247.529 221.169 243.857C219.055 242.677 217.019 241.37 215.092 239.89C201.936 229.786 195.577 213.092 192.704 196.629C192.496 195.431 192.305 194.237 192.127 193.044C189.531 175.417 189.396 157.487 185.26 140.767C183.046 131.822 179.47 122.416 171.51 117.49C161.965 111.578 149.317 113.987 139.204 118.779C132.32 122.038 125.935 126.292 119.194 129.721C116.03 131.331 112.783 132.759 109.376 133.818C87.6912 140.555 63.0592 130.359 47.8112 113.262C32.5632 96.1607 25.2539 73.4211 21.3345 50.8551" stroke="white" stroke-width="1.41176" stroke-miterlimit="10"/>
<path opacity="0.54" d="M268.401 297.922C274.144 290.743 272.95 279.957 267.881 272.235C267.429 271.545 266.943 270.881 266.435 270.243C261.205 263.715 253.692 259.57 245.922 256.293C244.434 255.663 242.932 255.069 241.43 254.491C234.377 251.783 227.102 249.33 220.544 245.628C218.439 244.439 216.407 243.124 214.489 241.635C201.363 231.478 195.07 214.785 192.327 198.296C192.127 197.098 191.945 195.9 191.78 194.706C189.345 177.058 189.618 159.088 185.799 142.1C183.732 132.902 180.139 123.228 172.074 118.158C162.399 112.077 149.517 114.586 139.26 119.569C132.281 122.958 125.814 127.381 118.977 130.967C115.765 132.646 112.475 134.144 109.012 135.259C86.9753 142.356 61.8528 132.03 46.3791 114.625C30.9054 97.2196 23.5831 74.046 19.6594 51.0937" stroke="white" stroke-width="1.41176" stroke-miterlimit="10"/>
<path opacity="0.54" d="M267.364 300.239C273.106 293.073 271.995 282.313 266.999 274.527C266.552 273.832 266.079 273.159 265.571 272.517C260.402 265.924 252.941 261.679 245.197 258.311C243.713 257.664 242.215 257.052 240.722 256.457C233.695 253.667 226.442 251.145 219.905 247.408C217.805 246.21 215.786 244.886 213.868 243.393C200.773 233.184 194.544 216.495 191.927 199.975C191.736 198.773 191.567 197.575 191.41 196.377C189.136 178.703 189.817 160.703 186.315 143.445C184.396 133.996 180.785 124.048 172.612 118.835C162.807 112.58 149.69 115.193 139.29 120.367C132.211 123.887 125.666 128.484 118.73 132.217C115.474 133.97 112.132 135.533 108.612 136.705C86.2241 144.161 60.6112 133.701 44.9118 115.992C29.2124 98.2786 21.8727 74.6753 17.949 51.3368" stroke="white" stroke-width="1.41176" stroke-miterlimit="10"/>
<path opacity="0.54" d="M266.326 302.558C272.585 294.762 270.801 282.726 264.716 274.792C258.631 266.862 249.273 262.213 240.023 258.42C230.774 254.626 221.116 251.314 213.256 245.142C199.245 234.135 193.168 215.736 191.059 198.044C188.945 180.348 190.043 162.318 186.849 144.787C185.082 135.086 181.445 124.868 173.167 119.512C163.232 113.084 149.881 115.801 139.334 121.17C128.786 126.54 119.424 134.305 108.234 138.155C85.4948 145.976 59.3914 135.381 43.4663 117.364C27.5413 99.3467 20.1885 75.3093 16.2604 51.5844" stroke="white" stroke-width="1.41176" stroke-miterlimit="10"/>
</g>
</g>
</svg>
