<svg width="42" height="32" viewBox="0 0 42 32" fill="none" xmlns="http://www.w3.org/2000/svg">
<g clip-path="url(#clip0_0_221)">
<path d="M7.48312 31.8411V29.7231C7.48312 28.911 6.9888 28.3817 6.14153 28.3817C5.71797 28.3817 5.25904 28.5229 4.94129 28.9818C4.69429 28.5935 4.34133 28.3817 3.8118 28.3817C3.45867 28.3817 3.10587 28.4875 2.82334 28.8758V28.4523H2.08203V31.8411H2.82334V29.9701C2.82334 29.3701 3.14109 29.0876 3.6354 29.0876C4.12939 29.0876 4.3767 29.4054 4.3767 29.9701V31.8411H5.11801V29.9701C5.11801 29.3701 5.47082 29.0876 5.92975 29.0876C6.42406 29.0876 6.67106 29.4054 6.67106 29.9701V31.8411H7.48312ZM18.4614 28.4523H17.2613V27.4286H16.52V28.4523H15.8493V29.1228H16.5198V30.6762C16.5198 31.4529 16.8376 31.9116 17.6848 31.9116C18.0026 31.9116 18.3554 31.8058 18.6027 31.6646L18.3908 31.0292C18.179 31.1703 17.932 31.2057 17.7554 31.2057C17.4025 31.2057 17.2613 30.9939 17.2613 30.6408V29.1228H18.4614V28.4523ZM24.7449 28.3815C24.3214 28.3815 24.039 28.5935 23.8625 28.8758V28.4523H23.1211V31.8411H23.8625V29.9349C23.8625 29.3701 24.1094 29.0524 24.5684 29.0524C24.7096 29.0524 24.8861 29.0878 25.0273 29.123L25.2391 28.4171C25.0979 28.3817 24.8861 28.3817 24.7449 28.3817V28.3815ZM15.2491 28.7346C14.896 28.4875 14.4019 28.3817 13.8723 28.3817C13.0252 28.3817 12.4605 28.8052 12.4605 29.4759C12.4605 30.0408 12.884 30.3584 13.6253 30.4644L13.9783 30.4998C14.3667 30.5702 14.5784 30.6762 14.5784 30.8528C14.5784 31.0997 14.2961 31.2763 13.8018 31.2763C13.3076 31.2763 12.9193 31.0997 12.6721 30.9233L12.3191 31.4881C12.7075 31.7705 13.237 31.9116 13.7664 31.9116C14.7548 31.9116 15.3197 31.4529 15.3197 30.8174C15.3197 30.2173 14.8608 29.8995 14.1547 29.7937L13.8018 29.7583C13.484 29.7229 13.237 29.6525 13.237 29.4407C13.237 29.1936 13.484 29.0524 13.8723 29.0524C14.2961 29.0524 14.7196 29.2288 14.9314 29.3348L15.2491 28.7346ZM34.9468 28.3817C34.5231 28.3817 34.2407 28.5935 34.0642 28.8758V28.4523H33.3229V31.8411H34.0642V29.9349C34.0642 29.3701 34.3113 29.0524 34.7701 29.0524C34.9115 29.0524 35.088 29.0878 35.2292 29.123L35.441 28.4171C35.2998 28.3817 35.088 28.3817 34.9468 28.3817ZM25.4863 30.1467C25.4863 31.1703 26.1922 31.9116 27.2866 31.9116C27.7808 31.9116 28.1337 31.8058 28.4867 31.5235L28.1337 30.9233C27.8514 31.1351 27.569 31.2409 27.2512 31.2409C26.6511 31.2409 26.2276 30.8174 26.2276 30.1467C26.2276 29.5113 26.6511 29.0876 27.2512 29.0524C27.569 29.0524 27.8514 29.1582 28.1337 29.3701L28.4867 28.77C28.1337 28.4875 27.7808 28.3817 27.2866 28.3817C26.1922 28.3817 25.4863 29.123 25.4863 30.1467ZM32.3346 30.1467V28.4523H31.5933V28.8758C31.3461 28.5582 30.9931 28.3817 30.5342 28.3817C29.5811 28.3817 28.8398 29.123 28.8398 30.1467C28.8398 31.1703 29.5811 31.9116 30.5342 31.9116C31.0284 31.9116 31.3815 31.7352 31.5933 31.4175V31.8411H32.3346V30.1467ZM29.6163 30.1467C29.6163 29.5465 30.0047 29.0524 30.64 29.0524C31.2401 29.0524 31.6639 29.5113 31.6639 30.1467C31.6639 30.7468 31.2401 31.2409 30.64 31.2409C30.0047 31.2056 29.6163 30.7468 29.6163 30.1467ZM20.756 28.3817C19.7676 28.3817 19.0615 29.0876 19.0615 30.1467C19.0615 31.2057 19.7674 31.9116 20.7913 31.9116C21.2854 31.9116 21.7797 31.7705 22.1681 31.4529L21.8149 30.9233C21.5326 31.1351 21.1796 31.2763 20.8266 31.2763C20.3677 31.2763 19.9088 31.0645 19.8028 30.4642H22.3092V30.182C22.3446 29.0876 21.7091 28.3817 20.7559 28.3817H20.756ZM20.756 29.017C21.2148 29.017 21.5327 29.2995 21.6032 29.8291H19.8382C19.9088 29.3701 20.2265 29.017 20.756 29.017ZM39.1475 30.1467V27.1108H38.4062V28.8758C38.1591 28.5582 37.8061 28.3817 37.3472 28.3817C36.3941 28.3817 35.6528 29.123 35.6528 30.1467C35.6528 31.1703 36.3941 31.9116 37.3472 31.9116C37.8415 31.9116 38.1944 31.7352 38.4062 31.4175V31.8411H39.1475V30.1467ZM36.4295 30.1467C36.4295 29.5465 36.8176 29.0524 37.4531 29.0524C38.0532 29.0524 38.4768 29.5113 38.4768 30.1467C38.4768 30.7468 38.0532 31.2409 37.4531 31.2409C36.8176 31.2056 36.4295 30.7468 36.4295 30.1467ZM11.6484 30.1467V28.4523H10.9071V28.8758C10.66 28.5582 10.307 28.3817 9.84806 28.3817C8.89498 28.3817 8.15367 29.123 8.15367 30.1467C8.15367 31.1703 8.89498 31.9116 9.84806 31.9116C10.3424 31.9116 10.6953 31.7352 10.9071 31.4175V31.8411H11.6484V30.1467ZM8.89498 30.1467C8.89498 29.5465 9.28332 29.0524 9.91865 29.0524C10.5188 29.0524 10.9425 29.5113 10.9425 30.1467C10.9425 30.7468 10.5188 31.2409 9.91865 31.2409C9.28332 31.2056 8.89498 30.7468 8.89498 30.1467Z" fill="white"/>
<path d="M15.002 2.71802H26.1216V22.6981H15.002V2.71802Z" fill="#FF5F00"/>
<path d="M15.7088 12.7082C15.7088 8.64868 17.615 5.04796 20.5448 2.71807C18.3916 1.02368 15.6736 0 12.7083 0C5.6833 0 0 5.6833 0 12.7082C0 19.7329 5.6833 25.4164 12.7082 25.4164C15.6734 25.4164 18.3915 24.3927 20.5448 22.6981C17.615 20.4036 15.7088 16.7677 15.7088 12.7082Z" fill="#EB001B"/>
<path d="M41.1249 12.7082C41.1249 19.7329 35.4416 25.4164 28.4167 25.4164C25.4515 25.4164 22.7334 24.3927 20.5801 22.6981C23.5453 20.3684 25.4163 16.7677 25.4163 12.7082C25.4163 8.64868 23.5099 5.04796 20.5801 2.71807C22.7332 1.02368 25.4515 0 28.4167 0C35.4416 0 41.125 5.71867 41.125 12.7082H41.1249Z" fill="#F79E1B"/>
</g>
<defs>
<clipPath id="clip0_0_221">
<rect width="41.1658" height="32" fill="white"/>
</clipPath>
</defs>
</svg>
