<svg width="32" height="32" viewBox="0 0 32 32" fill="none" xmlns="http://www.w3.org/2000/svg">
<path fill-rule="evenodd" clip-rule="evenodd" d="M10.2209 29.3337H21.7764C26.2968 29.3337 29.3327 26.1628 29.3327 21.4447V10.556C29.3327 5.83781 26.2968 2.66699 21.7778 2.66699H10.2209C5.70188 2.66699 2.66602 5.83781 2.66602 10.556V21.4447C2.66602 26.1628 5.70188 29.3337 10.2209 29.3337ZM11.3312 14.667C9.49297 14.667 7.99935 13.1714 7.99935 11.3337C7.99935 9.49597 9.49297 8.00033 11.3312 8.00033C13.168 8.00033 14.663 9.49597 14.663 11.3337C14.663 13.1714 13.168 14.667 11.3312 14.667ZM26.4271 19.9123C26.8736 21.0571 26.6416 22.4331 26.1643 23.5669C25.5985 24.9154 24.5152 25.9363 23.1503 26.3822C22.5442 26.5803 21.9087 26.667 21.2745 26.667H10.0375C8.91934 26.667 7.92985 26.3987 7.11869 25.8992C6.61054 25.5855 6.5207 24.8617 6.89746 24.3925C7.52762 23.6082 8.14974 22.8211 8.77722 22.0272C9.97318 20.5081 10.779 20.0677 11.6746 20.4544C12.038 20.614 12.4027 20.8534 12.7781 21.1066C13.7783 21.7864 15.1687 22.7207 17.0002 21.7066C18.2535 21.0046 18.9804 19.8005 19.6135 18.752L19.624 18.7344C19.6689 18.6609 19.7134 18.5873 19.7577 18.5139L19.7577 18.5139C19.9704 18.1619 20.1803 17.8146 20.4178 17.4946C20.7154 17.0942 21.8189 15.8421 23.2481 16.7337C24.1585 17.2951 24.9241 18.0547 25.7433 18.8679C26.0557 19.1789 26.2783 19.5325 26.4271 19.9123Z" fill="white"/>
</svg>
