<svg width="44" height="44" viewBox="0 0 44 44" fill="none" xmlns="http://www.w3.org/2000/svg">
<path fill-rule="evenodd" clip-rule="evenodd" d="M15.4508 5.49976C16.2208 5.49976 16.846 6.11279 16.846 6.86965C16.846 7.62472 16.2227 8.23776 15.4508 8.23776L12.4643 8.23955C9.98568 8.24315 7.96901 10.2225 7.96901 12.6549V16.0634C7.96901 16.8185 7.34201 17.4333 6.57201 17.4333C5.80201 17.4333 5.17685 16.8185 5.17685 16.0634V12.6549C5.17685 8.71416 8.44568 5.50515 12.4625 5.50155L15.449 5.49976H15.4508ZM28.6006 5.50036H31.5211C35.5489 5.50036 38.8233 8.71117 38.8233 12.6609V16.064C38.8233 16.8191 38.1999 17.4339 37.4281 17.4339C36.6581 17.4339 36.0329 16.8191 36.0329 16.064V12.6609C36.0329 10.2213 34.0089 8.23656 31.5211 8.23656H28.6006C27.8306 8.23656 27.2054 7.62532 27.2054 6.87025C27.2054 6.11339 27.8306 5.50036 28.6006 5.50036ZM27.0643 12.3612H16.937C14.6197 12.3846 12.757 14.2417 12.7772 16.5159V18.799C12.7827 19.0651 13.0008 19.2826 13.2722 19.2916H30.7255C30.9987 19.2844 31.2168 19.0669 31.226 18.799V16.5159C31.2278 15.4174 30.7952 14.3621 30.0142 13.5765C29.2387 12.7981 28.1735 12.3612 27.0643 12.3612ZM3.23001 22.0753H40.7712C41.5412 22.0753 42.1663 22.6884 42.1663 23.4452C42.1663 24.2003 41.5412 24.8115 40.7712 24.8115H38.8242V31.3374C38.8242 35.2889 35.548 38.4997 31.522 38.4997H28.6015C27.8297 38.4997 27.2045 37.8867 27.2045 37.1298C27.2045 36.3748 27.8297 35.7617 28.6015 35.7617H31.522C34.0098 35.7617 36.0338 33.7788 36.0338 31.3374V24.8115H31.225V26.6291C31.2433 28.9032 29.3825 30.7621 27.0633 30.7837H16.936C14.6187 30.7621 12.7578 28.9032 12.7762 26.6291V24.8115H7.96734V31.3446C7.96734 33.777 9.98584 35.7563 12.4663 35.7599L15.451 35.7617C16.221 35.7617 16.8462 36.3748 16.8462 37.1298C16.8443 37.8867 16.221 38.4997 15.4492 38.4997L12.4627 38.4979C8.44584 38.4943 5.17517 35.2853 5.17517 31.3446V24.8115H3.23001C2.46001 24.8115 1.83301 24.2003 1.83301 23.4452C1.83301 22.6884 2.46001 22.0753 3.23001 22.0753Z" fill="white"/>
</svg>
