<svg width="28" height="28" viewBox="0 0 28 28" fill="none" xmlns="http://www.w3.org/2000/svg">
<path fill-rule="evenodd" clip-rule="evenodd" d="M22.2496 22.2481C18.6841 25.814 13.4044 26.5844 9.08383 24.5863C8.446 24.3295 7.92307 24.1219 7.42594 24.1219C6.04124 24.1301 4.3177 25.4728 3.42193 24.5781C2.52615 23.6822 3.86981 21.9573 3.86981 20.5642C3.86981 20.067 3.67049 19.5534 3.41372 18.9144C1.41464 14.5945 2.18613 9.31305 5.75164 5.74833C10.3032 1.19509 17.698 1.19509 22.2496 5.74715C26.8094 10.3074 26.8012 17.696 22.2496 22.2481Z" stroke="#246BFD" stroke-width="1.5" stroke-linecap="round" stroke-linejoin="round"/>
<path d="M18.5957 14.4818H18.6062" stroke="#246BFD" stroke-width="2" stroke-linecap="round" stroke-linejoin="round"/>
<path d="M13.9189 14.4818H13.9294" stroke="#246BFD" stroke-width="2" stroke-linecap="round" stroke-linejoin="round"/>
<path d="M9.24117 14.4818H9.25167" stroke="#246BFD" stroke-width="2" stroke-linecap="round" stroke-linejoin="round"/>
</svg>
