<svg width="50" height="50" viewBox="0 0 50 50" fill="none" xmlns="http://www.w3.org/2000/svg">
<path fill-rule="evenodd" clip-rule="evenodd" d="M14.1749 0H35.8498C44.3247 0 49.9997 5.94996 49.9997 14.7999V35.2273C49.9997 44.0522 44.3247 49.9997 35.8498 49.9997H14.1749C5.69996 49.9997 0 44.0522 0 35.2273V14.7999C0 5.94996 5.69996 0 14.1749 0ZM32.5248 32.4998C33.3748 31.6523 33.3748 30.2773 32.5248 29.4273L28.0748 24.9773L32.5248 20.5249C33.3748 19.6774 33.3748 18.2774 32.5248 17.4274C31.6748 16.5749 30.2998 16.5749 29.4248 17.4274L24.9998 21.8749L20.5499 17.4274C19.6749 16.5749 18.2999 16.5749 17.4499 17.4274C16.5999 18.2774 16.5999 19.6774 17.4499 20.5249L21.8999 24.9773L17.4499 29.4023C16.5999 30.2773 16.5999 31.6523 17.4499 32.4998C17.8749 32.9248 18.4499 33.1523 18.9999 33.1523C19.5749 33.1523 20.1249 32.9248 20.5499 32.4998L24.9998 28.0773L29.4498 32.4998C29.8748 32.9523 30.4248 33.1523 30.9748 33.1523C31.5498 33.1523 32.0998 32.9248 32.5248 32.4998Z" fill="white"/>
</svg>
