<svg width="28" height="30" viewBox="0 0 28 30" fill="none" xmlns="http://www.w3.org/2000/svg">
<path fill-rule="evenodd" clip-rule="evenodd" d="M22.9067 29.4737H5.09331C2.28035 29.4737 0 27.2099 0 24.4174V11.5933C0.0258665 10.4936 0.549302 9.46393 1.42507 8.79004L11.0311 1.10081C12.6901 -0.326418 15.1401 -0.370541 16.8501 0.996017L26.6805 8.79004C27.5167 9.4844 28 10.511 28 11.5933V24.4305C28 25.7703 27.463 27.055 26.5074 28.0012C25.5518 28.9473 24.2563 29.4771 22.9067 29.4737ZM14.2148 18.3241L14.1682 18.3235L14.1189 18.3241C13.689 18.324 13.2759 18.1565 12.9673 17.8572C12.6586 17.5579 12.4786 17.1502 12.4652 16.7204V16.7177C12.4793 16.2884 12.6596 15.8814 12.9682 15.5827C13.2768 15.2839 13.6894 15.1169 14.1189 15.1167L14.1656 15.1174L14.2148 15.1167C14.6448 15.1169 15.0578 15.2843 15.3665 15.5837C15.6751 15.883 15.8552 16.2907 15.8685 16.7204V16.7231C15.8545 17.1524 15.6741 17.5594 15.3656 17.8582C15.057 18.1569 14.6444 18.324 14.2148 18.3241ZM11.2147 13.836C12.0117 13.0866 13.0733 12.6836 14.1669 12.7152L14.1684 12.7158C15.2621 12.6844 16.3238 13.0876 17.1209 13.8373C17.9194 14.5883 18.3871 15.6255 18.4213 16.7211C18.4197 17.2401 18.3135 17.7541 18.1093 18.2312C17.905 18.7083 17.6068 19.1394 17.2324 19.4988L17.2263 19.4887C16.9974 19.1425 16.6921 18.8534 16.334 18.6436C16.5896 18.3928 16.7934 18.093 16.9325 17.7629C17.0715 17.4329 17.1436 17.0785 17.1446 16.7204V16.7157C17.12 15.9644 16.8043 15.252 16.2641 14.7293C15.724 14.2065 15.0017 13.9142 14.25 13.9143L14.1675 13.9156L14.0811 13.9143C13.3286 13.9148 12.6059 14.208 12.0656 14.7318C11.5254 15.2556 11.2102 15.969 11.1865 16.7211C11.1875 17.0784 11.2593 17.4326 11.3979 17.7619C11.5365 18.0912 11.739 18.3897 11.9937 18.6403L11.9816 18.647C11.6264 18.8578 11.3241 19.1471 11.098 19.4928L11.0966 19.4914C10.7239 19.1324 10.4272 18.702 10.2241 18.226C10.021 17.75 9.91572 17.238 9.91447 16.7204V16.7137C9.95011 15.6202 10.4177 14.5854 11.2147 13.836ZM14.1675 13.9156L14.1655 13.9157H14.1696L14.1675 13.9156ZM7.36842 16.7204C7.36842 13.1841 10.4117 10.3165 14.1669 10.3171L14.1662 10.3158C17.9208 10.3158 20.9647 13.1827 20.9647 16.7197V16.7231C20.939 19.058 19.6486 21.0896 17.7152 22.1821C17.757 21.8878 17.7783 21.591 17.7789 21.2937V21.2903C17.7742 21.087 17.7512 20.8891 17.7141 20.7175L17.7255 20.7087C18.3354 20.237 18.8298 19.6327 19.1715 18.9416C19.5131 18.2505 19.693 17.4907 19.6974 16.7197C19.6974 13.8427 17.2209 11.5101 14.1662 11.5101C11.1115 11.5101 8.63503 13.8427 8.63503 16.7197V16.7218C8.64004 17.4931 8.82056 18.2532 9.1629 18.9445C9.5051 19.6354 10 20.2394 10.6101 20.7108C10.5722 20.899 10.5507 21.0929 10.5474 21.2944C10.5474 21.5898 10.5686 21.8856 10.6109 22.178L10.5799 22.1618C9.61475 21.6157 8.81008 20.8255 8.24646 19.8706C7.68284 18.9156 7.38005 17.8293 7.36842 16.7204ZM10.6101 20.7108C10.6099 20.7106 10.6104 20.711 10.6101 20.7108L10.6143 20.6905C10.6129 20.6972 10.6115 20.704 10.6101 20.7108ZM17.7152 22.1821C17.7148 22.1823 17.7156 22.1818 17.7152 22.1821L17.71 22.2178C17.7118 22.2059 17.7135 22.194 17.7152 22.1821ZM14.1007 19.1246L14.1669 19.1253L14.1655 19.1246H14.1622C14.7652 19.1064 15.3508 19.3283 15.7903 19.7416C16.2299 20.1549 16.4873 20.7258 16.5062 21.3288C16.5062 22.5434 15.4571 26.5263 14.1662 26.5263C12.8753 26.5263 11.8262 22.5461 11.8262 21.3288V21.3255C11.8458 20.7353 12.094 20.1758 12.5184 19.7651C12.9428 19.3545 13.5101 19.1248 14.1007 19.1246Z" fill="white"/>
</svg>
