<svg width="32" height="32" viewBox="0 0 32 32" fill="none" xmlns="http://www.w3.org/2000/svg">
<path fill-rule="evenodd" clip-rule="evenodd" d="M4.66602 13.7573C4.66602 7.62418 9.79119 2.66699 15.9906 2.66699C22.2075 2.66699 27.3327 7.62418 27.3327 13.7573C27.3327 16.8479 26.2087 19.7172 24.3587 22.1491C22.3178 24.8317 19.8022 27.1689 16.9707 29.0036C16.3227 29.4275 15.7378 29.4595 15.0266 29.0036C12.179 27.1689 9.66347 24.8317 7.64002 22.1491C5.78866 19.7172 4.66602 16.8479 4.66602 13.7573ZM12.2583 14.1027C12.2583 16.1573 13.9349 17.7732 15.9906 17.7732C18.0477 17.7732 19.7404 16.1573 19.7404 14.1027C19.7404 12.0641 18.0477 10.3694 15.9906 10.3694C13.9349 10.3694 12.2583 12.0641 12.2583 14.1027Z" fill="white"/>
</svg>
