<svg width="28" height="28" viewBox="0 0 28 28" fill="none" xmlns="http://www.w3.org/2000/svg">
<mask id="mask0_0_939" style="mask-type:luminance" maskUnits="userSpaceOnUse" x="2" y="3" width="25" height="24">
<path fill-rule="evenodd" clip-rule="evenodd" d="M2.33398 3.49988H26.2186V26.251H2.33398V3.49988Z" fill="white"/>
</mask>
<g mask="url(#mask0_0_939)">
<path fill-rule="evenodd" clip-rule="evenodd" d="M4.46193 14.1435C6.0976 19.2325 12.5598 23.3473 14.2771 24.3658C16.0003 23.3368 22.5091 19.1765 24.0923 14.1482C25.1318 10.8978 24.1669 6.78067 20.3333 5.54517C18.4759 4.949 16.3094 5.31183 14.8138 6.46917C14.5011 6.7095 14.0671 6.71417 13.7521 6.47617C12.1678 5.285 10.0981 4.93617 8.2116 5.54517C4.38377 6.7795 3.42243 10.8967 4.46193 14.1435ZM14.2783 26.2512C14.1336 26.2512 13.9901 26.2162 13.8594 26.145C13.4943 25.9455 4.89243 21.2042 2.79593 14.6778C2.79477 14.6778 2.79477 14.6767 2.79477 14.6767C1.47877 10.5677 2.9441 5.404 7.67493 3.87917C9.89627 3.1605 12.3171 3.47667 14.2748 4.71217C16.1718 3.51283 18.6918 3.1815 20.8688 3.87917C25.6043 5.40633 27.0743 10.5688 25.7594 14.6767C23.7306 21.1283 15.0658 25.9408 14.6983 26.1427C14.5676 26.215 14.4229 26.2512 14.2783 26.2512Z" fill="white"/>
</g>
<path fill-rule="evenodd" clip-rule="evenodd" d="M21.1791 12.3957C20.7276 12.3957 20.345 12.0492 20.3076 11.5919C20.2306 10.6329 19.589 9.8232 18.6755 9.52804C18.2146 9.3787 17.9626 8.8852 18.1108 8.4267C18.2613 7.96704 18.7501 7.71737 19.2121 7.86204C20.8023 8.37654 21.9165 9.7847 22.053 11.4495C22.0915 11.9314 21.7333 12.3537 21.2515 12.3922C21.227 12.3945 21.2036 12.3957 21.1791 12.3957Z" fill="white"/>
</svg>
