<svg width="20" height="20" viewBox="0 0 20 20" fill="none" xmlns="http://www.w3.org/2000/svg">
<mask id="mask0_0_420" style="mask-type:luminance" maskUnits="userSpaceOnUse" x="1" y="2" width="18" height="17">
<path fill-rule="evenodd" clip-rule="evenodd" d="M1.66699 2.49994H18.7274V18.7508H1.66699V2.49994Z" fill="white"/>
</mask>
<g mask="url(#mask0_0_420)">
<path fill-rule="evenodd" clip-rule="evenodd" d="M3.18696 10.1025C4.35529 13.7375 8.97112 16.6767 10.1978 17.4042C11.4286 16.6692 16.0778 13.6975 17.2086 10.1059C17.9511 7.7842 17.262 4.84337 14.5236 3.96087C13.197 3.53504 11.6495 3.7942 10.5811 4.62087C10.3578 4.79254 10.0478 4.79587 9.82279 4.62587C8.69112 3.77504 7.21279 3.52587 5.86529 3.96087C3.13112 4.84254 2.44446 7.78337 3.18696 10.1025ZM10.1986 18.7509C10.0953 18.7509 9.99279 18.7259 9.89946 18.675C9.63862 18.5325 3.49446 15.1459 1.99696 10.4842C1.99612 10.4842 1.99612 10.4834 1.99612 10.4834C1.05612 7.54837 2.10279 3.86004 5.48196 2.77087C7.06862 2.25754 8.79779 2.48337 10.1961 3.36587C11.5511 2.5092 13.3511 2.27254 14.9061 2.77087C18.2886 3.8617 19.3386 7.5492 18.3995 10.4834C16.9503 15.0917 10.7611 18.5292 10.4986 18.6734C10.4053 18.725 10.302 18.7509 10.1986 18.7509Z" fill="#246BFD"/>
</g>
<path fill-rule="evenodd" clip-rule="evenodd" d="M15.1282 8.85412C14.8057 8.85412 14.5324 8.60662 14.5057 8.27996C14.4507 7.59496 13.9924 7.01662 13.3399 6.80579C13.0107 6.69912 12.8307 6.34662 12.9366 6.01912C13.0441 5.69079 13.3932 5.51246 13.7232 5.61579C14.8591 5.98329 15.6549 6.98912 15.7524 8.17829C15.7799 8.52245 15.5241 8.82412 15.1799 8.85162C15.1624 8.85329 15.1457 8.85412 15.1282 8.85412Z" fill="#246BFD"/>
</svg>
