<svg width="24" height="24" viewBox="0 0 24 24" fill="none" xmlns="http://www.w3.org/2000/svg">
<mask id="mask0_0_880" style="mask-type:luminance" maskUnits="userSpaceOnUse" x="1" y="1" width="22" height="22">
<path fill-rule="evenodd" clip-rule="evenodd" d="M1 1H22.493V22.4938H1V1Z" fill="white"/>
</mask>
<g mask="url(#mask0_0_880)">
<path fill-rule="evenodd" clip-rule="evenodd" d="M6.10844 19.675C6.68844 19.675 7.23544 19.895 7.81444 20.128C11.3614 21.768 15.5564 21.022 18.2894 18.29C21.8954 14.682 21.8954 8.813 18.2894 5.207C16.5434 3.461 14.2214 2.5 11.7494 2.5C9.27644 2.5 6.95344 3.462 5.20844 5.208C2.47444 7.94 1.73044 12.135 3.35544 15.648C3.58944 16.227 3.81544 16.791 3.81544 17.377C3.81544 17.962 3.61444 18.551 3.43744 19.071C3.29144 19.499 3.07044 20.145 3.21244 20.287C3.35144 20.431 4.00144 20.204 4.43044 20.057C4.94544 19.881 5.52944 19.679 6.10844 19.675ZM11.7244 22.494C10.1964 22.494 8.65844 22.171 7.21944 21.505C6.79544 21.335 6.39844 21.175 6.11344 21.175C5.78544 21.177 5.34444 21.329 4.91844 21.476C4.04444 21.776 2.95644 22.15 2.15144 21.348C1.34944 20.545 1.71944 19.46 2.01744 18.587C2.16444 18.157 2.31544 17.713 2.31544 17.377C2.31544 17.101 2.18244 16.749 1.97844 16.242C0.105437 12.197 0.971437 7.322 4.14844 4.147C6.17644 2.118 8.87544 1 11.7484 1C14.6214 1 17.3214 2.117 19.3494 4.146C23.5414 8.338 23.5414 15.158 19.3494 19.35C17.2944 21.406 14.5274 22.494 11.7244 22.494Z" fill="#9E9E9E"/>
</g>
<path fill-rule="evenodd" clip-rule="evenodd" d="M15.6964 13.1631C15.1444 13.1631 14.6924 12.7161 14.6924 12.1631C14.6924 11.6101 15.1354 11.1631 15.6874 11.1631H15.6964C16.2484 11.1631 16.6964 11.6101 16.6964 12.1631C16.6964 12.7161 16.2484 13.1631 15.6964 13.1631Z" fill="#9E9E9E"/>
<path fill-rule="evenodd" clip-rule="evenodd" d="M11.6876 13.1631C11.1356 13.1631 10.6836 12.7161 10.6836 12.1631C10.6836 11.6101 11.1256 11.1631 11.6786 11.1631H11.6876C12.2396 11.1631 12.6876 11.6101 12.6876 12.1631C12.6876 12.7161 12.2396 13.1631 11.6876 13.1631Z" fill="#9E9E9E"/>
<path fill-rule="evenodd" clip-rule="evenodd" d="M7.67783 13.1631C7.12583 13.1631 6.67383 12.7161 6.67383 12.1631C6.67383 11.6101 7.11683 11.1631 7.66883 11.1631H7.67783C8.22983 11.1631 8.67783 11.6101 8.67783 12.1631C8.67783 12.7161 8.22983 13.1631 7.67783 13.1631Z" fill="#9E9E9E"/>
</svg>
