<svg width="20" height="20" viewBox="0 0 20 20" fill="none" xmlns="http://www.w3.org/2000/svg">
<path fill-rule="evenodd" clip-rule="evenodd" d="M14.5327 5.197C14.566 5.25527 14.6243 5.29689 14.6993 5.29689C16.6994 5.29689 18.3327 6.92841 18.3327 8.92619V13.8707C18.3327 15.8685 16.6994 17.5 14.6993 17.5H5.29935C3.29102 17.5 1.66602 15.8685 1.66602 13.8707V8.92619C1.66602 6.92841 3.29102 5.29689 5.29935 5.29689C5.36602 5.29689 5.43268 5.2636 5.45768 5.197L5.50768 5.09711C5.53641 5.03665 5.56589 4.97455 5.59583 4.9115C5.80901 4.46246 6.04487 3.96567 6.19102 3.6737C6.57435 2.92453 7.22435 2.50832 8.03268 2.5H11.9577C12.766 2.50832 13.4243 2.92453 13.8077 3.6737C13.9389 3.93592 14.1389 4.35833 14.3317 4.76545C14.3714 4.84942 14.4109 4.93274 14.4493 5.01387L14.5327 5.197ZM13.9243 8.39345C13.9243 8.80966 14.2577 9.14262 14.6743 9.14262C15.091 9.14262 15.4327 8.80966 15.4327 8.39345C15.4327 7.97725 15.091 7.63596 14.6743 7.63596C14.2577 7.63596 13.9243 7.97725 13.9243 8.39345ZM8.55768 9.68368C8.94935 9.29245 9.45768 9.08435 9.99935 9.08435C10.541 9.08435 11.0493 9.29245 11.4327 9.67536C11.816 10.0583 12.0243 10.566 12.0243 11.1071C12.016 12.2225 11.116 13.1299 9.99935 13.1299C9.45768 13.1299 8.94935 12.9218 8.56602 12.5388C8.18268 12.1559 7.97435 11.6482 7.97435 11.1071V11.0988C7.96602 10.5744 8.17435 10.0666 8.55768 9.68368ZM12.3077 13.4212C11.716 14.0122 10.8993 14.3785 9.99935 14.3785C9.12435 14.3785 8.30768 14.0372 7.68268 13.4212C7.06602 12.7969 6.72435 11.9811 6.72435 11.1071C6.71602 10.2414 7.05768 9.42564 7.67435 8.80133C8.29935 8.17703 9.12435 7.83574 9.99935 7.83574C10.8743 7.83574 11.6993 8.17703 12.316 8.79301C12.9327 9.41731 13.2743 10.2414 13.2743 11.1071C13.266 12.0144 12.8993 12.8302 12.3077 13.4212Z" fill="#9E9E9E"/>
</svg>
