<svg width="32" height="32" viewBox="0 0 32 32" fill="none" xmlns="http://www.w3.org/2000/svg">
<path d="M16.0003 4C14.2494 4 12.5156 4.34488 10.8979 5.01494C9.2802 5.685 7.81035 6.66713 6.57224 7.90524C4.07175 10.4057 2.66699 13.7971 2.66699 17.3333V26.6667C2.66699 27.0203 2.80747 27.3594 3.05752 27.6095C3.30756 27.8595 3.6467 28 4.00033 28H8.00033C9.06119 28 10.0786 27.5786 10.8288 26.8284C11.5789 26.0783 12.0003 25.0609 12.0003 24V21.3333C12.0003 20.2725 11.5789 19.2551 10.8288 18.5049C10.0786 17.7548 9.06119 17.3333 8.00033 17.3333H5.33366C5.33366 14.5044 6.45747 11.7912 8.45785 9.79086C10.4582 7.79047 13.1713 6.66667 16.0003 6.66667C18.8293 6.66667 21.5424 7.79047 23.5428 9.79086C25.5432 11.7912 26.667 14.5044 26.667 17.3333H24.0003C22.9395 17.3333 21.922 17.7548 21.1719 18.5049C20.4218 19.2551 20.0003 20.2725 20.0003 21.3333V24C20.0003 25.0609 20.4218 26.0783 21.1719 26.8284C21.922 27.5786 22.9395 28 24.0003 28H28.0003C28.3539 28 28.6931 27.8595 28.9431 27.6095C29.1932 27.3594 29.3337 27.0203 29.3337 26.6667V17.3333C29.3337 13.7971 27.9289 10.4057 25.4284 7.90524C22.9279 5.40476 19.5365 4 16.0003 4ZM8.00033 20C8.35395 20 8.69309 20.1405 8.94313 20.3905C9.19318 20.6406 9.33366 20.9797 9.33366 21.3333V24C9.33366 24.3536 9.19318 24.6928 8.94313 24.9428C8.69309 25.1929 8.35395 25.3333 8.00033 25.3333H5.33366V20H8.00033ZM26.667 25.3333H24.0003C23.6467 25.3333 23.3076 25.1929 23.0575 24.9428C22.8075 24.6928 22.667 24.3536 22.667 24V21.3333C22.667 20.9797 22.8075 20.6406 23.0575 20.3905C23.3076 20.1405 23.6467 20 24.0003 20H26.667V25.3333Z" fill="white"/>
</svg>
