<svg width="28" height="28" viewBox="0 0 28 28" fill="none" xmlns="http://www.w3.org/2000/svg">
<path fill-rule="evenodd" clip-rule="evenodd" d="M15.5826 7.52565C15.5239 6.95826 15.4627 6.36957 15.3123 5.78213C14.9024 4.37678 13.7672 3.50001 12.5499 3.50001C11.8709 3.49751 11.0121 3.91585 10.5252 4.33921L6.48937 7.7198H4.37662C2.82172 7.7198 1.57144 8.91847 1.33534 10.6482C1.1347 12.3091 1.08577 15.4442 1.33534 17.2716C1.55187 19.0991 2.74587 20.2802 4.37662 20.2802H6.48937L10.6035 23.7109C11.0256 24.0779 11.7706 24.4987 12.4557 24.4987C12.4998 24.5 12.5389 24.5 12.578 24.5C13.8185 24.5 14.911 23.5906 15.3208 22.1891C15.4752 21.5965 15.5294 21.0411 15.5817 20.5044L15.5826 20.4944L15.6377 19.9596C15.8481 18.2248 15.8481 9.76393 15.6377 8.0417L15.5826 7.52565ZM20.307 7.57701C19.9706 7.08101 19.3039 6.95701 18.8157 7.30145C18.3325 7.6484 18.2126 8.33229 18.549 8.82704C19.4849 10.2061 20 12.0423 20 14C20 15.9565 19.4849 17.7939 18.549 19.173C18.2126 19.6677 18.3325 20.3516 18.817 20.6985C18.998 20.8263 19.2097 20.8939 19.4274 20.8939C19.7785 20.8939 20.1064 20.7173 20.307 20.423C21.4888 18.682 22.1408 16.4011 22.1408 14C22.1408 11.5989 21.4888 9.31803 20.307 7.57701ZM22.5044 3.75791C22.9913 3.41221 23.6605 3.53872 23.9945 4.03347C25.8246 6.72767 26.8327 10.2686 26.8327 13.9999C26.8327 17.7337 25.8246 21.2733 23.9945 23.9675C23.7951 24.2619 23.466 24.4385 23.1149 24.4385C22.8971 24.4385 22.6867 24.3709 22.5056 24.2431C22.0212 23.8961 21.9013 23.2135 22.2365 22.7175C23.8195 20.3853 24.6918 17.289 24.6918 13.9999C24.6918 10.712 23.8195 7.61571 22.2365 5.2835C21.9013 4.78874 22.0212 4.10486 22.5044 3.75791Z" fill="white"/>
</svg>
