<svg width="42" height="50" viewBox="0 0 42 50" fill="none" xmlns="http://www.w3.org/2000/svg">
<path fill-rule="evenodd" clip-rule="evenodd" d="M20.3281 49.1981C20.6017 49.341 20.9076 49.4137 21.2135 49.4113C21.5195 49.4088 21.8229 49.3337 22.099 49.1884L30.9137 44.4763C33.4133 43.1439 35.3708 41.6539 36.8979 39.9193C40.2183 36.14 42.0315 31.3165 41.9992 26.3428L41.8947 9.93659C41.8848 8.04692 40.6437 6.36075 38.8081 5.74782L22.4099 0.24598C21.4225 -0.0883457 20.3405 -0.0810777 19.3705 0.262939L3.03446 5.96101C1.20885 6.59817 -0.0098884 8.29645 6.04595e-05 10.1885L0.104524 26.5826C0.136857 31.5636 2.01222 36.3653 5.38737 40.1059C6.92944 41.8163 8.90429 43.2844 11.4313 44.595L20.3281 49.1981ZM17.9946 29.9159C18.3627 30.2697 18.8403 30.4441 19.3178 30.4392C19.7953 30.4368 20.2704 30.2575 20.6335 29.899L30.2665 20.4022C30.9903 19.6875 30.9828 18.5392 30.2516 17.8342C29.5179 17.1292 28.3364 17.134 27.6127 17.8487L19.2904 26.0518L15.883 22.7764C15.1492 22.0714 13.9703 22.0787 13.244 22.7934C12.5202 23.508 12.5277 24.6564 13.2614 25.3614L17.9946 29.9159Z" fill="white"/>
</svg>
