<svg width="32" height="32" viewBox="0 0 32 32" fill="none" xmlns="http://www.w3.org/2000/svg">
<path fill-rule="evenodd" clip-rule="evenodd" d="M23.2527 8.31521C23.306 8.40844 23.3993 8.47503 23.5194 8.47503C26.7194 8.47503 29.3327 11.0855 29.3327 14.2819V22.1931C29.3327 25.3896 26.7194 28 23.5194 28H8.47935C5.26602 28 2.66602 25.3896 2.66602 22.1931V14.2819C2.66602 11.0855 5.26602 8.47503 8.47935 8.47503C8.58602 8.47503 8.69268 8.42175 8.73268 8.31521L8.81268 8.15538C8.85865 8.05863 8.90583 7.95926 8.95372 7.85838C9.29482 7.13992 9.67218 6.34506 9.90602 5.87791C10.5193 4.67925 11.5593 4.01332 12.8527 4H19.1327C20.426 4.01332 21.4793 4.67925 22.0927 5.87791C22.3027 6.29744 22.6226 6.97322 22.931 7.62455C22.9946 7.75896 23.0578 7.89233 23.1194 8.0222L23.2527 8.31521ZM22.2794 13.4295C22.2794 14.0954 22.8127 14.6282 23.4793 14.6282C24.146 14.6282 24.6927 14.0954 24.6927 13.4295C24.6927 12.7636 24.146 12.2175 23.4793 12.2175C22.8127 12.2175 22.2794 12.7636 22.2794 13.4295ZM13.6927 15.4939C14.3193 14.8679 15.1327 14.535 15.9993 14.535C16.866 14.535 17.6793 14.8679 18.2927 15.4806C18.906 16.0932 19.2393 16.9057 19.2393 17.7714C19.226 19.556 17.786 21.0078 15.9993 21.0078C15.1327 21.0078 14.3193 20.6748 13.706 20.0622C13.0927 19.4495 12.7593 18.6371 12.7593 17.7714V17.758C12.746 16.919 13.0793 16.1065 13.6927 15.4939ZM19.6927 21.4739C18.746 22.4195 17.4393 23.0056 15.9993 23.0056C14.5993 23.0056 13.2927 22.4595 12.2927 21.4739C11.306 20.475 10.7593 19.1698 10.7593 17.7714C10.746 16.3862 11.2927 15.081 12.2793 14.0821C13.2793 13.0832 14.5993 12.5372 15.9993 12.5372C17.3993 12.5372 18.7193 13.0832 19.706 14.0688C20.6927 15.0677 21.2393 16.3862 21.2393 17.7714C21.226 19.2231 20.6393 20.5283 19.6927 21.4739Z" fill="white"/>
</svg>
