<svg width="16" height="16" viewBox="0 0 16 16" fill="none" xmlns="http://www.w3.org/2000/svg">
<path d="M15.106 4.16496C15.3831 4.40741 15.4112 4.82859 15.1687 5.10568L9.33538 11.7723C9.21574 11.9091 9.04547 11.9911 8.86397 11.9993C8.68247 12.0076 8.50546 11.9414 8.37389 11.8161L6.69564 10.2178L5.33538 11.7723C5.21574 11.9091 5.04547 11.9911 4.86397 11.9993C4.68247 12.0076 4.50546 11.9414 4.37389 11.8161L0.87389 8.48277C0.60727 8.22884 0.596977 7.80686 0.850902 7.54024C1.10483 7.27362 1.52681 7.26333 1.79343 7.51725L4.78987 10.371L5.72926 9.29741L4.87389 8.48277C4.60727 8.22884 4.59698 7.80686 4.8509 7.54024C5.10483 7.27362 5.52681 7.26333 5.79343 7.51725L8.78987 10.371L14.1653 4.22767C14.4077 3.95058 14.8289 3.9225 15.106 4.16496Z" fill="white"/>
<path d="M11.1687 5.10568C11.4112 4.82859 11.3831 4.40741 11.106 4.16496C10.8289 3.9225 10.4077 3.95058 10.1653 4.22767L7.83194 6.89434C7.58949 7.17143 7.61757 7.59261 7.89466 7.83506C8.17175 8.07752 8.59292 8.04944 8.83538 7.77235L11.1687 5.10568Z" fill="white"/>
</svg>
