<svg width="28" height="28" viewBox="0 0 28 28" fill="none" xmlns="http://www.w3.org/2000/svg">
<path fill-rule="evenodd" clip-rule="evenodd" d="M7.13253 5.25H13.8899C16.7156 5.25 18.6885 7.19721 18.6885 9.98773V18.0123C18.6885 20.8028 16.7156 22.75 13.8899 22.75H7.13253C4.30684 22.75 2.33398 20.8028 2.33398 18.0123V9.98773C2.33398 7.19721 4.30684 5.25 7.13253 5.25ZM23.285 8.02548C23.7971 7.76491 24.398 7.79215 24.8868 8.1001C25.3756 8.40687 25.6673 8.93986 25.6673 9.52261V18.4781C25.6673 19.062 25.3756 19.5938 24.8868 19.9006C24.6196 20.0676 24.321 20.1529 24.02 20.1529C23.7691 20.1529 23.5183 20.0937 23.2838 19.974L21.5559 19.1023C20.9166 18.7778 20.5199 18.1263 20.5199 17.4026V10.5969C20.5199 9.87201 20.9166 9.22058 21.5559 8.89841L23.285 8.02548Z" fill="white"/>
</svg>
