<svg width="40" height="40" viewBox="0 0 40 40" fill="none" xmlns="http://www.w3.org/2000/svg">
<path fill-rule="evenodd" clip-rule="evenodd" d="M21.8404 6.9616L24.8861 13.0462C25.1846 13.6435 25.7608 14.0577 26.4289 14.1536L33.2422 15.1343C34.9256 15.3773 35.5955 17.4175 34.3772 18.5865L29.4503 23.3207C28.9661 23.7862 28.7457 24.4554 28.8603 25.1127L30.023 31.7963C30.3093 33.4496 28.5496 34.7111 27.045 33.9289L20.9554 30.7711C20.3584 30.4613 19.6434 30.4613 19.0446 30.7711L12.955 33.9289C11.4504 34.7111 9.69066 33.4496 9.97874 31.7963L11.1397 25.1127C11.2543 24.4554 11.0339 23.7862 10.5497 23.3207L5.6228 18.5865C4.40453 17.4175 5.0744 15.3773 6.75777 15.1343L13.5711 14.1536C14.2392 14.0577 14.8171 13.6435 15.1156 13.0462L18.1596 6.9616C18.9128 5.45714 21.0872 5.45714 21.8404 6.9616Z" stroke="#246BFD" stroke-width="1.5" stroke-linecap="round" stroke-linejoin="round"/>
</svg>
